<?xml version="1.0" standalone="no"?>
<!DOCTYPE svg PUBLIC "-//W3C//DTD SVG 1.1//EN" "http://www.w3.org/Graphics/SVG/1.1/DTD/svg11.dtd" >
<svg xmlns="http://www.w3.org/2000/svg" xmlns:xlink="http://www.w3.org/1999/xlink" version="1.1">
<metadata></metadata>
<defs>
<font id="anironcregular" horiz-adv-x="653" >
<font-face units-per-em="2048" ascent="1638" descent="-410" />
<missing-glyph horiz-adv-x="1085" />
<glyph horiz-adv-x="0" />
<glyph unicode="&#xd;" horiz-adv-x="1085" />
<glyph unicode=" "  horiz-adv-x="1085" />
<glyph unicode="&#x09;" horiz-adv-x="1085" />
<glyph unicode="&#xa0;" horiz-adv-x="1085" />
<glyph unicode="!" d="M109 119q0 109 165 108q177 0 177 -135q0 -47 -60 -84q-49 -33 -90 -33q-27 0 -106 54q-86 59 -86 90zM127 1321q2 18 68 31q49 8 69 8q31 0 80 -12q61 -14 62 -35l-31 -348q0 2 -3 -44.5t-3 -66.5q0 -6 -2 -24.5t-2 -20.5v-217q0 -2 5 -17.5t5 -19.5v-57q0 -16 8 -43 q12 -35 25 -35q4 0 32 -6q9 -3 9 -11q0 -27 -24 -29.5t-87 -8.5q-121 -8 -98 -9q-51 0 -60 25q-12 35 -12 49v180q0 2 3 22.5t3 22.5l-6 54q0 -2 -2 26v41.5v48.5q-2 39 -2 35l-2 74l-10 110q-33 233 -25 277z" />
<glyph unicode="&#x22;" horiz-adv-x="825" d="M59 1210q0 37 30 62.5t71 25.5q125 0 125 -174q0 -195 -123 -239q-37 -14 -43 -15h-21v17q0 6 8 31q8 16 9 131q0 18 -9 30q-47 86 -47 131zM346 1210q0 37 30 62.5t70 25.5q125 0 125 -174q0 -195 -122 -239q-37 -14 -43 -15h-21v17q0 6 8 31q8 16 8 131q0 18 -8 30 q-47 86 -47 131z" />
<glyph unicode="#" horiz-adv-x="1394" d="M49 426l8 10q14 -2 43 -19.5t47 -17.5l115 13q100 12 199 24q119 12 201 10q100 -4 180 -88q14 -12 30 -43l-6 -6h-10q-12 2 -31 13q-41 14 -65 16q20 -2 -109 -12q-104 -10 -207 -23q-123 -12 -208 -8q-96 2 -160 74q-27 31 -27 57zM49 897l8 10q14 -2 43 -19.5 t47 -17.5l115 13q100 12 199 24q119 12 201 11q100 -4 180 -89q14 -12 30 -43l-6 -6h-10q-12 2 -31 13q-41 14 -65 16q20 -2 -109 -12q-104 -10 -207 -23q-123 -12 -208 -8q-96 2 -160 74q-27 31 -27 57zM252 885q4 133 88 235q12 21 43 41l6 -8v-14q-2 -14 -12 -37 q-14 -55 -17 -86q2 25 13 -142q12 -135 22 -270q12 -160 8 -272q-2 -123 -73 -205q-31 -35 -58 -37l-10 10q2 20 19.5 58.5t17.5 60.5l-12 150q-12 129 -25 258q-12 154 -10 258zM518 885q4 133 88 235q12 21 43 41l6 -8v-14q-2 -14 -12 -37q-14 -55 -16 -86q2 25 12 -142 q12 -135 23 -270q12 -160 8 -272q-2 -123 -74 -205q-31 -35 -57 -37l-11 10q2 20 19.5 58.5t17.5 60.5l-12 150q-12 129 -25 258q-12 154 -10 258z" />
<glyph unicode="$" horiz-adv-x="1318" d="M94 246q0 12 42 75.5t61 63.5q12 0 32 -18q27 -25 47 -35q74 -39 173 -64l12 236q2 59 4 114q-66 10 -186 29q-57 10 -103 41q-61 41 -61 98q0 37 55 129q141 147 289 201q-8 72 -21.5 75t-21.5 5t-8 16q0 31 16 35t63 13q86 10 70 10q37 0 43 -31q8 -45 8 -61v-31 q37 4 78 4q197 0 252 -102q14 -29 14 -39q0 -29 -41 -95q-47 -74 -90 -73q-25 0 -24 22q0 8 19.5 31t19.5 51q2 78 -164 86q-18 0 -64 4v-86q0 -2 -2 -27.5t-2 -29.5l4 -68q2 -20 2 -65l25 -2q66 -4 180 -27q219 -82 219 -194q0 -59 -135 -193q-39 -39 -127 -102.5 t-135 -89.5q4 -82 2 -97q-2 -23 -49 -39q-35 -12 -49 -12q-23 0 -60 16q-45 20 -43 46l2 45q-33 -2 -41 -2q-18 0 -88 16q-6 2 -67 29q-150 68 -150 92zM254 842q0 -78 168 -78h45v209q0 2 -3 22.5t-3 22.5v14q-18 -4 -51 -16q-53 -16 -109 -72q-47 -47 -47 -102zM612 543 l9 -140q2 -39 10 -149q121 23 192 111q16 20 17 65q-1 131 -228 170v-57z" />
<glyph unicode="%" horiz-adv-x="1681" d="M12 981q0 86 43 145q41 51 105.5 75t130.5 24q98 0 165.5 -73t67.5 -167q0 -59 -18 -88q-84 -141 -254 -141q-164 0 -219 135q-6 14 -13.5 38.5t-7.5 51.5zM88 -35q14 25 37 35q10 4 29 18q84 104 127 185l63 123l100 174q45 80 64 116l51 99q23 47 64 119l79 137 q12 29 27 57q43 82 76 107q6 6 43 30q51 41 153 99q6 8 86 32q18 10 78 23q12 0 19 -2q8 -6 0 -19q-12 -23 -56 -43q-2 -6 -28 -18l-56 -49q-45 -49 -87 -129t-64 -125l-307 -543q-33 -51 -82 -131q-27 -47 -94 -135q-14 -20 -44 -51t-49 -45q-31 -23 -65 -37 q-20 -10 -86 -31q-25 -6 -37 -15t-31 -7q-23 4 -10 26zM98 1010q0 -23 4 -43q4 -6 7 -15q18 -72 71 -116.5t109 -44.5q80 0 129 83q12 23 14 35v39v37q-41 150 -129 191q-29 12 -51 12q-111 0 -143 -115q-2 -8 -7 -18q-4 -43 -4 -45zM737 233q0 86 43 146q41 51 105.5 74.5 t130.5 23.5q98 0 165.5 -72.5t67.5 -166.5q0 -59 -18 -88q-84 -141 -254 -142q-164 0 -219 135q-6 14 -13.5 39t-7.5 51zM823 262q0 -23 4 -43q4 -6 7 -14q18 -72 71 -117t109 -45q80 0 129 84q12 23 14 35v39v37q-41 150 -129 190q-29 12 -51 12q-111 0 -143 -114 q-2 -8 -7 -19q-4 -43 -4 -45z" />
<glyph unicode="&#x26;" horiz-adv-x="2228" d="M16 113q0 170 129 358q41 47 119 137q39 47 74 72q49 33 53 35q27 25 84 63q41 29 37 35l-20 37q-27 33 -93 125q-78 113 -77 215q0 31 6 35q27 197 155 334q168 178 455 178q127 0 205 -111q66 -92 65 -211q0 -135 -92 -262q-59 -80 -172 -172q-96 -76 -98 -88 q-2 -14 473 -481q82 170 113 272q14 33 34 102q14 63 43 74q12 4 27 4q51 0 131 -41q70 -35 82 -51q4 -6 4 -16q0 -31 -47 -117q-31 -59 -104 -205q-14 -33 -58 -92q-53 -70 -71 -98q168 -160 346 -291q16 -12 79.5 -13t96.5 -34q-14 -20 -176 -68.5t-226 -48.5 q-37 0 -295 229l-16 -16q-53 -39 -106 -76q-106 -76 -166 -102q-139 -61 -176 -68q-111 -18 -185 -18q-80 0 -340 47q-94 16 -157 70q-37 33 -95 112q-41 59 -41 146zM293 225q0 -78 50 -151.5t144 -112.5q160 -68 263 -67q92 0 172 45q2 2 14 12l18 18q14 12 37 33 q49 37 139 164q-249 239 -507 524q-2 -4 -97 -84q-233 -207 -233 -381zM506 1325q-10 -70 67 -162q37 -45 164 -162q234 177 236 306q2 80 -51 163q-61 96 -152 93q-94 -2 -170 -70q-82 -68 -94 -168z" />
<glyph unicode="'" d="M59 1210q0 37 30 62.5t69 25.5q125 0 125 -174q0 -195 -121 -239q-39 -14 -43 -15h-23v17q0 6 10 31q6 16 7 131q0 18 -7 30q-47 86 -47 131z" />
<glyph unicode="(" horiz-adv-x="759" d="M16 891q0 4 3.5 89t3.5 107q0 68 16 203q10 14 27 51q10 35 48 87.5t72.5 75t112.5 65.5q27 16 54.5 32.5t52.5 16.5q33 0 32 -25q0 -27 -30 -63q-14 -10 -39 -31q-86 -104 -106.5 -150t-16.5 -128l6 -181v-258q0 -117 4 -170l6 -145q4 -68 4 -176v-397q0 -96 8 -123 q16 -51 95 -146q16 -10 39 -31q33 -37 32 -65q0 -23 -34 -23q-25 0 -51.5 16.5t-55.5 33.5q-47 25 -113 61q-35 27 -72.5 78t-47.5 88q-10 18 -27 51q-14 55 -16 256z" />
<glyph unicode=")" horiz-adv-x="851" d="M16 -471q0 29 33 65q14 8 39 31q86 102 106.5 149.5t16.5 129.5l-6 180v256q0 117 -4 172l-8 145q-2 68 -3 174l-2 398q0 98 -6 125q-16 49 -94 145q-16 10 -39 31q-33 37 -33 63q0 25 33 25q27 0 53.5 -16.5t53.5 -32.5q47 -25 112 -64q37 -25 74 -77t49 -87 q10 -18 25 -51q14 -57 16 -258l8 -799q0 -4 -4 -86q-2 -88 -2 -110q0 -68 -16 -203q-10 -16 -23.5 -52t-51.5 -87t-73 -78q-37 -18 -112 -61q-29 -16 -55.5 -33t-51.5 -17q-35 0 -35 23z" />
<glyph unicode="*" horiz-adv-x="1134" d="M47 698l8 11q16 0 45 -16.5t47 -16.5t195 29q-82 117 -82 202q0 109 29 127l8 -2q16 -18 12 -41q10 -51 53 -110q41 -49 80 -99q43 92 78 129q45 51 129 76q39 10 41 10l12 -2l3 -10q-8 -23 -31 -29q-39 -37 -64.5 -99t-48.5 -122q51 4 96 4q98 0 185 -82q14 -10 32 -41 l-6 -6h-10q-18 0 -31 11q-43 14 -65 14q-4 0 -184 -27q100 -139 100 -209q0 -90 -47 -120h-13q-6 14 -7 47.5t-9 49t-125 156.5q-47 -106 -82 -147q-59 -72 -143 -72q-23 0 -35 6l-4 13q8 12 37 29.5t38 32t74 186.5q-68 -6 -124 -7q-59 0 -119 33q-68 37 -72 92z" />
<glyph unicode="+" horiz-adv-x="1280" d="M90 707l6 10q14 -2 41 -18.5t47 -16.5q16 0 213 27q-6 55 -6 98q0 113 80 192q10 15 39 29l6 -6v-10q0 -14 -12 -27q-14 -41 -15 -65l23 -199q55 6 100 6q113 0 191 -82q14 -10 28 -37l-6 -6h-10q-14 -2 -27 12q-39 12 -63 13l-201 -21q6 -66 6 -119q0 -119 -67 -176 q-29 -25 -53 -24l-9 6q2 14 17.5 40.5t15.5 47.5q0 14 -24 213q-66 -6 -119 -6q-117 0 -176 67q-23 27 -25 52z" />
<glyph unicode="," d="M6 170q0 47 37 79t86 32q90 0 147 -80q50 -66 50 -138q0 -74 -60 -165q-66 -102 -153 -136q-47 -16 -54 -16h-26v21q-2 8 10 36q23 39 43 78q29 51 29 86q0 25 -8.5 40.5t-63.5 78.5q-37 45 -37 84z" />
<glyph unicode="-" horiz-adv-x="1134" d="M47 698l8 11q14 0 44 -16.5t48 -16.5l115 16q98 14 197 31q119 16 198 16q102 0 185 -82q16 -10 32 -41l-6 -6h-10q-12 2 -31 11q-43 14 -65 14q18 0 -109 -17q-104 -14 -207 -28q-123 -16 -208 -17q-96 0 -162 68q-27 31 -29 57z" />
<glyph unicode="." d="M12 133q0 121 187 121q194 0 194 -152q0 -51 -65 -94q-55 -35 -101 -35q-31 0 -118 60q-96 63 -97 100z" />
<glyph unicode="/" horiz-adv-x="1681" d="M88 -35q14 25 37 35q10 4 29 18q84 104 127 185l63 123l100 174q45 80 64 116l51 99q23 47 64 119l79 137q63 119 123 164q6 6 43 30q27 25 54 47q49 43 79 52q6 8 86 32q18 10 78 23q12 0 19 -2q8 -6 0 -19q-8 -16 -35 -43q-2 -6 -29 -18l-55 -49q-45 -49 -87 -129 t-65 -125l-307 -543q-33 -51 -82 -131q-27 -47 -94 -135q-14 -20 -44 -51t-48 -45q-31 -23 -66 -37q-20 -10 -86 -31q-18 -4 -49 -16q-18 -8 -39 -6q-23 4 -10 26z" />
<glyph unicode="0" horiz-adv-x="1363" d="M-27 545q0 215 97 366q84 133 221 191.5t276 58.5q209 0 357 -188q141 -180 141 -418q0 -149 -37 -223q-180 -354 -541 -355q-193 0 -313 107q-102 90 -172 281q-12 33 -16 53q-12 63 -13 127zM174 616q0 -53 12 -102q2 -8 7 -20l4 -9q72 -186 120 -258 q100 -143 248 -143q160 0 258 203q25 49 29 86v88q0 2 2 18v29q0 37 -2 43q-39 172 -84 264q-68 141 -182 205q-53 31 -103 31q-90 0 -166 -66q-86 -76 -118 -213q-8 -18 -17 -45q0 -25 -2 -63q-6 -59 -6 -48z" />
<glyph unicode="1" horiz-adv-x="862" d="M-31 1069q2 14 92 43q59 18 162 35q80 12 99 12q35 0 79 -14q55 -18 56 -43v-342q0 2 0 -58q-2 -59 -2 -86q0 -10 -2 -32.5t-2 -24.5v-278q0 -2 2 -31v-33l12 -57q0 -18 10 -56q14 -43 31 -45q33 0 94 -6q12 -2 12 -14q0 -29 -61 -37q-45 -6 -135 -12q-6 0 -63.5 -5 t-61.5 -5q-68 0 -78 32q-14 43 -14 62v229q0 4 3 29.5t3 29.5v74q0 -4 -2 33q-2 33 0 49q0 23 4 69t4 48v90l4 137q-8 57 -8 125q0 37 -45 41h-123q-76 2 -70 41z" />
<glyph unicode="2" horiz-adv-x="1398" d="M4 0v20q0 8 35 52q51 61 63 78q158 213 308 366q250 254 276 283q25 49 25 88q0 33 -15 65q-20 45 -45 58q-63 33 -114 32q-47 0 -111 -30q-16 -12 -47 -31q-47 -27 -68 -55q-29 -49 -55 -97q-12 -31 -27 -59q-18 -37 -43 -37q-53 0 -151 84q-4 4 -4 12q0 47 94 164 q20 25 51 60q61 51 76.5 62t93.5 40q68 18 133 23q164 14 283 -46.5t168 -173.5q10 -23 10 -51q0 -78 -55 -162q-16 -25 -39 -43q-49 -55 -94 -104q-106 -104 -324 -348q-51 -68 -51 -78q0 -39 61 -35q8 0 65.5 3t65.5 3l396 -6q84 -2 172 42t96 44q10 0 24.5 -11t14.5 -22 q0 -23 -53.5 -62.5t-147.5 -84.5q-109 -51 -176 -59q-84 -10 -145 -11q-8 0 -66.5 6.5t-67.5 6.5h-591z" />
<glyph unicode="3" horiz-adv-x="1318" d="M-33 150q0 18 52.5 97t82.5 79q10 0 70 -45q43 -35 160 -72q109 -35 164 -37q10 0 34.5 -3t28.5 -3q78 0 158 37t129 96q16 20 16 70q0 113 -149 147q-53 12 -242 21q-29 2 -41 4q-45 41 -45 88t44 78.5t99 25.5h17q121 43 129 47q33 10 65 37q41 37 37 76q-6 47 -51 78 q-80 51 -137.5 55t-85.5 4h-107q-53 -2 -106 -26q-96 -41 -96 -91q0 -37 20 -67v-2h4v-8q4 -10 -5 -25.5t-20.5 -19t-21.5 -3.5q-61 0 -100 138q-6 27 -4 39q20 102 55 137q41 45 157.5 63.5t184.5 18.5q92 0 178 -33q74 -31 217 -117q6 -2 35 -51q35 -55 41 -86 q4 -12 4 -27q0 -85 -139 -161q29 -6 49 -15q231 -84 231 -219q0 -113 -127 -235q-47 -47 -170 -123q-111 -68 -188 -105q-23 -10 -39 -14q-104 -18 -211 -18q-23 0 -108 18q-8 2 -82 35q-186 84 -187 117z" />
<glyph unicode="4" horiz-adv-x="1507" d="M10 344v14q0 2 105 119q133 145 217 246q51 63 160 225q127 193 165 246q10 14 37 31q37 20 43 24q76 59 105 60q29 0 28 -49v-801h267q6 0 184 41q-158 -205 -449 -205v-174q0 -31 5 -39q12 -8 30 -27q8 -14 -35 -28l-98 -58q-63 -35 -112 -47q-10 10 -11 21v344 q0 4 -26 6q-193 10 -578 39q-16 0 -37 12zM248 483q4 -6 18 -4l389 -16l4 487l-401 -448q-14 -10 -10 -19z" />
<glyph unicode="5" horiz-adv-x="1390" d="M-4 150q0 16 52 95t77 79q14 0 41 -23q33 -31 57 -43q174 -90 312 -96q10 0 35.5 -4t29.5 -4q129 0 246 145q20 27 20 82q0 100 -104 162q-74 43 -205 67q-74 12 -147 25q-94 12 -265 39q-23 8 -22 63q0 23 4 66q6 53 6 69q2 27 -2 158q-2 96 10 160q10 18 219 18 q92 0 279 -4q172 -4 213 -4q188 2 195 2q29 -2 24 -26q-4 -29 -55 -60q-35 -20 -78 -26q-55 -4 -111 -9q-115 0 -311 -8q-39 -4 -80 -10t-55 -21q-6 -8 -10 -72.5t-4 -158.5q43 0 90 3t45 3q25 0 108 -8q57 -4 115 -10q72 -8 111 -23q96 -35 170 -94q104 -82 104 -170 q0 -74 -168 -240q-111 -111 -135 -133q-90 -86 -139 -108q-25 -14 -74 -33q-106 -20 -217 -21q-23 0 -111 23q-6 0 -84 35q-186 84 -186 115z" />
<glyph unicode="6" horiz-adv-x="1376" d="M14 489q-10 -28 4 -112q29 -154 230 -273q80 -47 221 -88q12 0 39 -4q100 -29 211 -8q35 6 123 35q12 12 43 31q61 31 121.5 110.5t68.5 149.5q4 49 -6 110.5t-35 114.5q-12 10 -28 35q-20 47 -125 139q-47 41 -142 92q-43 25 -80 35q-55 14 -69 21q-55 20 -60 38 q-2 12 19 39q27 37 31 43q23 33 67 99q150 295 146 321q-10 51 -134 96q-106 41 -141 35q-10 -4 -35 -10q-2 -2 -2 -16q2 -8 32 -20.5t38 -22t12 -25.5q6 -41 -69 -186q-55 -106 -91 -156q-27 -33 -79 -106q-92 -127 -185 -252q-63 -92 -125 -265zM205 340q0 92 66.5 204.5 t140.5 211.5q10 12 43 20q16 4 37 4q88 0 192 -63.5t154 -143.5q20 -29 43 -75q12 -74 -19 -159t-98 -134q-20 -14 -88 -41q-14 -8 -37 -19q-33 -4 -82 -4q-121 0 -219 39q-133 54 -133 160z" />
<glyph unicode="7" horiz-adv-x="1413" d="M4 0v18q0 8 33 48q49 55 59 67q248 319 555 645q43 43 119 125q29 27 55 53q37 39 37 62q0 63 -172 47q-236 0 -506 -31q-20 -4 -72.5 -16t-58.5 -12q-27 0 -26 30q0 41 94 86q61 27 115 41q16 4 114 21l844 18q39 1 66 -24q0 -25 -15 -41q-166 -164 -530 -541 q-4 -4 -307 -371q-6 -8 -31 -51q-16 -27 -35 -51q-25 -39 -25 -51q0 -6 2 -11q16 -27 31 -30.5t23 -12t8 -14.5q0 -18 -90 -18q-133 0 -266 2q-8 4 -21 12z" />
<glyph unicode="8" horiz-adv-x="1333" d="M4 252q0 49 16 94q10 10 23 29q14 39 109 123q35 31 112 88q43 23 80 35q12 4 43 14q-66 33 -188 106q-49 35 -86 101q-12 23 -13 67q0 84 168 185q106 66 176 75l9 2q12 0 16 3q76 27 170 26q31 0 104 -8q14 -4 41 -12q55 -12 118 -53.5t79 -79.5q12 -31 12 -68t-10 -72 q-4 -18 -12 -45q-16 -51 -47 -78q-55 -49 -140 -86l121 -63q156 -82 213 -184q16 -31 17 -89q0 -141 -193 -258q-33 -18 -111 -53q-88 -39 -116 -43l-13 -2q-14 -2 -18 -4q-100 -35 -221 -35q-39 0 -137 10q-16 8 -52 19q-74 14 -152.5 66.5t-101.5 105.5q-16 37 -16 84z M231 319q0 -51 46.5 -107t121.5 -83q41 -6 121 -23q14 -4 19 -4q78 0 213 56q166 68 166 145q0 35 -35 70q-49 51 -144 100q-78 39 -157 80q-20 10 -41 6q-225 -49 -299 -182q-10 -18 -11 -58zM297 948q0 -23 29.5 -58.5t61.5 -57t85 -39.5q47 -16 92 -33q20 -2 68 -12 q31 -8 87 36.5t87 100.5q23 41 22 43q0 39 -35 81t-92 62q-33 6 -94 19q-10 2 -12 2q-84 0 -182 -37q-117 -45 -117 -107z" />
<glyph unicode="9" horiz-adv-x="1376" d="M14 856q-6 -47 5.5 -108.5t33.5 -116.5q12 -10 31 -33q20 -47 123 -139q49 -43 143 -94q43 -23 80 -33q53 -16 68 -21q57 -20 59 -41q2 -12 -18 -39q-27 -37 -29 -43q-33 -33 -88 -98q-231 -274 -227 -301q8 -51 110 -86q88 -31 123 -25q10 4 35 13v4q2 4 2 10 q-2 8 -8 10q-12 2 -25 15q-6 6 -8 22q-8 41 86 156q55 61 106.5 120.5t128.5 151.5q100 125 201 250q63 88 129 268q10 27 -6 111q-27 156 -227 272q-82 47 -221 88q-14 0 -41 5q-98 29 -209 10q-35 -6 -123 -37q-12 -10 -43 -31q-61 -29 -121.5 -109.5t-69.5 -150.5z M209 690q-12 72 18.5 157t96.5 134q20 16 90 41q14 8 37 18q33 6 79 7q123 0 222 -41q131 -54 131 -160q0 -92 -65.5 -205t-139.5 -209q-10 -14 -43 -20q-18 -4 -39 -4q-86 0 -190.5 62t-153.5 142q-20 29 -43 78z" />
<glyph unicode=":" d="M12 133q0 121 187 121q194 0 194 -152q0 -51 -65 -94q-55 -35 -101 -35q-31 0 -118 60q-96 63 -97 100zM12 854q0 121 187 121q194 0 194 -150q0 -53 -65 -96q-55 -35 -101 -35q-31 0 -118 60q-96 63 -97 100z" />
<glyph unicode=";" d="M33 854q0 121 166 121q176 0 176 -150q0 -53 -60 -96q-51 -35 -90 -35q-27 0 -106 60q-86 63 -86 100zM47 170q0 47 37 79t86 32q90 0 147 -80q50 -66 50 -138q0 -74 -60 -165q-66 -102 -153 -136q-47 -16 -54 -16h-26v21q-2 8 10 36q23 39 43 78q29 51 29 86 q0 25 -8.5 40.5t-63.5 78.5q-37 45 -37 84z" />
<glyph unicode="&#x3c;" horiz-adv-x="1042" d="M23 535q131 35 269 176t157 266l182 27q-27 -119 -127 -252q-115 -150 -240 -197q0 -4 4 -8q343 -262 402 -432l-162 -41q-51 127 -217 264q-135 98 -268 197z" />
<glyph unicode="=" horiz-adv-x="1394" d="M49 549l8 10q14 -2 43 -19.5t47 -17.5l115 13q100 12 199 24q119 12 201 10q100 -4 180 -88q14 -12 30 -43l-6 -6h-10q-12 2 -31 12q-41 14 -65 17q20 -2 -109 -12q-104 -10 -207 -23q-123 -12 -208 -8q-96 2 -160 74q-27 31 -27 57zM49 815l8 10q14 -2 43 -19.5 t47 -17.5l115 13q100 12 199 24q119 12 201 11q100 -4 180 -88q14 -12 30 -43l-6 -7h-10q-12 2 -31 13q-41 14 -65 16q20 -2 -109 -12q-104 -10 -207 -23q-123 -12 -208 -8q-96 2 -160 74q-27 31 -27 57z" />
<glyph unicode="&#x3e;" horiz-adv-x="868" d="M2 115l164 -41q49 127 217 264q133 98 268 197q-133 35 -271 176t-157 266l-182 27q27 -119 129 -252q113 -150 240 -197q0 -4 -4 -8q-343 -262 -404 -432z" />
<glyph unicode="?" horiz-adv-x="1544" d="M80 1296q-14 23 96 88q68 37 137 76q33 18 84 45q92 31 115 31q150 14 207 8q117 -12 166 -33q63 -25 190 -99.5t185 -121.5q125 -104 137 -241q12 -141 -234 -261q-35 -16 -186 -43q-72 -12 -90 -14q-6 0 -48 -11t-46 -11q-106 -10 -101 -88q4 -35 47 -70 q12 -14 55.5 -38t73.5 -21q14 4 64.5 11t68.5 23q20 25 43 49q8 10 25 11q43 0 95.5 -43t52.5 -88q0 -92 -234 -115q-47 -4 -82 -4q-100 0 -183 42t-216 159q-18 27 -33 49q-35 55 -37 82q-6 59 55 108q45 35 107 51q80 18 201 52q57 14 114 30q98 31 154 80q74 70 65 176 q-6 57 -30 82q-59 63 -153.5 98t-180.5 27q-27 -6 -70 -14q-184 -23 -317 -129q-16 -10 -58 -53q-25 -25 -40 -27q-37 -2 -91 31q-63 39 -108 116zM629 133q0 121 186 121q195 0 195 -152q0 -51 -66 -94q-55 -35 -100 -35q-31 0 -119 60q-96 63 -96 100z" />
<glyph unicode="@" horiz-adv-x="2510" d="M33 328q0 176 67 387q156 479 555 745q350 233 762 234q74 0 146 -11q561 -68 561 -675q0 -205 -66 -467q-2 -4 -71 -131q-35 -63 -93 -101q-37 -25 -112 -59q-86 -39 -121 -40t-123 -1q-111 0 -123 2q-25 2 -63 49q-12 14 -39 49q-6 14 -15.5 29.5t-27.5 15.5 q-29 0 -144 -75q-76 -47 -127 -62q-33 -8 -106 -8q-96 0 -162 18q-33 10 -74 48t-41 69q0 20 197 260q31 35 84 96q4 4 117 129q6 8 6 25q0 63 -121 199q-8 10 -21.5 16t-60.5 10q-39 4 -57 21v16q12 8 31 10l86 4h32q29 2 33 3q6 0 33 -3h31q131 0 270 -266q27 -45 76 -135 q43 -92 131 -276q57 -125 153 -154q37 4 110 37t93 57q29 31 37 62q25 74 49 149q41 152 41 287q0 367 -287 563q-53 39 -149 70q-80 29 -111 28q12 0 -51 4q-45 2 -68 -2l-120 -24q-236 -43 -432 -158q-242 -141 -353 -352q-25 -49 -47 -111q-20 -49 -47 -125 q-45 -170 -43 -254q2 -281 88 -426q100 -168 369 -276q150 -59 217 -59q8 0 58 -6.5t59 -6.5q51 0 256 56q174 49 211.5 64t140.5 63q115 49 135 49q33 0 33 -21q0 -23 -60 -61q-41 -18 -86 -43q-100 -53 -239 -109q-174 -68 -275 -84q-221 -35 -297 -35q-86 0 -239 31 q-324 63 -477 260q-43 55 -81 186.5t-38 215.5zM825 412q0 -37 52 -66q43 -27 77 -27q55 0 136 29q23 8 79 39q8 8 25 21q43 29 43 43q0 27 -100 219q-37 68 -58 71q-39 -29 -137 -145q-23 -27 -27 -37q-23 -29 -45 -59q-45 -61 -45 -88z" />
<glyph unicode="A" horiz-adv-x="2418" d="M-23 268q0 43 410 543q66 74 174 201q8 8 242 268q16 18 16 51q0 133 -254 416q-16 18 -44.5 31.5t-125.5 21.5q-82 8 -123 43v33q29 18 68 20l178 13h70q59 2 69 2q8 0 63.5 -2t65.5 -2q274 0 566 -555q53 -90 157 -281q90 -193 271 -575q59 -129 141 -236 q100 -133 180 -156q18 -6 82 -51v-41q-12 -8 -31 -20q-37 -2 -256 -2h-256q-49 4 -133 104q-27 31 -82 103q-12 29 -26 57q-25 37 -60 37q-23 0 -135 -60q-100 -55 -166 -96q-156 -102 -266 -129q-68 -16 -219 -16q-201 0 -336 39q-68 18 -149 92q-90 82 -91 147zM414 410 q0 -76 104 -140q92 -53 164 -53q20 0 117 19q109 23 166 43q45 16 161 81q20 14 54 39q90 62 90 93q0 12 -78 181t-133 273q-74 143 -119 150q-76 -55 -152 -144q-66 -78 -131 -155q-49 -57 -59 -78q-47 -61 -94 -123q-90 -129 -90 -186z" />
<glyph unicode="B" horiz-adv-x="1990" d="M-109 1665q0 86 283 180q240 80 320 80q90 0 90 -59q0 -8 -3 -68.5t-3 -66.5l-3 -140v-11q0 -38 27 -38q16 0 178 129q182 145 254 186t170 41q248 0 367 -303q8 -23 8 -114q0 -82 -2 -88q-27 -70 -109 -166q-31 -37 -82 -92q-29 -33 -28 -35q0 -23 37 -33 q123 -37 231 -207q39 -59 45 -90q21 -105 21 -154q0 -303 -387 -499q-248 -125 -529 -166q-139 -20 -303 -21q-158 0 -194 23q-59 39 -60 213l-6 649q0 49 -4 165t-4 175q0 16 -5 67.5t-5 57.5v-3q1 0 6 261q0 23 9 69t9 52q0 23 -17.5 41t-35.5 18q-8 0 -110.5 -44 t-110.5 -44q-53 0 -54 35zM584 1110q0 -6 4 -57.5t4 -75.5q14 -27 59 -27q6 0 46 7.5t55 9.5q63 2 153 28q66 20 129 41q156 45 240 154q29 37 29 115q0 41 -17 90q-68 221 -252 223q-31 0 -71 -16q-72 -31 -74 -31q-39 -12 -162 -109q-143 -111 -143 -164v-188zM588 590 q0 -8 3 -91t3 -89l2 -226q0 -39 72 -55q43 -10 84 -10q16 0 112 16q41 2 115 10q94 14 219 74q191 90 191 205v12q0 165 -107 289q-111 129 -278 129q-6 0 -76 -10l-117 -15q-55 -6 -111 -20q-45 -12 -57 -18q-39 -16 -45 -43q-10 -53 -10 -158z" />
<glyph unicode="C" horiz-adv-x="2013" d="M20 606q0 158 62 346q147 461 567 719q356 221 756 221h3q284 0 284 -196q0 -102 -74 -186.5t-184 -84.5q-59 0 -60 31q0 6 41 41q53 45 76 70q14 14 14 32q0 59 -102 93q-67 24 -119 24h-4q-4 0 -176 -33q-182 -35 -336 -141q-174 -119 -268 -299q-23 -43 -41 -94 q-16 -41 -39 -107q-39 -139 -39 -211q0 -174 88 -329q100 -184 293 -271q109 -49 174 -49q8 0 52 -5t50 -5q43 0 152 21q96 18 113 22q59 29 120 55q104 47 129 47q59 0 60 -49q0 -37 -66 -80q-39 -18 -78 -38q-219 -117 -403 -144q-195 -31 -289 -31q-78 0 -213 27 q-293 57 -432 238q-41 53 -76 171.5t-35 194.5z" />
<glyph unicode="D" horiz-adv-x="2332" d="M0 688q0 123 27 234q20 25 45 75q23 96 190 308q76 98 240 225q76 59 143 92q221 109 221 158q0 25 -47 69q-63 59 -71 70q-53 57 -160 168q-387 512 -387 565q0 98 219 227q193 115 260 115q10 0 32.5 -5t37.5 -5q0 -2 4 -9t4 -20q0 -18 -47 -49q-57 -35 -76 -61 q-10 -14 -10 -47q0 -80 194 -332q143 -184 223 -266q63 -57 191 -179q248 -242 496 -483q188 -195 268 -397q28 -74 28 -215q0 -305 -342 -598q-139 -117 -393 -242q-27 -4 -76 -23q-178 -88 -397 -88q-70 0 -246 27q-29 18 -92 45q-129 37 -271 170t-181 262q-6 23 -17 109 q-10 80 -10 100zM342 864q0 -143 86 -293q27 -47 92 -114q78 -80 142 -113q43 -20 184 -47q8 -2 36.5 -11.5t39.5 -9.5q205 0 460 130q318 162 318 391q0 82 -82 221q-68 111 -137 186q-174 184 -357 334q-27 20 -90 21q-168 0 -363.5 -170t-273.5 -365q-55 -141 -55 -160z " />
<glyph unicode="E" horiz-adv-x="1947" d="M-10 907q0 84 6 117q8 63 51 190q80 244 266 408q123 109 265 172q33 16 210 68q164 47 332 47q156 0 330 -43q281 -70 281 -217q0 -57 -62.5 -112.5t-114.5 -55.5q-39 0 -61 51q-29 70 -68 96q-49 35 -160.5 65.5t-193.5 30.5q-162 0 -321 -102q-172 -113 -269 -305 q-49 -96 -49 -119v-14q0 -56 29 -72q12 -6 53 -6h328q8 0 70.5 -7t70.5 -7h473q55 0 105 -17q69 -25 69 -68q0 -44 -86 -102q-74 -49 -106 -61q-20 -8 -52 -8q-14 0 -87.5 42t-122.5 42l-471 -7q-4 0 -166 -10q-119 -6 -121 -39q-6 -55 -6 -76q8 -49 20 -139 q25 -209 248 -356q193 -131 377 -131q66 0 166 24q80 23 159 43q25 6 123 50q80 34 117 34h2q39 0 39 -43q0 -37 -68 -94q-55 -47 -104 -67q-137 -61 -170 -74q-86 -35 -170 -55.5t-170 -20.5q-160 0 -283 27q-27 6 -231 102q-250 117 -375 369q-102 207 -102 450z" />
<glyph unicode="F" horiz-adv-x="1875" d="M-27 1802v29q35 20 78 23.5t137 11.5q86 8 93 8q158 0 176 -66q10 -35 12 -151q6 -16 45 -17q8 0 115 68q119 80 145 92q186 98 418 98h4q347 0 504 -155q0 -6 -16 -27l-15 -22q-35 -27 -96 -54q-69 -27 -120 -27q-11 0 -21 1q-14 0 -98.5 49t-98.5 51q-89 17 -193 17 h-32q-111 -2 -265 -109q-137 -94 -249 -223q-16 -20 -21 -41q-4 -33 -4 -82q0 12 0 -39q2 -51 2 -176q2 -61 78 -62q8 0 201.5 10.5t203.5 10.5q70 0 183 -10q39 -2 39 -33q0 -23 -35 -41q-27 -12 -56 -27q-80 -45 -162.5 -53t-162.5 -14t-160 -11q-92 -8 -110 -38 q-8 -12 -9 -60q0 -23 3 -65.5t3 -49.5v-421v-109q2 -100 3 -111l4 -585q0 -98 -106.5 -228.5t-229.5 -191.5q-29 -16 -56 -31q-33 -18 -55 -18q-47 0 -47 41q0 29 39 71q49 55 68 97q30 68 30 160v6q0 25 -4 96q-3 38 -3 66q0 14 1 26q8 98 8 137q0 59 2 205v215q0 23 -4 77 t-6 91q0 2 5 14.5t5 20.5q4 82 4 522l7 862q-2 25 -11.5 73t-68.5 62q-80 16 -101 37z" />
<glyph unicode="G" horiz-adv-x="2406" d="M-41 836q0 383 324 661q260 223 684 352q344 104 616 105q160 0 299 -70q178 -88 178 -248q0 -141 -129 -237q-119 -90 -262 -90q-16 18 -16 47q0 16 6 52t6 56q0 49 -33 86q-98 104 -202 140q-69 24 -187 24h-10q-317 0 -590 -164q-340 -205 -340 -559q0 -274 215 -528 q229 -268 518 -268q139 0 349 98t235 180q14 45 14 191q0 8 3 40.5t3 53.5q0 135 -104 135q-12 0 -184 -42t-187 -42q-31 0 -61.5 16.5t-30.5 40.5q0 37 48 88.5t91 59.5q143 29 400 63q231 35 256 35q193 0 193 -109q0 -6 -1 -12l13 -841q2 -14 2 -27q0 -80 -117 -119 q-80 -27 -172 -27q-152 0 -152 111q0 14 3 44t3 42q0 63 -63 64q2 0 -117 -68q-137 -80 -268 -125q-188 -68 -365 -68q-367 0 -617.5 244t-250.5 615z" />
<glyph unicode="H" horiz-adv-x="2723" d="M-152 2314q0 55 205 150q123 55 367 174q125 65 157 65h1q84 0 84 -73v-7l-9 -1169q4 -8 13 -61q4 -37 36 -37q20 0 189 133q207 160 377 246q264 133 514 133q328 0 487 -295q117 -219 117 -518q0 -170 -31 -277q-12 -39 -114 -307q-12 -27 -48 -74q-45 -55 -57 -75 q-156 -260 -405 -469q-102 -86 -172 -86h-9q-10 10 -10 28q0 14 38 76.5t67 93.5q356 420 356 860q0 219 -88 457q-127 342 -361 342q-195 0 -520 -227q-338 -236 -370 -422q0 -315 4 -324q1 -7 1 -27q0 -41 -5 -139q-8 -156 -9 -153q0 -106 19 -158q16 -20 45 -68 q2 -8 2 -36q-37 -35 -234 -113q-184 -74 -204 -74q-37 0 -71 24.5t-34 63.5l19 779q0 260 8 380l-2 1100q0 2 -8 74q-4 45 -37 45h-1q-9 0 -87 -39q-82 -41 -136 -41q-20 0 -47 10q-37 14 -37 35z" />
<glyph unicode="I" horiz-adv-x="1161" d="M6 1888q37 12 60 15q342 28 411 28h4q53 0 121 -22q84 -31 84 -72v-571q0 4 -2 -95.5t-2 -142.5q0 -16 -3 -54t-3 -42v-465q0 -4 10 -37t10 -39v-125q0 -33 17 -90q20 -74 47 -76q47 0 141 -10q17 -4 17 -27t-41 -43q-31 -14 -52 -16q-68 -10 -202 -20q-8 0 -99 -9 q-82 -8 -90 -8q-31 0 -67 15q-43 14 -50 36q-20 76 -20 103v385q0 6 5 49t5 49v123q0 -6 -4 55q-1 26 -1 47t1 35q0 37 8 117q6 74 6 78v149l5 230q-8 72 -9 151q0 168 -71 195q-31 10 -179 26q-110 12 -110 40q0 21 53 38z" />
<glyph unicode="J" horiz-adv-x="1075" d="M-12 1825q0 31 28 43q2 0 131 28q31 8 86 19q29 2 97 8q61 4 67 4h-1q0 -1 81 -8q43 -4 117 -27q33 -20 39 -88q6 -59 6 -190q0 -78 8 -180l12 -1002q0 -6 -4 -106q-6 -111 -6 -140l-4 -118q-4 -82 -20 -136q-14 -18 -39 -63q-16 -45 -72.5 -109.5t-110.5 -97.5 q-53 -23 -167 -76q-43 -23 -83 -43t-77 -20q-51 0 -51 31q0 35 49 79q20 12 57 39q125 125 158 189q26 51 26 151v8l-10 224v323q0 4 -2 105.5t-2 107.5l-12 183q0 4 -3 107.5t-3 109.5v258v-3l-2 62v174q0 55 -11 74q-18 39 -88 39q-6 0 -45 -2t-47 -2q-102 0 -102 45z" />
<glyph unicode="K" horiz-adv-x="2408" d="M-53 2200v26q61 25 133 25q70 0 143 -15q4 0 133 -2q84 -2 121 -36q66 -61 78 -197q2 -106 2 -215q1 -26 1 -69t-1 -103v-123v2v-197q0 -59 4 -178v-82q2 -55 31 -69q10 -2 20 -2q25 0 60 14q29 12 57 25q176 61 410 296q49 49 164 213q137 197 137 254q0 8 -19.5 40 t-19.5 40q0 12 5 18.5t5 8.5q57 24 122 24h5q80 0 195 -22q131 -25 155 -53q1 -3 1 -7q0 -58 -111 -208q-39 -53 -144 -146q-86 -76 -172 -151q-72 -51 -145 -101q-125 -88 -125 -114q0 -27 143 -172q184 -190 234 -252q70 -68 186 -189q84 -100 277 -295q57 -57 174 -163 q20 -16 20 -39q0 -66 -229 -66q-160 0 -230 49q-111 78 -276 254q-106 113 -303 342q-154 176 -305 355q-8 10 -39 10q-29 0 -142 -47q-131 -51 -131 -88v-275q0 -170 -2 -194q-10 -139 -63 -240q-18 -39 -111 -68q-61 -18 -125 -34q-133 -45 -215 -45q-18 0 -35.5 14 t-17.5 29q0 10 45 61l70 74q55 63 55 223v1642q0 166 -207 201q-4 4 -18 17z" />
<glyph unicode="L" horiz-adv-x="2316" d="M0 2353v47h721q106 0 123 -143l20 -1995q0 -23 29 -53q23 -25 90 -31q45 -2 92 -4q212 -24 439 -24h18q152 0 250 12q45 6 149 31q92 24 106 24h1q18 0 63 -20v-35q0 -61 -258 -121q-205 -49 -268 -49h-1049q-70 0 -106 86q-29 66 -29 145v971q0 12 8.5 47t8.5 43 q2 18 -2 51q-4 41 -5 49v273q0 -2 5 108q2 121 4 211q1 44 1 81q0 74 -3 122q-2 57 -62 90q-45 25 -170 31q-115 6 -176 53z" />
<glyph unicode="M" horiz-adv-x="4200" d="M-66 213q41 16 52 16l6 -2h10q23 0 64 2q49 2 61 2q37 0 57 37q98 182 320 615q485 989 698 989q61 0 160 -47q106 -53 106 -99q0 -16 -66.5 -126.5t-66.5 -126.5q0 -57 332 -398q272 -281 356 -350q41 18 82 100q27 61 54 123l258 582q209 450 293 450q47 0 169.5 -101 t122.5 -159q0 -20 -65 -118q-90 -129 -107 -162l1160 -1399v-47q-66 -29 -146 -29q-96 0 -219 29q-111 27 -168 55q0 4 8 66q3 24 3 41t-3 28q-29 100 -65 172q-82 127 -228 359q-37 59 -209 264q-201 240 -241 240q-68 0 -285 -555q-96 -248 -280 -603q-23 -43 -101 -43 q-66 0 -143 52q-84 57 -84 114q0 16 47 95t47 100q0 90 -344 465q-332 362 -371 362q-47 0 -143 -184q-47 -100 -96 -199q-104 -207 -211 -411q-137 -260 -279 -402q-31 -33 -145 -33q-68 0 -105 25q-53 39 -104 80q-70 51 -191 131z" />
<glyph unicode="N" horiz-adv-x="2871" d="M-55 1767v50q307 104 391 104q86 0 133 -63q131 -182 446 -611q152 -197 555 -465q387 -256 525 -266h7q51 0 64 57q4 18 5 78q0 119 -33 500q-33 375 -64 610q-4 33 -88 146q43 35 123 35q113 0 213 -31q92 -27 102 -56q133 -319 156 -931q-1 -54 -1 -123q0 -173 7 -445 q10 -113 33 -178q14 -37 39 -72q20 -25 20 -45q0 -33 -67 -55q-55 -16 -101 -16h-131q-57 0 -112 26q-70 33 -82 90q-3 12 -3 45q0 17 1 39q0 51 -15 80q-20 41 -118 70q-76 23 -154 45q-106 39 -311 125q-217 104 -318 158q-207 106 -344 192q-8 6 -100 84q-76 66 -98 68 h-7q-44 0 -45 -76v-674q0 -152 -151 -221q-111 -51 -277 -51q-74 0 -98 45v416l62 886q0 18 2 67.5t2 76.5q0 244 -168 286z" />
<glyph unicode="O" horiz-adv-x="2465" d="M-35 922q0 160 53.5 335t139.5 289q168 225 450 326q90 33 258 63q184 35 297 35q416 0 713 -319q287 -308 287 -709q0 -88 -21 -203q-23 -125 -53 -176q-362 -602 -1092 -602q-338 0 -575 143q-246 150 -365 437q-27 55 -65 168q-27 106 -27 213zM336 1049 q0 -96 24 -183q10 -25 25 -63q74 -305 307 -504q221 -188 465 -188q168 0 291 73q143 84 258 285q53 92 61 152q2 22 2 159q0 147 -2 158q-80 297 -174 459q-141 250 -381 360q-117 55 -219 55q-195 0 -356 -118q-184 -133 -252 -375q-16 -31 -33 -80q0 -41 -4 -111 q-10 -83 -12 -83v4z" />
<glyph unicode="P" horiz-adv-x="2826" d="M-109 1700q0 43 70 63q45 6 90 15q82 23 244 61q88 27 178 53q121 35 215 35q143 0 143 -153q0 -20 -3 -59.5t-3 -57.5q0 -102 80 -103q20 0 148 80q63 43 129 84q90 47 182 97q123 66 201 81q174 39 344 39q127 0 215 -30q74 -25 151 -109q18 -18 117 -137 q51 -63 105 -234q47 -155 47 -227q0 -10 -11 -53q-12 -53 -14 -68q-35 -238 -264 -487q-207 -227 -488.5 -382t-488.5 -155q-68 0 -154 41q-102 47 -102 111q0 66 98 123q80 45 115 45q10 0 112.5 -35t112.5 -35q35 0 110 34t116 69q199 170 325 405q125 229 125 414 q0 135 -80 254q-88 133 -238.5 175t-177.5 42q-143 0 -467.5 -189.5t-338.5 -285.5q-12 -66 -13 -172q0 -12 9.5 -109.5t9.5 -108.5v-755q0 -10 2 -37t2 -39v-668q0 -137 -199 -250q-162 -94 -258 -94q-29 0 -57.5 14.5t-28.5 34.5q0 12 31 48q45 49 53 61q18 29 21 78 q1 326 1 597q0 1038 -18 1266q-6 72 -6 250l-4 238q0 41 -92 67l-209 -34q-186 31 -187 92z" />
<glyph unicode="Q" horiz-adv-x="2455" d="M-47 1106q0 -10 10 -53q12 -53 14 -68q37 -238 256 -479q199 -219 473.5 -366.5t481.5 -147.5q68 0 153 41q102 47 103 110q0 66 -98 123q-78 45 -115 45q-10 0 -112.5 -34.5t-112.5 -34.5q-35 0 -110 33.5t-114 68.5q-199 168 -313 391q-106 209 -107 398q0 135 78 253 q88 133 238.5 175.5t179.5 42.5q147 0 434 -144q295 -147 310 -239q12 -66 12 -172v-138q2 -127 2 -137l-14 -713q0 -10 -2.5 -36.5t-2.5 -38.5v-668q0 -137 226 -244q182 -86 286 -86q29 0 59 14.5t30 34.5q0 12 -33 48q-43 49 -54 61q-25 27 -47 80l-18 1861q1 14 1 34 q0 38 -5 96q-8 94 -8 92l-15 231q-2 37 -28 162q-29 137 -41 145q-109 61 -283 74h-11q-44 0 -96 -15q-59 -16 -73 -38q4 -23 39 -70q37 -55 52 -96t15 -76q0 -72 -60 -72h-3q-39 0 -201 74l-188 94q-131 63 -209 82q-174 39 -344 39q-127 0 -215 -31q-72 -25 -152 -108 q-18 -18 -117 -137q-51 -63 -102 -234q-49 -155 -49 -227z" />
<glyph unicode="R" horiz-adv-x="2283" d="M-78 1866q25 59 176 59q10 0 78 -7t76 -7t25.5 -7.5t25.5 -7.5q86 0 109 -20q35 -49 69 -98l6 -45q6 -25 5 -29q-6 -12 -7 -12q-1 -2 17 -112q14 -90 15 -136q0 -11 -1 -19q35 -39 47 -39q-8 0 121 136q147 158 309 254q227 135 465 135q160 0 256 -137q80 -117 80 -265 q0 -170 -158 -348q-100 -113 -295 -254q-159 -116 -159 -133q0 -39 258 -276q236 -217 360 -310q20 -14 103 -16q75 -2 116 -41q-16 -29 -190 -88t-248 -59q-84 0 -291 168q-166 135 -344 319q-166 174 -166 201q0 37 187 162q256 174 346 251q186 162 188 287v6 q0 99 -63 199q-76 117 -184 117h-7q-145 -6 -327 -138q-164 -117 -288 -278.5t-124 -261.5v-641q0 -8 7 -34t7 -34v-231q0 -98 -291 -99q-158 0 -200 35q0 16 27.5 58.5t31.5 54.5q23 86 31 188q10 137 12 152l6 1225q-6 68 -49 98q-20 14 -88 35q-57 16 -80 43z" />
<glyph unicode="S" horiz-adv-x="1912" d="M-35 223q0 25 79 144.5t116 119.5q20 0 59 -36q51 -45 88 -66q78 -39 209 -84q162 -55 258 -59q14 0 53 -5.5t47 -5.5q123 0 251 60.5t208 157.5q31 39 31 122q0 150 -156 234q-113 61 -309 88q-111 14 -221 27q-127 20 -365 59q-109 18 -194 76q-117 76 -117 182 q0 74 107 244q240 252 485 354q209 86 481 86q172 0 268 -29q141 -45 205 -163q29 -53 29 -72q0 -55 -78 -176q-90 -137 -168 -138q-14 0 -30.5 14.5t-16.5 24.5q0 16 36 59.5t36 97.5q0 76 -103 118q-84 37 -204 43q-37 0 -142 8q-94 8 -102 8q-82 0 -88 -2 q-39 -4 -160 -45q-98 -31 -203 -135q-27 -27 -57.5 -91.5t-30.5 -99.5q0 -90 135 -126q80 -20 181 -21h235q35 0 162 -12q88 -8 174 -15q109 -12 164 -34q414 -154 414 -367q0 -109 -254 -360q-74 -74 -245 -197t-257 -166q-37 -20 -111 -47q-162 -31 -327 -31 q-31 0 -166 31q-10 2 -125 55q-78 35 -158 70q-123 61 -123 100z" />
<glyph unicode="T" horiz-adv-x="2177" d="M-8 1647q0 31 90 82q61 35 104 49q180 63 287 82q104 12 309 36l1014 -6q127 14 180 15q76 0 76 -45q0 -33 -48 -69t-85 -44q-133 -25 -315 -31q-16 0 -69.5 -5t-61.5 -5h-209h1q0 -3 -118 -31q-18 -4 -39 -24.5t-21 -147.5v-1145q0 -25 50 -41q33 -10 65 -18 q29 -14 29 -41q0 -20 -84 -88q-76 -61 -174 -113q-111 -57 -174 -57q-18 0 -38 14.5t-22 22.5q-12 86 -34 260q-14 176 -15 420v690q0 8 9.5 54t9.5 77q0 29 -9 53q-16 61 -82 76q-18 4 -110 4q-115 0 -369 -37q-6 -2 -34.5 -10t-51.5 -8q-61 0 -61 31z" />
<glyph unicode="U" horiz-adv-x="2576" d="M-29 881q0 166 78 331q59 131 217 351q4 12 19 47q4 12 4 20q0 29 -45 29q-18 0 -70 -8q-27 -4 -27 20l9 29q33 27 123 61q113 43 329 90q184 41 213 41q27 0 53.5 -12t26.5 -31q0 -35 -43 -57q-238 -129 -315 -385q-98 -317 -99 -487q0 -342 177 -543q188 -213 540 -213 q154 0 342 35q260 49 275 137q4 20 4 57q0 24 -2 56q-3 88 -4 88v-2q0 10 -13.5 212.5t-13.5 213.5l-4 210q0 4 -10 84q-6 104 -15 209q-12 137 -45 207q-18 37 -86 37q-8 0 -45 -7t-47 -7q-16 0 -43 8q-33 14 -33 35q0 14 20.5 36.5t39.5 28.5q92 25 266 56q147 26 172 26 h2q59 0 98 -42t47 -113q61 -516 95 -945q14 -137 43 -456q2 -43 6 -66q8 -43 22 -69q23 -41 82 -52q45 -6 92 -12v-29q-29 -31 -59 -39q-357 -114 -413 -114h-1q-115 0 -139 174q-2 12 -20 8q-41 -6 -48.5 -6t-76.5 -25q-76 -29 -111 -37q-348 -81 -510 -81h-4 q-6 0 -37 -4.5t-43 -4.5q-252 0 -471 103q-236 113 -352 307q-88 150 -121 266q-29 100 -29 234z" />
<glyph unicode="V" horiz-adv-x="2449" d="M168 1843q166 68 209 68q92 0 196 -176q117 -197 199 -383q45 -100 131 -334q49 -137 144 -389q117 -295 170 -295q4 0 8 2q37 23 65 55q70 82 125 176q39 68 78 138q16 27 141 284q47 117 144 354q67 158 67 224v2q0 61 -41 82q-39 8 -78.5 18t-39.5 47q0 55 200 129 q176 66 221 66q80 0 80 -127q0 -141 -49 -352q-45 -188 -106 -336q-102 -250 -246 -471q-88 -133 -285 -353q-279 -309 -399 -309q-41 0 -84 39q-29 29 -98 121q-121 162 -211 354q-33 68 -166 389q-8 20 -37 103l-33 94q-45 129 -67 186q-39 100 -78 181q-70 137 -90 165 q-61 78 -154 78q-10 0 -16.5 -4t-16.5 -4q-67 0 -67 50q0 52 184 128z" />
<glyph unicode="W" horiz-adv-x="4091" d="M-80 1688q0 51 266 131q233 71 280 71h1q137 0 309 -305q53 -92 275 -567q143 -303 202 -303q25 0 181 180q332 383 440 596q10 20 10 86q2 51 37 88q53 57 107 115q63 59 116 59q80 0 127 -59q4 -4 68 -119q78 -143 190 -399q127 -295 191 -418q14 -29 59 -29 q86 0 373 348q268 326 334 471q8 18 18 90q8 61 27.5 88t142.5 50q147 28 163 28h1q45 0 86 -18q51 -23 51 -64q0 -43 -252 -303q-37 -47 -108 -131q-260 -258 -733 -729q-33 -33 -33 -78l57 -151q76 -197 76 -264q0 -49 -2 -54q-8 -29 -62 -59q-41 -25 -133 -47 q-76 -18 -102 -19q-66 0 -123 88q-25 37 -78 160q-61 137 -176 436q-53 162 -106 322q-94 252 -162 252q-43 0 -180 -150q-162 -174 -496 -549q-12 -12 -12 -57t55 -129q41 -57 84 -158q43 -92 43 -112q0 -66 -117 -109q-92 -35 -178 -35h-85h1q-55 8 -96 56 q-78 92 -197 334q-74 137 -213 405q-135 279 -405 832q-25 47 -76 63q-68 4 -135 6q-111 8 -111 60z" />
<glyph unicode="X" horiz-adv-x="2123" d="M-72 1688q0 49 250 124q221 68 266 68q123 0 295 -231q115 -156 299 -492q250 311 310 442q10 20 20 93q6 55 21.5 78.5t62.5 35.5q14 4 168 33q57 10 72 10q41 0 77 -16q49 -18 50 -55q0 -25 -113 -150q-53 -59 -137 -145q-35 -45 -109 -131q-104 -111 -342 -344 q76 -135 117 -199q57 -90 74 -125q23 -47 67 -109q10 -12 19 -30q16 -35 53 -105q57 -94 115 -155q35 -39 49 -60q50 -80 132 -80q4 1 9 1q11 1 21 0q70 0 94 -27q12 -14 12 -31q0 -35 -74 -68q-12 -6 -26 -12q-74 -37 -240 -39q-18 -1 -36 -1q-56 0 -122 5q-106 0 -176 84 q-84 96 -108 129q-57 74 -89 137.5t-98 163.5q-96 145 -112 172q-244 -305 -301 -432q-10 -20 -21 -94q-8 -55 -20 -74q-16 -27 -64 -39q-14 -4 -170 -32q-55 -10 -69 -11q-43 0 -78 15q-49 20 -49 55q0 27 112 152q51 57 137 145q35 45 109 131q102 109 332 334 q-166 297 -219 385q-129 215 -244 371q-41 55 -82 67q-55 2 -139 6q-104 6 -105 50z" />
<glyph unicode="Y" horiz-adv-x="2699" d="M-88 1673q0 70 147 135q78 35 177 60q66 25 188 63q12 2 41 4q-4 0 45 0q25 0 68 -41q63 -55 122 -157l95 -178q129 -254 395 -760q41 -74 88 -74q27 0 68 39q16 25 53 72q80 104 182 313q121 252 166 326q289 469 588 469q137 0 137 -59v-7q-6 -39 -96 -86 q-127 -68 -178 -137q-72 -98 -158 -254q-70 -131 -142 -262q-119 -213 -385 -729q-8 -16 -32 -93q-39 -119 -148 -282q-8 -14 -184 -264q-76 -98 -215 -287q-51 -59 -152.5 -180t-103.5 -189q0 -72 53 -106q55 -27 111 -51q18 -10 18 -25q0 -78 -213 -104q-72 -8 -244 -9 h-288q-27 0 -61 25t-34 49q0 37 29 68q211 227 422 452q250 270 401 473q109 143 109 221q0 76 -123 300q-68 113 -149 260q-94 201 -189 401q-123 258 -196 387q-23 41 -43 80q-29 51 -54 70q-46 34 -99 34h-3q-27 0 -66 -10q-51 -14 -65 -16q-31 -4 -51 8q-31 16 -31 51z " />
<glyph unicode="Z" horiz-adv-x="2279" d="M6 2v29q0 12 53 71q78 88 95 109q272 352 460 567q123 141 416 451q63 68 187 196q43 43 88 86q57 61 57 97q0 80 -182 80q-41 0 -88 -7q-252 0 -678 -49q-33 -4 -115 -23.5t-92 -19.5q-41 0 -41 45q0 68 147 138q96 45 183 65q25 6 178 33l1212 26h3q58 0 100 -38 q0 -39 -23 -62q-264 -260 -840 -856q-102 -111 -245 -289q-119 -147 -238 -295q-47 -59 -47 -82q0 -51 92 -51q12 0 99 4t98 4l655 -36q127 0 242.5 47t126.5 47q16 0 38.5 -16.5t22.5 -30.5q0 -33 -74.5 -85.5t-226.5 -109.5q-158 -57 -264 -72q-127 -14 -221 -14 q-10 0 -128 9.5t-130 9.5h-889q-10 6 -31 22z" />
<glyph unicode="[" horiz-adv-x="684" d="M10 1231q0 35 6 59q10 14 27 51q23 78 139 91q-25 -2 129 -2h45q25 2 37 0q18 -2 35 -13q29 -16 16 -37q-12 -23 -59 -39q-16 0 -51 -10t-70 -24q-23 -16 -20 -86l6 -181v-258q0 -117 4 -170l8 -145q2 -68 2 -176l2 -397q0 -20 -2 -44t-2 -30q0 -23 12.5 -30t61.5 -21 q20 -2 49 -7q47 -16 61 -41q10 -20 -18 -36q-16 -8 -31.5 -10.5t-40.5 -2.5q-33 2 -45 2q-20 0 -73 -2q-43 -2 -56 0q-82 6 -110 41q-10 12 -29 70q0 18 -4 51q-16 55 -16 256l-9 801q0 4 3 89t3 107q0 16 -5 66.5t-5 77.5z" />
<glyph unicode="\" horiz-adv-x="1681" d="M88 1298q8 -16 35 -43q2 -6 29 -18l55 -49q45 -49 87 -129t64 -125l308 -543q33 -51 82 -131q27 -47 94 -135q14 -20 43.5 -51t48.5 -45q31 -23 65 -37q20 -10 88 -31q16 -4 48 -16q18 -8 39 -6q23 4 10 26q-12 25 -37 35q-10 4 -29 18q-84 104 -125 185l-63 123 l-101 174q-47 80 -65 116l-49 99q-25 47 -66 119l-78 137q-66 119 -125 164q-6 6 -43 30q-27 25 -53 47q-47 43 -80 52q-6 8 -86 32q-18 10 -75 23q-14 0 -21 -2q-8 -6 0 -19z" />
<glyph unicode="]" horiz-adv-x="851" d="M16 -279q-12 -20 17 -36q16 -8 32.5 -10.5t38.5 -2.5q35 2 48 2q20 0 73 -2q43 -2 54 0q84 6 112 41q10 12 27 70q2 18 6 51q14 55 16 256l9 801q0 4 -3.5 89t-3.5 107q-2 16 4.5 66.5t6.5 77.5q0 35 -7 59q-10 14 -26 51q-25 78 -139 91q25 -2 -129 -2h-46q-25 2 -36 0 q-18 -2 -35 -13q-29 -16 -19 -37q14 -23 62 -39q16 0 50 -10t71 -24q23 -16 20 -86l-8 -181v-258q0 -117 -2 -170l-8 -145q-4 -68 -4 -176v-397q0 -20 2 -44v-30q0 -23 -11.5 -30t-62.5 -21q-18 -2 -49 -7q-45 -16 -60 -41z" />
<glyph unicode="^" horiz-adv-x="1042" d="M31 1303q102 41 211 174q80 109 157 215q29 -106 142.5 -217t212.5 -125l2 -187q-96 20 -203 103q-119 90 -156 190q-6 2 -8 -2q-209 -274 -346 -321z" />
<glyph unicode="_" horiz-adv-x="1208" d="M0 -164h1208v-131h-1208v131z" />
<glyph unicode="`" d="M51 1157q0 -26 4 -53q33 -193 162 -215q39 -6 45 -6l21 4l-2 16q-2 6 -15 29q-10 14 -30 127q-2 18 2 33q31 92 22 135q-6 39 -40 57.5t-70 11.5q-98 -16 -99 -139z" />
<glyph unicode="a" horiz-adv-x="1550" d="M-14 180q0 29 272 361q45 49 117 133q4 6 160 178q12 12 12 37q0 88 -168 276q-12 12 -31.5 20.5t-83.5 14.5q-55 6 -82 29v22q18 12 45 15l119 6q6 0 47 2h45t43 -2h43q184 0 377 -371q37 -61 107 -186q59 -129 180 -385q106 -229 213 -260q12 -4 55 -33v-29 q-8 -6 -20 -14q-25 -2 -170 -2q-156 0 -170 2q-35 2 -90 67q-18 20 -54 70q-10 18 -22 41t-37 23q-39 0 -201 -105q-102 -68 -176 -86q-45 -12 -147 -12q-133 0 -224 26q-45 12 -102 64.5t-57 97.5zM276 272q0 -49 70 -92q61 -35 109 -35q76 0 188 41q31 10 109 54 q14 10 34 26q60 42 60 62q0 35 -139 303q-49 96 -80 100q-51 -39 -189 -201q-33 -39 -39 -51q-31 -41 -63 -82q-59 -86 -60 -125z" />
<glyph unicode="b" horiz-adv-x="1449" d="M-74 1110q0 57 189 121q160 53 213 53q59 0 59 -41v-45q-2 -39 -2 -45l-2 -92q-2 -33 18 -33q10 0 117 86q121 96 170 124t115 28q164 0 241 -201q6 -16 7 -78v-59q-18 -45 -74 -109q-20 -25 -53 -63q-18 -20 -19 -23q0 -14 25 -22q80 -25 153 -138q25 -39 29 -59 q14 -69 14 -104q0 -201 -258 -332q-166 -84 -352 -111q-92 -14 -201 -14q-106 0 -131 16q-39 25 -39 142l-4 432q0 33 -3 110.5t-3 116.5q0 10 -4 45t-4 39v-2l4 174q2 14 8 45t6 35q0 39 -36 39q-4 0 -73 -30t-75 -30q-35 0 -35 25zM387 741q0 -6 3 -39.5t3 -50.5 q10 -18 39 -18q4 0 30.5 5t37.5 5q35 2 188 47q104 31 160 103q18 24 18 77q0 27 -10 60q-45 147 -168 147q-20 0 -47 -10q-47 -18 -49 -20q-27 -8 -109 -72q-96 -74 -96 -109v-125zM391 393q0 -6 2 -61.5t2 -59.5l2 -149q0 -43 103 -43q12 0 75 10q27 2 76 6q63 10 146 49 q127 62 129 138q0 115 -73 200.5t-185 85.5q-4 0 -53.5 -7t-73.5 -9q-39 -4 -73 -13.5t-40 -11.5q-27 -12 -31 -30q-6 -35 -6 -105z" />
<glyph unicode="c" horiz-adv-x="1441" d="M14 403q0 106 41 232q98 307 379 479q238 147 504 148q190 -1 190 -132q0 -68 -49 -124t-123 -56q-39 0 -38 21q0 4 26 28q37 29 51 45q8 10 9 21q0 37 -60 61q-47 16 -90 17q-2 0 -117 -21q-279 -53 -403 -295q-14 -27 -26.5 -58.5t-26.5 -72.5q-25 -94 -25 -141 q0 -117 57 -221q68 -123 195 -180q74 -31 117 -31q4 0 33.5 -4t33.5 -4q29 0 103 12q63 12 73 16q41 18 82 37q70 31 86 31q39 0 39 -33q0 -29 -96 -78q-145 -78 -268 -96q-129 -20 -193 -20q-51 0 -141 18q-197 37 -289 158q-27 35 -50.5 113.5t-23.5 129.5z" />
<glyph unicode="d" horiz-adv-x="1646" d="M0 459q0 82 18 155q12 16 29 52q16 63 127 204q51 63 160 150q51 41 96 61q147 72 148 107q0 14 -31 45q-43 39 -49 47q-35 37 -107 111q-258 342 -258 376q0 68 146 152q129 76 174 76q6 0 22.5 -3t24.5 -3q0 -2 3 -6.5t3 -12.5q0 -12 -33 -33q-39 -23 -49 -41 q-6 -8 -6 -30q0 -53 129 -221q96 -125 149 -179q41 -37 125 -118q166 -162 330 -322q127 -131 180 -266q19 -48 19 -144q0 -203 -228 -397q-92 -78 -262 -162q-16 -4 -51 -14q-119 -59 -264 -59q-47 0 -164 18q-18 10 -62 29q-86 25 -181 113.5t-120 174.5q-18 59 -18 140z M227 575q0 -94 58.5 -195t154.5 -151q29 -14 123 -30l25.5 -8.5t25.5 -6.5q137 0 308 86q213 106 213 260q0 55 -56 148q-45 76 -92 125q-117 123 -237 223q-16 14 -60 14q-113 0 -244 -113.5t-182 -244.5q-37 -94 -37 -107z" />
<glyph unicode="e" horiz-adv-x="1415" d="M33 809q53 164 176 272q84 72 176 115q23 10 141 45q109 31 222 31q125 0 243 -35q162 -47 162 -137q0 -39 -41 -76t-74 -37q-27 0 -43 35q-18 45 -45 63q-33 23 -107.5 43.5t-127.5 20.5q-109 0 -213 -68q-117 -76 -180 -202q-33 -66 -33 -80v-8q0 -54 55 -54h219 q4 0 45 -5t47 -5h316q116 0 116 -54v-1q0 -29 -57 -68q-49 -33 -72 -41q-14 -6 -32 -6q-10 0 -59.5 28.5t-82.5 28.5l-313 -4q-4 -2 -111 -8q-80 -4 -81 -27q-4 -37 -5 -49q6 -33 15 -94q16 -139 164 -237q131 -86 254 -86q39 0 217 45q14 4 80 32q55 23 79 23q27 0 27 -29 q0 -25 -45 -63q-39 -31 -70 -45q-72 -33 -225 -86q-57 -14 -115 -15q-106 0 -190 21q-16 2 -154 67q-166 76 -250 246q-67 135 -67 294q0 95 39 210z" />
<glyph unicode="f" horiz-adv-x="1320" d="M-18 1202v19q23 14 51 15t92 7q57 6 61 6q104 0 117 -43q6 -25 8 -102q4 -10 31 -10q6 0 76 45q80 53 96 61q125 66 281 66q234 -1 338 -105q0 8 -21 -33q-71 -54 -140 -54q-9 0 -18 1q-55 33 -131 68q-61 12 -129 12h-20q-74 -4 -176 -74q-92 -61 -168 -149 q-10 -12 -13 -27q-4 -23 -4 -55q0 10 0 -25q2 -35 2 -118q0 -41 52 -41q6 0 135 7t135 7q47 0 121 -6q27 -2 26 -23q0 -14 -20.5 -25.5t-38.5 -19.5q-53 -31 -108.5 -36t-109.5 -9t-108 -6q-59 -6 -71 -27q-6 -8 -6 -39q0 -16 2 -44.5t2 -32.5v-281v-72q2 -68 2 -73l2 -392 q0 -66 -71 -152.5t-153 -127.5q-66 -33 -73 -33q-33 0 -33 27q0 20 27 49q33 37 45 63q20 45 20 107v16q-2 119 -4 113q6 66 6 92v137q2 96 2 144q0 14 -3 50l-5 60q0 4 4 11.5t4 13.5q2 55 2 348l4 575q-2 16 -8 48t-45 43q-53 10 -67 24z" />
<glyph unicode="g" horiz-adv-x="1671" d="M-27 557q0 254 215 440q174 150 457 236q229 70 410 70q109 0 200 -46q119 -59 119 -165q0 -94 -83 -157t-177 -63q-12 12 -12 31q0 10 4 35t4 39q0 33 -20 57q-66 70 -136 92q-49 16 -131 17q-213 0 -393 -109q-227 -137 -227 -372q0 -184 143 -353q154 -178 346 -178 q92 0 232.5 64.5t156.5 119.5q8 31 9 127q0 6 2 28t2 36q0 90 -70 90q-8 0 -123 -28.5t-123 -28.5q-63 0 -63 39q0 25 32.5 58.5t61.5 39.5q96 18 266 43q148 22 170 22h2q127 0 127 -72v-7l8 -562q2 -8 2 -16q0 -50 -65 -78q-53 -22 -121 -22h-6q-102 0 -102 75q0 10 2 30 t2 28q0 41 -41 41l-78 -45q-92 -51 -178 -84q-127 -45 -244 -45q-246 0 -413 162.5t-167 410.5z" />
<glyph unicode="h" horiz-adv-x="1894" d="M-100 1542q0 37 135 100q82 37 246 117q84 43 104 43q55 0 55 -46v-7l-6 -780q4 -4 10 -41q2 -23 25 -23q12 0 125 88q137 106 252 164q176 88 342 88q219 0 323 -196q78 -146 78 -347q0 -113 -18 -184q-8 -25 -78 -203q-25 -33 -70 -102q-102 -172 -270 -311 q-69 -58 -115 -58h-4q-8 6 -8 19q0 33 70 114q237 280 237 572q0 147 -57 307q-84 227 -242 227q-129 0 -346 -151q-225 -158 -248 -283q0 -211 4 -215v-12q0 -26 -4 -98q-4 -104 -4 -103q0 -72 13 -106q10 -12 28 -43q2 -6 2 -27q-25 -20 -155 -74q-123 -49 -138 -49 q-25 0 -47 16.5t-22 43.5l12 518q0 172 6 254l-2 733l-4 49q-4 29 -25 31q-4 0 -59 -28t-90 -28q-55 0 -55 31z" />
<glyph unicode="i" horiz-adv-x="923" d="M66 1268q236 20 276 20q35 0 80 -16q55 -18 55 -47v-381q0 2 0 -64q-2 -66 -2 -94q0 -12 -2 -38l-2 -25v-312q0 -2 7 -24.5t7 -26.5v-84q0 -20 11 -59q14 -47 30 -49q33 -2 97 -9q10 -2 10 -16q0 -33 -62 -41q-45 -6 -135 -12q-6 0 -63.5 -6.5t-61.5 -6.5q-68 0 -78 35 q-14 49 -14 70v256q0 4 3 32.5t3 30.5v82q0 -2 -2 37q-2 37 0 55q0 27 4 77t4 53v102l5 151q-6 47 -7 103q0 111 -47 129q-20 6 -119 18q-73 8 -73 26q0 28 76 34z" />
<glyph unicode="j" horiz-adv-x="851" d="M10 1245q2 0 88 21q20 4 58 10q18 2 61 5t47 3q-6 0 53 -6q29 0 78 -16q23 -14 27 -56.5t4 -130.5q0 -51 6 -119l6 -667q0 -4 -2 -72q-2 -74 -4 -92v-12q0 -56 -16 -158q-8 -12 -22.5 -42t-51.5 -74t-73 -61.5t-113 -53.5q-86 -41 -107 -41q-33 0 -33 18q0 25 33 55 q14 6 39 25q84 84 103.5 123t19.5 110l-8 150v213q0 4 -2 72v71l-8 121q0 4 -2.5 72.5t-2.5 72.5v172q0 -10 0 39q-2 39 -2 117q0 37 -6 49q-12 27 -57 27q-6 0 -31.5 -2t-30.5 -2q-69 0 -69 30q0 21 18 29z" />
<glyph unicode="k" horiz-adv-x="1681" d="M-35 1466v19q39 16 88 16q47 0 97 -10q41 0 81 -2q63 -2 86 -25q45 -41 54 -131q0 -72 2 -143v-115l-2 -81v1v-131q0 -39 4 -119q-2 -27 -2 -55q4 -37 22 -45h4q18 0 86 25q119 41 275 196q33 33 108 144q92 129 93 168q0 6 -13.5 27.5t-13.5 27.5t3 10t3 6q41 16 84 17 q53 0 131 -15q88 -16 105 -37q4 -37 -76 -143q-25 -35 -94 -96q-57 -51 -115 -103q-49 -33 -96 -65q-84 -59 -84 -76q0 -18 94 -117q125 -125 158 -165q45 -45 122 -127q57 -66 185 -197q39 -37 116 -109q15 -14 15 -24q0 -45 -154 -45q-106 0 -153 33q-74 53 -185 170 q-143 164 -405 462q-4 6 -27 6q-18 0 -94 -28q-86 -35 -86 -62v-182q0 -113 -2 -129q-6 -94 -41 -160q-14 -25 -74 -45q-43 -12 -84 -24q-88 -29 -143 -29q-37 0 -37 29q0 2 78 90q37 43 37 147v1096q0 113 -138 135q-4 2 -12 10z" />
<glyph unicode="l" horiz-adv-x="1513" d="M0 1569v30h479q72 0 84 -94l12 -1331q0 -14 17.5 -32.5t62.5 -22.5q31 0 62 -2q147 -16 305 -17q100 0 166 9q29 2 100 20q63 16 72 16q12 0 41 -14v-22q0 -41 -172 -82q-137 -33 -178 -33h-701q-51 0 -74 67q-14 43 -14 89v647q0 8 4 30.5t6 28.5q0 12 -2 37t-2 29v182 v-4q1 0 4 143q1 72 1 124t-1 85q-2 39 -43 61q-29 16 -112 21q-76 4 -117 35z" />
<glyph unicode="m" horiz-adv-x="2856" d="M-43 141q10 12 35 13l4 -2h6q14 0 43 2h41q25 0 37 24q68 123 213 410q324 661 467 661q41 0 108.5 -33.5t67.5 -64.5q0 -12 -44 -85t-44 -85q0 -39 221 -264q182 -186 238 -234q29 12 55 68q16 41 35 82q86 193 172 387q139 299 194 299q33 0 115 -66.5t82 -105.5 q0 -12 -45 -78q-59 -88 -72 -108l774 -934v-31q-43 -18 -98 -19q-145 0 -256 56q0 4 4 43q4 31 0 47q-18 68 -43 115q-53 84 -151 239q-25 39 -140 176q-133 160 -159 160q-45 0 -191 -371q-66 -166 -188 -401q-14 -29 -68 -29q-43 0 -96 36t-53 75q0 10 30.5 62.5 t30.5 66.5q0 61 -229 311q-221 242 -246 242q-33 0 -96 -123q-33 -68 -64 -133q-72 -137 -141 -275q-92 -172 -187 -268q-20 -20 -96 -20q-45 0 -69 14q-35 27 -70 53q-45 35 -127 88z" />
<glyph unicode="n" horiz-adv-x="1976" d="M-37 1180v30q205 70 260 70q57 0 90 -41q88 -123 297 -408q100 -131 369 -309q260 -172 350 -178h4q47 0 47 90q0 240 -63 740q-4 23 -60 98q28 22 78 22h4q74 0 142 -20q61 -18 69 -37q88 -213 103 -621v-56q0 -121 6 -322q6 -102 32.5 -146.5t26.5 -50.5q0 -23 -45 -37 q-35 -10 -65 -10h-88q-37 0 -76 16q-47 23 -53 62v10q0 38 -13 98q-14 27 -78 47q-51 14 -102 29q-72 27 -207 84q-145 70 -213 104q-137 72 -229 129q-53 49 -131 103h-2q-33 0 -33 -51v-451q0 -180 -287 -180q-49 0 -65 29v276l41 592q0 14 2 46t2 50q0 162 -113 193z" />
<glyph unicode="o" horiz-adv-x="1710" d="M-23 614q0 106 36 223t93 193q113 152 300 217q61 23 172 43q123 23 198 23q279 0 473.5 -208t194.5 -476q0 -170 -51 -252q-240 -403 -727 -404q-467 0 -627 387q-18 37 -45 111q-16 72 -17 143zM223 698q0 -63 17 -120q8 -16 18 -43q47 -203 205 -336 q147 -125 309 -125q229 0 367 239q35 59 41 101q2 14 2 106q0 98 -2 107q-55 197 -117 305q-94 166 -254 239q-78 37 -147 37q-129 0 -236 -78q-123 -90 -168 -251q-10 -20 -22 -54q0 -27 -5 -73q-8 -68 -8 -54z" />
<glyph unicode="p" horiz-adv-x="1959" d="M-72 1133q0 31 47 43q29 4 60 10q55 14 162 41q59 16 118 35q79 22 139 22h5q96 0 96 -102q0 -12 -2 -39t-2 -39q0 -68 53 -68q14 0 98 54q43 29 86 55q59 33 121 63q84 45 135 56q111 26 222 26h8q84 0 144.5 -20.5t176.5 -163.5q35 -41 70 -156q31 -104 31 -151v4 q-3 0 -15 -84q-37 -240 -329 -467q-279 -215 -498 -215q-45 0 -102 26q-70 31 -70 74t66 80q53 33 75 33q8 0 76 -24.5t76 -24.5q23 0 73 22.5t76 46.5q133 115 216 269.5t83 277.5q0 90 -51 168q-59 88 -159.5 116.5t-118.5 28.5q-96 0 -311.5 -126.5t-227.5 -190.5 q-6 -43 -6 -115q0 -8 6 -72.5t6 -70.5v-506v-24q2 -16 2 -25v-444q0 -92 -133 -168q-109 -61 -172 -62q-57 0 -57 33q0 8 20 31q31 33 37 41q12 18 12 51q1 234 1 425q0 669 -11 818q-4 47 -4 166l-2 160q0 27 -61 45l-140 -25q-125 20 -125 62z" />
<glyph unicode="q" horiz-adv-x="1691" d="M-31 737q0 4 1 4q2 0 16 -84q37 -238 319 -456q268 -205 488 -205q45 0 102 27q68 31 68 73q0 43 -64 80q-53 33 -78 33q-6 0 -74.5 -24.5t-76.5 -24.5q-23 0 -72 22.5t-76 46.5q-133 113 -209 260q-71 139 -71 264q0 93 53 171q57 88 157.5 116.5t118.5 28.5 q100 0 294 -96t204 -160q8 -43 8 -115v-91v-91l-8 -475q0 -6 -2 -24.5t-2 -26.5v-445q0 -90 152 -161q121 -57 190 -58q57 0 57 33q0 8 -20 31q-29 33 -35 41q-16 18 -33 53l-12 1241q1 8 1 19q0 27 -4 69l-5 59l-8 154q-2 25 -20.5 112t-27.5 93q-72 41 -188 49h-10 q-29 0 -62 -9q-39 -11 -49 -26q2 -14 26.5 -48t35 -62.5t10.5 -51.5q0 -47 -38 -47h-3q-27 0 -135 49q-63 31 -125 64q-88 43 -139 53q-117 27 -230 27q-86 0 -145.5 -20.5t-175.5 -164.5q-35 -41 -70 -155q-33 -105 -33 -152z" />
<glyph unicode="r" horiz-adv-x="1482" d="M-51 1243q16 41 119 41q4 0 50 -5t51 -5t16.5 -4t17.5 -4q57 0 71 -15q23 -33 48 -65l4 -31v-27q0 -2 11 -76q8 -54 8 -83q0 -11 -1 -19q25 -27 31 -26q-4 0 82 92q98 104 205 168q154 90 311 90q106 0 170 -92q55 -78 55 -176q0 -113 -106 -232q-68 -76 -197 -170 q-106 -78 -107 -88q0 -27 173 -184q158 -143 239 -205q14 -10 70 -12q49 0 78 -27q-12 -20 -128 -59t-165 -39q-82 0 -314 217q-221 207 -221 242q0 23 125 106q170 117 232 168q123 109 124 192v6q0 65 -43 130q-49 77 -122 77h-5q-145 -4 -321 -178q-170 -166 -170 -272 v-428q0 -4 4 -21.5t4 -23.5v-156q0 -65 -186 -65h-6q-106 0 -133 24q0 10 18 39t20 35q14 59 21 127q6 90 8 100l4 817q-6 61 -61 80q-74 25 -84 37z" />
<glyph unicode="s" horiz-adv-x="1318" d="M-23 150q0 16 52.5 95t76.5 79q14 0 41 -23q33 -31 58 -43q174 -90 311 -96q10 0 36 -4t30 -4q84 0 169 39.5t138 105.5q20 27 20 82q0 100 -104 156q-74 41 -205 59q-74 8 -147 18q-84 12 -244 39q-72 12 -129 49q-78 51 -78 123q0 47 70 162q160 168 323 236 q139 57 322 57q248 0 315 -127q18 -35 19 -47q0 -39 -52 -119q-59 -92 -112 -92q-8 0 -19.5 10t-11.5 17q0 10 23.5 38.5t25.5 63.5q0 98 -207 109q-25 2 -90 7t-71 5q-72 0 -166 -33q-63 -20 -135 -90q-18 -18 -38 -60t-20 -67q0 -98 209 -98h158q25 0 108 -9 q57 -4 115 -10q72 -8 111 -22q274 -103 274 -244q0 -74 -168 -240q-51 -51 -164.5 -132t-171.5 -109q-25 -14 -74 -33q-106 -20 -217 -21q-23 0 -110 23q-6 0 -84 35q-186 84 -187 115z" />
<glyph unicode="t" horiz-adv-x="1546" d="M-6 1098q0 20 59 53q43 25 70 35q121 43 190.5 52t206.5 26l676 -4q86 10 121 10q51 0 51 -31q0 -20 -32.5 -45t-55.5 -29q-90 -16 -211 -20q-10 -2 -46 -5t-42 -3h-139h1q0 -2 -79 -21q-12 -2 -25.5 -15.5t-13.5 -96.5v-764q0 -16 33 -29q20 -6 40.5 -13.5t20.5 -25.5 q0 -14 -55 -59q-139 -113 -232 -113q-37 0 -40 25q-23 152 -27 243q-6 119 -6 209v461q0 -4 10 51q3 18 3 34q0 21 -5 38q-10 41 -55 51q-12 2 -74 2q-78 0 -246 -24q-4 0 -22.5 -6.5t-34.5 -6.5q-41 0 -41 21z" />
<glyph unicode="u" horiz-adv-x="1771" d="M-18 586q0 113 51 223q41 86 145 233q2 8 12 31q2 8 3 14q0 18 -33 18q-17 0 -43 -5q-16 -2 -19 14l6 19q20 18 82 41q76 29 220 61q123 27 141 27q53 0 53 -29q0 -23 -27 -39q-160 -86 -211 -256q-65 -208 -65 -323q0 -230 117 -363q127 -143 360 -143q104 0 227 24 q174 33 185 90q3 15 3 44q0 14 -1 32q-4 70 -4 57q0 6 -8.5 142.5t-8.5 142.5l-4 139q0 4 -6 58q-4 70 -8 139q-10 90 -31 137q-12 25 -57 25q-6 0 -30.5 -5.5t-31.5 -5.5q-51 0 -51 29q0 10 13.5 25.5t25.5 19.5q61 16 178 37q100 18 117 18q84 0 96 -104q41 -346 62 -629 q10 -92 28 -305q4 -33 21 -90q14 -29 55 -35q31 -4 60 -8v-18q-18 -20 -39 -27q-240 -76 -275 -76q-78 0 -94 115q-2 8 -14 6q-25 -4 -31 -4t-51 -16q-51 -20 -74 -25q-236 -55 -342 -55q-6 0 -25.5 -3t-27.5 -3q-168 0 -316 69q-156 74 -233 205q-100 168 -100 332z" />
<glyph unicode="v" horiz-adv-x="1701" d="M-18 1145q0 33 122 84q111 45 140 45q61 0 131 -117q78 -131 133 -256q29 -68 86 -223q33 -90 96 -258q77 -196 113 -196q3 0 6 1q25 12 45 35q45 55 82 117q25 47 51 92q12 18 94 190q33 78 97 238q45 104 45 150q0 51 -53.5 60t-53.5 38q0 35 133 86q119 43 148 43 q53 0 53 -84q0 -209 -102 -461q-70 -166 -166 -313q-57 -88 -189 -234q-186 -207 -266 -207q-41 0 -122 107.5t-140 234.5q-23 47 -111 261q-6 14 -24 67l-23 64q-29 82 -96 243q-47 92 -61 111q-39 53 -103 53q-6 0 -10 -3t-10 -3q-45 0 -45 35z" />
<glyph unicode="w" horiz-adv-x="2813" d="M121 1217q152 43 184 43q113 0 295 -392q43 -100 127 -274q66 -131 104 -131q23 0 130 127q225 260 296 405q8 16 9 62q2 33 22 53q33 37 64 72q45 43 80 43q49 0 77 -37l43 -78q51 -96 127 -270q86 -199 129 -283q12 -25 50 -25q61 0 258 240q180 221 225 320 q4 45 31 120q10 14 88 29q100 18 108 19q25 0 55.5 -14.5t30.5 -39.5q0 -24 -166 -196q-25 -31 -73 -90q-174 -174 -492 -494q-25 -25 -25 -59q0 -12 11 -41q8 -20 24 -58q55 -150 56 -176v-33q-6 -16 -35 -33.5t-92 -31.5q-51 -10 -70 -10q-55 0 -125 159q-41 88 -127 285 q-45 109 -90 229q-62 170 -89 170h-1q-23 0 -62 -36q-12 -12 -61 -68q-111 -117 -334 -371q-10 -12 -10 -45q0 -37 33 -88q27 -39 55.5 -102.5t28.5 -75.5q0 -47 -95 -72q-53 -14 -94 -14q-61 0 -55 0q-33 4 -57 35q-51 61 -131 223q-51 92 -142.5 277.5t-273.5 560.5 q-18 35 -56 49q-39 0 -94 4q-65 4 -65 28q0 36 174 85z" />
<glyph unicode="x" horiz-adv-x="1501" d="M-43 1124q0 33 166 82q145 43 174 43q82 0 195 -153q76 -104 200 -330q172 211 211 299q4 43 31 117q10 14 88 28q98 18 106 19q82 0 82 -43q0 -27 -166 -195q-23 -31 -71 -88q-70 -74 -230 -231l13 -21q41 -76 65 -114q39 -59 49 -82q16 -33 45 -74q8 -8 29 -51 q12 -29 19 -39q41 -61 77 -103q23 -27 33 -41q36 -53 94 -53h4q35 2 41 0q18 -2 31 -16q21 -22 -10 -45q-16 -8 -47 -25q-45 -24 -150 -24h-8q-16 -1 -32 -1q-34 0 -72 3q-70 0 -115 53q-57 66 -72 86q-39 51 -61 94q-45 72 -141 227q-166 -209 -205 -292q-4 -45 -31 -119 q-10 -14 -88 -29q-98 -18 -107 -18q-81 0 -81 44q0 26 165 195q23 29 72 88q70 72 223 224q-111 199 -147 258q-86 145 -164 247q-27 37 -55 48q-37 2 -94 4q-66 4 -66 28z" />
<glyph unicode="y" horiz-adv-x="1861" d="M-59 1114q0 47 100 92q51 23 117 39q43 16 125 43q10 2 28 2q-4 0 29 0q18 0 49 -26q49 -45 143 -226q86 -168 265 -506q25 -47 53 -47q23 0 77 72t122 209q82 168 112 217q190 313 391 313q95 0 95 -43q0 -28 -52 -57q-36 -20 -73 -43q-61 -43 -160 -221 q-184 -334 -352 -662q-12 -43 -49 -129q-49 -92 -193 -295q-49 -66 -141 -190q-35 -39 -102.5 -119t-67.5 -130q0 -43 33 -61q36 -18 73 -34q14 -8 15 -21q0 -55 -146 -71q-47 -6 -162 -6h-192q-18 0 -42 17t-24 34q0 27 21 49q139 150 280 301q166 178 267 313 q70 94 71 144q0 49 -82 198q-45 74 -98 172q-88 193 -256 525q-18 39 -63 98q-28 22 -67 22q-20 0 -42 -6q-16 -4 -45 -10q-20 -4 -35 4q-23 12 -22 39z" />
<glyph unicode="z" horiz-adv-x="1601" d="M4 0v20q0 8 35 48q51 59 63 73q260 336 584 678q43 45 125 131q29 29 57 58q39 41 39 63q0 54 -120 54q-27 0 -60 -3q-168 0 -451 -35q-23 -2 -77 -15t-62 -13q-27 0 -26 31q0 45 98 92q63 29 121 43q16 4 121 20l806 21q41 0 68 -27q0 -27 -14 -41q-176 -174 -559 -571 q-4 -4 -324 -389q-31 -39 -31 -56q0 -33 48 -33q7 0 14 1q8 0 65.5 3t65.5 3l436 -27q84 0 162 32t86 32q10 0 24.5 -11.5t14.5 -19.5q0 -23 -49.5 -57.5t-152.5 -73.5t-175 -47q-84 -10 -145 -11q-8 0 -87 6.5t-88 6.5h-591z" />
<glyph unicode="{" horiz-adv-x="720" d="M37 563q115 45 129 113q0 2 10 160q8 139 17 276q10 164 32 274q29 137 164 224q14 12 31.5 24.5t34.5 10.5l6 -11l-2 -16q-6 -14 -25 -37q-31 -53 -37 -84q-2 -51 -10 -154q-10 -143 -18 -286q-14 -170 -39 -287q-27 -129 -140 -199l-20 -10q12 -4 20 -10 q111 -68 140 -197q25 -117 37 -286q10 -143 20 -289q0 -49 10 -152q6 -31 37 -84q10 -8 25 -39l2 -14l-6 -10q-16 -2 -34 10t-32 23q-135 88 -164 225q-25 109 -35 274q-6 137 -14 277q0 53 -10 157q-18 84 -129 117z" />
<glyph unicode="|" horiz-adv-x="421" d="M0 -410v2048h131v-2048h-131z" />
<glyph unicode="}" horiz-adv-x="751" d="M37 -510l6 -10q16 -2 33.5 10t32.5 23q135 88 163 225q25 109 35 274q6 137 15 277q0 53 10 157q18 84 129 117q-115 45 -129 113q0 2 -13 160q-6 139 -14 276q-10 164 -33 274q-29 137 -163 224q-14 12 -32 24.5t-34 10.5l-6 -11l2 -16q6 -14 24 -37q31 -53 37 -84 q2 -51 11 -154q10 -143 18 -286q14 -170 39 -287q27 -129 139 -199q8 -4 21 -10q-12 -4 -21 -10q-113 -68 -139 -197q-25 -117 -37 -286q-10 -143 -20 -289q0 -49 -11 -152q-6 -31 -37 -84q-10 -8 -24 -39z" />
<glyph unicode="~" horiz-adv-x="661" d="M2 1108l4 -6l4 -2q6 2 17 12q4 2 15 17.5t16 15.5t38 4q27 4 37 2q53 -16 105 -31q61 -16 104 -16q57 0 100 90q12 27 15 76l-4 12q-8 -2 -22.5 -28.5t-21 -26.5t-40.5 -4q-29 -4 -39 0q-49 16 -99 30q-59 18 -100 19q-25 0 -59.5 -33t-52 -67.5t-17.5 -63.5z" />
<glyph unicode="&#xa1;" d="M109 1217q0 -109 165 -109q177 0 177 135q0 47 -60 86q-49 31 -90 31q-27 0 -106 -53q-86 -57 -86 -90zM127 14q2 -16 68 -28q49 -10 69 -11q31 0 80 13q61 16 62 35l-31 348l-3 45t-3 65q0 8 -2 25.5t-2 19.5v217q0 2 5 18.5t5 18.5v60q0 14 8 41q12 35 25 37q4 0 32 4 q9 2 9 12q0 25 -24 28t-87 9q-121 8 -98 8q-51 0 -60 -25q-12 -35 -12 -47v-180q0 -4 3 -23.5t3 -23.5l-6 -53q0 4 -2 -25v-39v-53q-2 -37 -2 -33l-2 -76l-10 -110q-33 -231 -25 -277z" />
<glyph unicode="&#xa2;" horiz-adv-x="1441" d="M125 449q0 84 33 184q98 303 401 434v111q0 16 6 61q4 31 33 31q-14 0 51 -10q12 -2 43 -13q14 -4 15 -37q0 -12 -3.5 -14t-16.5 -5t-17 -85q98 27 194 27q154 -1 154 -105q0 -53 -40 -98t-99 -45q-31 0 -31 16q0 4 25.5 24.5t37.5 35.5q6 6 7 16q0 29 -48 47 q-39 14 -73 14q-2 0 -92 -16q-18 -4 -37 -8q-4 -59 -4 -43v-277v-24.5v-32.5q0 -47 4 -139l10 -281q86 6 131 23q33 14 65 28q55 25 68 25q33 0 33 -25q0 -23 -76 -63q-119 -61 -217 -78l2 -72q2 -25 -27.5 -42t-46.5 -17q-12 0 -37 10q-35 16 -36 39q0 14 2 68l-11 -2 q-33 0 -112 14q-158 31 -232 127q-23 29 -41 92.5t-18 104.5zM319 567q0 -236 224 -329l12 299l2 94q0 -4 1 41t-1 69q0 43 2 82l2 68v29q-2 27 -2 28v21q-117 -66 -178 -183q-12 -23 -21.5 -47t-21.5 -59q-18 -74 -19 -113z" />
<glyph unicode="&#xa3;" horiz-adv-x="1765" d="M98 -33q0 6 25 35q88 109 129 213q25 66 24 246v59h-151v60q27 -2 57 -5h94q-2 20 -2 58q0 190 91 330q106 164 284 163q63 0 131 -30l72 -31q4 0 14.5 8t12.5 8q16 0 16 -16q0 -29 -37 -61q-53 -50 -57 -56q-156 119 -213 119q-158 0 -158 -408v-43q2 -29 2 -43h51 q174 0 361 19l-33 -62q-78 -10 -287 -10h-94v-35q0 -160 -166 -352q-6 -8 -22 -27q63 16 155 17q63 0 189.5 -10.5t189.5 -10.5q61 0 103 64l41 65q18 0 18 -10q-2 -8 -10 -22q-43 -88 -76 -179q-16 -43 -72 -43q-66 0 -198.5 11.5t-198.5 11.5q-180 0 -254 -43 q-10 -6 -12 -6q-18 0 -19 16z" />
<glyph unicode="&#xa4;" horiz-adv-x="1241" d="M86 424l207 205q-88 117 -88 256t88 256l-207 205l72 73l207 -207q119 90 256 91q141 0 260 -91l204 207l72 -73l-205 -205q86 -115 86 -256q0 -143 -86 -256l205 -205l-72 -74l-204 207q-113 -88 -260 -88q-145 0 -256 88l-207 -207zM309 887q0 -133 90 -224.5 t224 -91.5q131 0 222 92.5t91 223.5t-91 222t-222 91t-222.5 -91t-91.5 -222z" />
<glyph unicode="&#xa5;" horiz-adv-x="1466" d="M31 1012q0 25 28 24q37 0 109 -8t108 -8q33 0 98.5 8t98.5 8q8 0 8 -22q0 -6 -55 -23.5t-55 -46.5q0 -45 237 -362q10 -12 33 -45l4 6q217 346 217 387t-69.5 62.5t-69.5 27.5q0 16 18 16q6 0 25 -4q78 -12 154 -12q29 0 89 8t91 8q16 0 16 -20q0 -8 -47 -21 q-55 -14 -61 -18q-54 -39 -177 -234h224v-53h-256q-49 -72 -105 -162h361v-53h-379v-47q0 -131 6 -266l2 -35q4 -70 100 -82q4 0 15 -2q4 -2 16 -4q29 -8 29 -27q0 -20 -19 -20q-4 0 -20 2q-96 12 -203 12q-37 0 -110.5 -7t-110.5 -7q-14 0 -14 16q0 12 45 23l61 12 q41 16 51 72q4 20 4 92v119q0 68 -4 149h-381v53h349q-49 70 -119 162h-230v53h191q-53 68 -107 136q-76 88 -116 98q-29 10 -60 18q-20 6 -20 17z" />
<glyph unicode="&#xa6;" horiz-adv-x="421" d="M0 -410v867h129v-867h-129zM0 772v866h129v-866h-129z" />
<glyph unicode="&#xa7;" horiz-adv-x="1011" d="M98 510q0 150 148 274q-63 111 -64 187q0 123 103 213q96 90 221 90q27 0 94 -31q56 -24 113 -51l-45 -180q-6 2 -19 6q-125 104 -219 108q-137 4 -137 -104q0 -111 180 -307l59 -64q221 -240 222 -422q0 -141 -154 -249q78 -121 78 -226q0 -133 -103.5 -236.5 t-236.5 -103.5q-121 0 -225 80l55 178q184 -113 231 -112q86 0 119 20q45 29 45 113q0 145 -201 366q-10 12 -16 17q-248 268 -248 434zM180 578q0 -137 297 -457q41 -43 101 -109q74 53 73 150q0 143 -297 493l-82 95q-92 -74 -92 -172z" />
<glyph unicode="&#xa8;" horiz-adv-x="1947" d="M-10 907q0 84 6 117q8 63 51 190q80 244 266 408q123 109 265 172q33 16 210 68q164 47 332 47q156 0 330 -43q281 -70 281 -217q0 -57 -62.5 -112.5t-114.5 -55.5q-39 0 -61 51q-29 70 -68 96q-49 35 -160.5 65.5t-193.5 30.5q-162 0 -321 -102q-172 -113 -269 -305 q-49 -96 -49 -119q-4 -68 29 -86q12 -6 53 -6h328q8 0 70.5 -7t70.5 -7h473q55 0 105 -17q70 -25 69 -69q0 -43 -86 -101q-74 -49 -106 -61q-20 -8 -52 -8q-14 0 -87.5 42t-122.5 42l-471 -7q-4 0 -166 -10q-119 -6 -121 -39q-6 -55 -6 -76q8 -49 20 -139q25 -209 248 -356 q193 -131 377 -131q66 0 166 24q80 23 159 43q25 6 123 50q82 35 119 34q39 0 39 -43q0 -37 -68 -94q-55 -47 -104 -67q-137 -61 -170 -74q-86 -35 -170 -55.5t-170 -20.5q-160 0 -283 27q-27 6 -231 102q-250 117 -375 369q-102 207 -102 450zM573 2226q0 55 48.5 94 t115.5 39q68 0 116 -39t48 -94t-48 -94t-116 -39t-116 39t-48 94zM1151 2226q0 55 48 94t116 39t116 -39t48 -94t-48.5 -94t-115.5 -39q-68 0 -116 39t-48 94z" />
<glyph unicode="&#xa9;" horiz-adv-x="1710" d="M-23 612q0 106 36 224t91 194q113 150 299 217q61 20 175 43q125 23 200 23q276 0 471 -209t195 -477q0 -57 -15.5 -137t-33.5 -111q-242 -406 -731 -406q-467 0 -625 385q-16 37 -45 113q-16 72 -17 141zM111 702q0 -72 18 -137q4 -14 16 -41v-2q51 -217 254 -368 q186 -137 375 -138q125 0 250 74q137 84 221 232q41 70 47 118q2 16 2 115v22.5v32.5q0 50 -4 64q-109 408 -424 551q-86 41 -207 41q-197 0 -325 -109q-102 -86 -199 -283q-12 -25 -12 -36q-2 -29 -4 -76q-8 -74 -8 -60zM319 506q0 76 25 166q59 221 227 346 q141 104 301 104q115 0 115 -94q0 -49 -29.5 -89t-72.5 -40q-25 0 -25 16q0 2 19.5 20.5t26.5 29t7 18.5q0 25 -31.5 40t-58.5 15q-2 0 -71 -16q-166 -37 -242 -211q-8 -20 -15.5 -41.5t-15.5 -52.5q-16 -68 -16 -103q0 -84 35 -157q41 -90 116 -131q45 -23 72 -23 q2 0 19.5 -3t21.5 -3q57 0 104 22q25 12 50 25q41 23 51 23q25 0 24 -23q0 -20 -57 -57q-88 -55 -164 -69.5t-112 -14.5q-33 0 -86 14q-117 27 -175 113q-43 70 -43 176z" />
<glyph unicode="&#xaa;" horiz-adv-x="1052" d="M6 911q0 14 135 183q23 25 60 65q2 4 80 90q6 6 6 17q0 45 -86 139q-4 6 -15 10q-29 0 -82 23v10q8 6 23 6l59 4h23q20 2 22 2q4 0 23 -2h20q92 0 189 -184q18 -31 51 -94.5t92 -192.5q53 -115 107 -131q6 0 28 -16v-13q-4 -4 -10 -8h-88h-84q-16 2 -43 35 q-10 10 -28.5 38t-28.5 28q-18 0 -101 -54q-74 -47 -161 -47q-66 0 -111 12q-23 6 -51.5 33t-28.5 47zM152 958q0 -25 32.5 -44t55.5 -19q39 0 94 20q27 8 72 41q30 21 30 29q0 18 -69 154q-25 47 -41 49q-25 -18 -95 -101q-16 -18 -18 -24q-16 -23 -33 -43q-29 -43 -28 -62 z" />
<glyph unicode="&#xab;" horiz-adv-x="1011" d="M6 543q104 -27 215 -140.5t125 -214.5l148 -20q-23 94 -103 201q-92 119 -192 157q0 4 4 6q272 210 321 347l-131 32q-39 -102 -174 -211q-106 -78 -213 -157zM350 543q104 -27 215 -140.5t125 -214.5l148 -20q-23 94 -103 201q-92 119 -192 157q0 4 2 6q274 210 323 347 l-131 32q-39 -102 -174 -211q-106 -78 -213 -157z" />
<glyph unicode="&#xac;" horiz-adv-x="1466" d="M0 741v117h1198v-502h-115v385h-1083z" />
<glyph unicode="&#xad;" horiz-adv-x="1134" d="M47 698l8 11q14 0 44 -16.5t48 -16.5l115 16q98 14 197 31q119 16 198 16q102 0 185 -82q16 -10 32 -41l-6 -6h-10q-12 2 -31 11q-43 14 -65 14q18 0 -109 -17q-104 -14 -207 -28q-123 -16 -208 -17q-96 0 -162 68q-27 31 -29 57z" />
<glyph unicode="&#xae;" horiz-adv-x="1710" d="M-23 612q0 106 36 224t91 194q113 150 299 217q61 20 175 43q125 23 200 23q276 0 471 -209t195 -477q0 -57 -15.5 -137t-33.5 -111q-242 -406 -731 -406q-467 0 -625 385q-16 37 -45 113q-16 72 -17 141zM111 702q0 -72 18 -137q4 -14 16 -41v-2q51 -217 254 -368 q186 -137 375 -138q125 0 250 74q137 84 221 232q41 70 47 118q2 16 2 115v22.5v32.5q0 50 -4 64q-109 408 -424 551q-86 41 -207 41q-197 0 -325 -109q-102 -86 -199 -283q-12 -25 -12 -36q-2 -29 -4 -76q-8 -74 -8 -60zM340 1092q8 29 70 28q4 0 30.5 -3t29.5 -3t10 -4 t12 -4q35 0 43 -8q14 -25 28 -47l2 -23v-20l7 -54q6 -53 6 -73q14 -18 18 -19q-4 0 47 66q59 76 125 121q90 66 186 65q63 0 101 -67q33 -55 32 -125q0 -82 -63 -168q-39 -55 -117 -123q-63 -55 -63 -64q0 -18 102 -133q94 -102 144 -147q8 -6 40 -7.5t48 -21.5 q-6 -12 -76 -41t-101 -29q-47 0 -186 156q-133 150 -133 174q0 18 76 78q102 84 137 121q76 78 76 139q2 47 -25 96q-33 59 -78 58q-86 -4 -190.5 -126t-104.5 -200v-307q0 -4 3.5 -16.5t3.5 -16.5v-113q0 -47 -117 -47q-63 0 -80 19q0 6 11.5 26.5t11.5 26.5q6 59 18 164 l2 588q-4 43 -37 57q-43 16 -49 27z" />
<glyph unicode="&#xaf;" horiz-adv-x="1161" d="M-47 1851q0 20 53 37q37 12 60 15q354 29 415 28q53 0 121 -22q84 -31 84 -72v-571q0 4 -2 -95.5t-2 -142.5q0 -16 -3 -54t-3 -42v-465q0 -4 10 -37t10 -39v-125q0 -33 17 -90q20 -74 47 -76q47 0 141 -10q17 -4 17 -27t-41 -43q-31 -14 -52 -16q-70 -10 -202 -20 q-8 0 -99 -9q-82 -8 -90 -8q-31 0 -67 15q-43 14 -50 36q-20 76 -20 103v385q0 6 5 49t5 49v123q0 -6 -4 55q-2 53 0 82q0 37 8 117q6 74 6 78v149l5 230q-8 72 -9 151q0 168 -71 195q-31 10 -179 26q-111 12 -110 41zM20 2226q0 55 48.5 94t115.5 39q68 0 116 -39t48 -94 t-48 -94t-116 -39t-116 39t-48 94zM598 2226q0 55 48 94t116 39t116 -39t48 -94t-48.5 -94t-115.5 -39q-68 0 -116 39t-48 94z" />
<glyph unicode="&#xb0;" horiz-adv-x="1052" d="M-6 1130q0 109 47 185q43 66 111.5 95.5t138.5 29.5q104 0 177 -92.5t73 -210.5q-1 -76 -19 -113q-90 -176 -272 -176q-170 0 -242 192q-6 16 -8 27q-6 33 -6 63zM94 1167q0 -39 10 -61v-4q37 -94 62 -129q51 -72 125 -72q80 0 129 100q14 31 14 89v9v13v23 q-43 184 -133 233q-29 16 -51 16q-111 0 -144 -139q-4 -10 -8 -22v-33q-4 -29 -4 -23z" />
<glyph unicode="&#xb1;" horiz-adv-x="1280" d="M90 829l6 11q14 -2 41 -18.5t47 -16.5q16 0 213 26q-6 55 -6 99q0 113 80 192q10 15 39 29l6 -6v-10q0 -14 -12 -27q-14 -41 -15 -66l23 -198q55 6 100 6q113 0 191 -82q14 -10 28 -37l-6 -6h-10q-14 -2 -27 12q-39 12 -63 13l-201 -21q6 -66 6 -119q0 -119 -67 -176 q-29 -25 -53 -24l-9 6q2 14 17.5 40.5t15.5 47.5q0 14 -24 213q-66 -6 -119 -6q-117 0 -176 67q-23 27 -25 51zM125 281l6 8q12 0 37 -13.5t39 -13.5l92 12q276 41 322 41q82 0 147 -67q15 -8 29 -33l-6 -6h-9q-10 2 -24 10q-35 10 -53 10q16 0 -89 -12q-297 -37 -335 -37 q-78 0 -131 56q-23 23 -25 45z" />
<glyph unicode="&#xb2;" horiz-adv-x="1052" d="M18 854v10q0 -2 50 64q78 109 153 184q125 127 139 141q20 43 5 78q-10 20 -23 29q-55 29 -113 0q-8 -6 -22 -14q-25 -14 -62 -78q-8 -20 -26 -45q-25 -12 -84 41q-2 2 -2 6q0 23 47 80q10 14 24 30q31 27 39.5 32t46.5 20q33 10 66 12q82 6 141 -25q88 -44 88 -110 q0 -39 -26 -82q-8 -12 -19 -21q-25 -29 -47 -53q-53 -53 -162 -174q-27 -33 -26 -39q0 -20 31 -18q4 0 32.5 2t32.5 2l199 -2q41 -2 85 20.5t48 22.5q20 0 20 -17q0 -12 -26 -30q-86 -63 -162 -74q-43 -6 -74 -6q-4 0 -32.5 4t-32.5 4h-297q-4 2 -11 6z" />
<glyph unicode="&#xb3;" horiz-adv-x="1052" d="M14 922q0 8 26 48t42 40q4 0 35 -23q20 -18 80 -37q53 -16 82 -18q4 0 16 -2h14q88 0 144 65q8 10 8 35q0 63 -88 76q-63 6 -127 10q-23 20 -23 45q0 23 21.5 39.5t50.5 11.5h8q59 23 64 25q57 16 51 55q-2 25 -25 39q-41 27 -69.5 29t-42.5 2q-31 2 -107 -14 q-47 -20 -47 -45q0 -8 5 -20.5t5 -14.5h2v-4q4 -16 -12 -23q-39 -10 -61 68q-4 14 -3 18q10 53 29 72.5t77 29t93 9.5q74 0 197 -74q4 -2 19.5 -27.5t19.5 -42.5q12 -51 -68 -94q14 -2 25 -6q115 -43 114 -111q0 -55 -61.5 -115.5t-179.5 -115.5q-37 -16 -125 -16 q-12 0 -56 10q-4 0 -41 16q-92 43 -92 60z" />
<glyph unicode="&#xb4;" d="M61 887l2 16q2 6 15 29q10 14 31 127q2 18 -3 33q-31 92 -24 135q8 39 42 57.5t71 11.5q98 -16 98 -139q0 -26 -4 -53q-35 -193 -162 -215q-39 -6 -45 -6z" />
<glyph unicode="&#xb6;" horiz-adv-x="1765" d="M98 1087q-4 59 4 115q4 23 19 60q37 100 133 158.5t207 58.5h514v-78h-125v-1405h-98v1405h-183v-1405h-96v782q-4 2 -31 4q-225 23 -311 189q-29 57 -33 116zM193 1057h12q-4 20 -2 37q14 -20 18 -37h12q-8 14 -22 43q6 13 22 33h-14q-6 -12 -16 -33q-2 14 2 33h-12v-76 zM242 1057h22q2 6 4 14q-6 -8 -18 -4v66h-8v-76zM256 1174h10q-2 16 0 28q14 -2 21 17q4 16 -4.5 22t-26.5 6q2 -37 0 -73zM266 1206v33q8 2 10 -10q2 -14 -3 -17.5t-7 -5.5zM270 1057h13q2 8 6 22q23 4 22 -20q7 0 13 -2l-25 76q-16 -47 -29 -76zM293 1090q2 8 6 20 q4 -14 4 -20h-10zM322 1174h28v6q2 4 2 8q-12 -8 -22 -6q0 18 2 24q4 0 10 -4q2 6 6 12q-10 0 -18 3q0 16 2 22q6 0 12 -2q6 6 6 10h-28v-73zM328 1059q14 -4 20 2q16 14 2 33q-6 8 -12 18q2 10 6 12l10 -6v12q-8 4 -14 0q-12 -8 -12 -18q0 -6 9 -18.5t9 -18.5t-4 -8 q-6 -2 -14 4v-12zM365 1059q12 -4 20 3t8 15t-6 15.5t-14 19.5q4 10 8 12q4 -2 8 -6v12q-6 4 -14 0q-10 -8 -10 -18q0 -6 9 -18.5t9 -18.5t-6 -8q-4 -2 -12 4v-12zM371 1333q0 -12 12 -16q13 -6 23 6q-23 0 -19 -2q-10 2 -10 12t8 17q4 0 14 -2q2 0 4 2q-4 4 -10 4 q-23 0 -22 -21zM383 1237q2 0 12 2q2 -2 4 -2v-63h11q-2 2 -2 32q0 31 2 33q4 0 10 -2q2 0 4 10h-41v-6v-4zM401 1057q31 0 29 14q-10 -6 -20 -4q-4 10 4 25q4 0 8 -5q4 6 4 13q-14 0 -16 2q-2 8 4 22q4 0 12 -4v13h-25q2 -39 0 -76zM436 1133q6 -12 6 -13v-63h7q-2 27 0 49 q10 -16 24 -49h10q-4 43 0 76h-10q4 -31 2 -56q-16 31 -29 56h-10zM455 1174h28q0 2 2 6v8q-12 -8 -20 -6q0 18 2 24q4 0 10 -4l4 12q-10 0 -16 3q0 16 2 22q4 0 12 -2q4 6 4 10h-28v-73z" />
<glyph unicode="&#xb7;" horiz-adv-x="866" d="M215 655q0 55 48 94t116 39t116 -38.5t48 -94.5q0 -55 -48.5 -94t-115.5 -39q-68 0 -116 39t-48 94z" />
<glyph unicode="&#xb8;" horiz-adv-x="1415" d="M-6 604q0 90 39 205q53 164 176 272q84 72 176 115q23 10 141 45q109 31 222 31q125 0 243 -35q162 -47 162 -137q0 -39 -41 -76t-74 -37q-27 0 -43 35q-18 45 -45 63q-33 23 -107.5 43.5t-127.5 20.5q-109 0 -213 -68q-117 -76 -180 -202q-33 -66 -33 -80q-4 -61 55 -62 h219q4 0 45 -5t47 -5h316q117 0 116 -55q0 -29 -57 -68q-49 -33 -72 -41q-14 -6 -32 -6q-10 0 -59.5 28.5t-82.5 28.5l-313 -4q-4 -2 -111 -8q-80 -4 -81 -27q-4 -37 -5 -49q6 -33 15 -94q16 -139 164 -237q131 -86 254 -86q39 0 217 45q14 4 80 32q55 23 79 23q27 0 27 -29 q0 -25 -45 -63q-39 -31 -70 -45q-72 -33 -225 -86q-57 -14 -115 -15q-106 0 -190 21q-16 2 -154 67q-166 76 -250 246q-68 137 -67 299zM334 1503q0 45 38 76t91 31q55 0 93 -31t38 -76q0 -43 -38 -74.5t-93 -31.5q-53 0 -91 31.5t-38 74.5zM795 1503q0 45 38.5 76t92.5 31 q53 0 92 -31t39 -76q0 -43 -39 -74.5t-92 -31.5t-92 31.5t-39 74.5z" />
<glyph unicode="&#xba;" horiz-adv-x="1052" d="M-6 1130q0 109 47 185q43 66 111.5 95.5t138.5 29.5q104 0 177 -92.5t73 -210.5q-1 -76 -19 -113q-90 -176 -272 -176q-170 0 -242 192q-6 16 -8 27q-6 33 -6 63zM94 1167q0 -39 10 -61v-4q37 -94 62 -129q51 -72 125 -72q80 0 129 100q14 31 14 89v9v13v23 q-43 184 -133 233q-29 16 -51 16q-111 0 -144 -139q-4 -10 -8 -22v-33q-4 -29 -4 -23z" />
<glyph unicode="&#xbb;" horiz-adv-x="1011" d="M6 199l129 -31q41 100 174 209q109 80 215 158q-106 29 -215.5 142.5t-126.5 211.5l-145 22q20 -96 102 -202q90 -119 193 -156q0 -4 -4 -8q-273 -209 -322 -346zM350 199l129 -31q41 100 174 209q109 80 215 158q-106 29 -216.5 142.5t-125.5 211.5l-145 22 q20 -96 102 -202q90 -119 191 -156q2 -4 -2 -8q-275 -209 -322 -346z" />
<glyph unicode="&#xbc;" horiz-adv-x="1681" d="M88 -35q14 25 37 35q10 4 29 18q84 104 127 185l63 123l100 174q45 80 64 116l51 99q23 47 64 119l79 137q63 119 123 164q6 6 43 30q27 25 54 47q49 43 79 52q6 8 86 32q18 10 78 23q12 0 19 -2q8 -6 0 -19q-8 -16 -35 -43q-2 -6 -29 -18l-55 -49q-45 -49 -87 -129 t-65 -125l-307 -543q-33 -51 -82 -131q-27 -47 -94 -135q-14 -20 -44 -51t-48 -45q-31 -23 -66 -37q-20 -10 -86 -31q-18 -4 -49 -16q-18 -8 -39 -6q-23 4 -10 26zM98 1190q2 6 47 20q76 23 129 23q70 0 70 -29v-170l-2 -28v-43v-17l-2 -12v-139v-16.5v-16.5l6 -29 q0 -47 23 -49q16 0 47 -2q4 -2 4 -8q0 -14 -31 -19q-23 -2 -65 -6q-78 -4 -64 -4q-35 0 -39 14q-8 23 -8 31v117l2 13q2 14 2 16v36q0 -2 0 17q-2 16 -2 24q2 12 4 35l2 23v45v69q2 16 -2 45q0 12 -2 24.5t-20 14.5q-33 0 -64 -2q-37 2 -35 23zM719 188v7q0 2 53 59 q66 74 107 123q57 84 163 235q14 10 39 29q39 29 54 29q14 0 14 -25v-399h133q4 0 92 20q-80 -102 -223 -102v-88q0 -14 4 -18.5t12 -14.5q4 -6 -16 -14q-33 -20 -107 -52q-6 4 -6 11v172q0 2 -12 2q-96 6 -289 20q-8 0 -18 6zM838 258q2 -4 10 -2l192 -8l2 244l-198 -226 q-8 -4 -6 -8z" />
<glyph unicode="&#xbd;" horiz-adv-x="1681" d="M88 -35q14 25 37 35q10 4 29 18q84 104 127 185l63 123l100 174q45 80 64 116l51 99q23 47 64 119l79 137q63 119 123 164q6 6 43 30q27 25 54 47q49 43 79 52q6 8 86 32q18 10 78 23q12 0 19 -2q8 -6 0 -19q-8 -16 -35 -43q-2 -6 -29 -18l-55 -49q-45 -49 -87 -129 t-65 -125l-307 -543q-33 -51 -82 -131q-27 -47 -94 -135q-14 -20 -44 -51t-48 -45q-31 -23 -66 -37q-20 -10 -86 -31q-18 -4 -49 -16q-18 -8 -39 -6q-23 4 -10 26zM98 1190q2 6 47 20q76 23 129 23q70 0 70 -29v-170l-2 -28v-43v-17l-2 -12v-139v-16.5v-16.5l6 -29 q0 -47 23 -49q16 0 47 -2q4 -2 4 -8q0 -14 -31 -19q-23 -2 -65 -6q-80 -4 -64 -4q-35 0 -39 14q-8 23 -8 31v117l2 13q2 14 2 16v36q0 -2 0 17q-2 16 -2 24q2 12 4 35l2 23v45v69q2 16 -2 45q0 12 -2 24.5t-20 14.5q-33 0 -64 -2q-37 2 -35 23zM795 20v11q0 -2 49 63 q78 109 153 185q125 127 140 141q18 43 4 78q-10 23 -23 28q-55 29 -112 0q-8 -6 -25 -14q-23 -14 -59 -78q-8 -20 -27 -45q-25 -12 -84 41q-2 2 -2 6q0 23 47 80q8 14 25 31q31 27 39 32t43.5 17t68.5 14q82 6 142 -24q88 -45 88 -111q0 -39 -27 -82q-8 -12 -18 -20 q-27 -29 -48 -54q-55 -53 -161 -174q-27 -33 -27 -39q0 -20 31 -18q4 0 32.5 2t32.5 2l199 -2q41 -2 85 20.5t48 22.5q20 0 21 -16q0 -12 -27 -31q-86 -63 -162 -74q-43 -6 -74 -6q-4 0 -32.5 4t-32.5 4h-297q-4 2 -10 6z" />
<glyph unicode="&#xbe;" horiz-adv-x="1681" d="M8 729q0 10 23.5 49t38.5 39q4 0 30 -22q20 -16 70.5 -35t75.5 -21q4 0 16 -2h12q80 0 129 66q8 12 9 35q0 63 -80 75q-57 6 -115 13q-20 20 -20 43t19.5 39t45.5 12h6q55 23 58 24q51 16 47 56q-2 25 -23 39q-37 27 -62.5 28.5t-37.5 1.5q-29 2 -96 -12q-45 -20 -45 -45 q0 -8 5 -20.5t5 -16.5h2v-4q4 -16 -12 -20q-35 -12 -54 65q-4 14 -2 21q8 51 25.5 71.5t70 28.5t82.5 8q66 0 179 -74q2 -2 16 -27.5t18 -41.5q11 -49 -61 -94q12 -2 20 -7q104 -43 105 -110q0 -55 -55 -117q-23 -23 -86 -67q-70 -47 -95 -54q-47 -10 -94 -10q-10 0 -49 10 q-4 2 -37 19q-84 41 -84 57zM88 -35q14 25 37 35q10 4 29 18q84 104 127 185l63 123l100 174q45 80 64 116l51 99q23 47 64 119l79 137q63 119 123 164q6 6 43 30q27 25 54 47q49 43 79 52q6 8 86 32q18 10 78 23q12 0 19 -2q8 -6 0 -19q-8 -16 -35 -43q-2 -6 -29 -18 l-55 -49q-45 -49 -87 -129t-65 -125l-307 -543q-33 -51 -82 -131q-27 -47 -94 -135q-14 -20 -44 -51t-48 -45q-31 -23 -66 -37q-20 -10 -86 -31q-18 -4 -49 -16q-18 -8 -39 -6q-23 4 -10 26zM719 188v7q0 2 53 59q66 74 107 123q57 84 163 235q14 10 39 29q39 29 54 29 q14 0 14 -25v-399h133q4 0 92 20q-80 -102 -223 -102v-88q0 -14 4 -18.5t12 -14.5q4 -6 -16 -14q-33 -20 -107 -52q-6 4 -6 11v172q0 2 -12 2q-96 6 -289 20q-8 0 -18 6zM838 258q2 -4 10 -2l192 -8l2 244l-198 -226q-8 -4 -6 -8z" />
<glyph unicode="&#xbf;" horiz-adv-x="923" d="M-35 1503q0 45 38 76t91 31q55 0 93 -31t38 -76q0 -43 -37.5 -74.5t-93.5 -31.5q-53 0 -91 31.5t-38 74.5zM-10 1235q0 27 76 33q236 20 276 20q35 0 80 -16q55 -18 55 -47v-381q0 2 0 -64q-2 -66 -2 -94q0 -12 -2 -37.5t-2 -337.5q0 -2 7 -24.5t7 -26.5v-84 q0 -20 11 -59q14 -47 30 -49q33 -2 97 -9q10 -2 10 -16q0 -33 -62 -41q-45 -6 -135 -12q-6 0 -63.5 -6.5t-61.5 -6.5q-68 0 -78 35q-14 49 -14 70v256q0 4 3 32.5t3 30.5v82q0 -2 -2 37q-2 37 0 55q0 27 4 77t4 53v102l5 151q-6 47 -7 103q0 111 -47 129q-20 6 -119 18 q-74 8 -73 27zM385 1503q0 45 39 76t92 31t92 -31t39 -76q0 -43 -39 -74.5t-92 -31.5t-92 31.5t-39 74.5z" />
<glyph unicode="&#xc0;" horiz-adv-x="2418" d="M-23 268q0 43 410 543q66 74 174 201q8 8 242 268q16 18 16 51q0 133 -254 416q-16 18 -44.5 31.5t-125.5 21.5q-82 8 -123 43v33q29 18 68 20l178 13h70q59 2 69 2q8 0 63.5 -2t65.5 -2q274 0 566 -555q53 -90 157 -281q90 -193 271 -575q59 -129 141 -236 q100 -133 180 -156q18 -6 82 -51v-41q-12 -8 -31 -20q-37 -2 -256 -2h-256q-49 4 -133 104q-27 31 -82 103q-12 29 -26 57q-25 37 -60 37q-23 0 -135 -60q-100 -55 -166 -96q-156 -102 -266 -129q-68 -16 -219 -16q-201 0 -336 39q-68 18 -149 92q-90 82 -91 147zM414 410 q0 -76 104 -140q92 -53 164 -53q20 0 117 19q109 23 166 43q45 16 161 81q20 14 54 39q90 62 90 93q0 12 -78 181t-133 273q-74 143 -119 150q-76 -55 -152 -144q-66 -78 -131 -155q-49 -57 -59 -78q-47 -61 -94 -123q-90 -129 -90 -186z" />
<glyph unicode="&#xc1;" horiz-adv-x="1990" d="M-111 1665q0 86 283 180q240 80 320 80q90 0 90 -59q0 -6 -4 -88q2 -16 4 -35q4 -31 20 -31q14 0 37 21q57 51 141 98q72 41 197 70q119 29 211 28q287 1 428 -155q0 -68 -29 -111q-29 -27 -86 -53q-74 -33 -127 -27q-12 0 -88 64.5t-90 66.5q-109 25 -201 17 q-137 -10 -374 -230q-33 -31 -46 -110q2 -131 7 -279q0 -61 32 -61q25 0 78 36q246 174 436 175q80 0 166 -27q68 -20 111 -45q18 -10 70 -45q78 -53 108 -109q23 -53 47 -108q16 -33 39 -97q20 -104 21 -215q0 -303 -387 -499q-248 -125 -529 -166q-139 -20 -303 -21 q-158 0 -192 23q-59 39 -62 213l-10 1489q0 63 -43 63q-8 0 -110.5 -44t-110.5 -44q-53 0 -54 35zM584 578q0 -80 4 -216q6 -141 7 -179t73 -54q41 -10 82 -10q16 0 112 16q41 2 115 10q88 14 211 74q184 90 198 205q6 35 7 74q0 184 -88 327q-96 160 -246 160q-29 0 -58 -8 q-68 -12 -192 -55q-45 -20 -117 -50q-23 -6 -53 -34q-37 -31 -43 -60q-12 -68 -12 -200z" />
<glyph unicode="&#xc2;" horiz-adv-x="1990" d="M-109 1665q0 86 283 180q240 80 320 80q90 0 90 -59q0 -8 -3 -68.5t-3 -66.5l-3 -140q-4 -49 27 -49q16 0 178 129q182 145 254 186t170 41q248 0 367 -303q8 -23 8 -114q0 -82 -2 -88q-27 -70 -109 -166q-31 -37 -82 -92q-29 -33 -28 -35q0 -23 37 -33q123 -37 231 -207 q39 -59 45 -90q21 -105 21 -154q0 -303 -387 -499q-248 -125 -529 -166q-139 -20 -303 -21q-158 0 -194 23q-59 39 -60 213l-6 649q0 49 -4 165t-4 175q0 16 -5 67.5t-5 57.5q0 -33 6 258q0 23 9 69t9 52q0 23 -17.5 41t-35.5 18q-8 0 -110.5 -44t-110.5 -44q-53 0 -54 35z M584 1110q0 -6 4 -57.5t4 -75.5q14 -27 59 -27q6 0 46 7.5t55 9.5q63 2 153 28q66 20 129 41q156 45 240 154q29 37 29 115q0 41 -17 90q-68 221 -252 223q-31 0 -71 -16q-72 -31 -74 -31q-39 -12 -162 -109q-143 -111 -143 -164v-188zM588 590q0 -8 3 -91t3 -89l2 -226 q0 -39 72 -55q43 -10 84 -10q16 0 112 16q41 2 115 10q94 14 219 74q191 90 191 205q4 172 -107 301t-278 129q-6 0 -76 -10l-117 -15q-55 -6 -111 -20q-45 -12 -57 -18q-39 -16 -45 -43q-10 -53 -10 -158z" />
<glyph unicode="&#xc3;" horiz-adv-x="2027" d="M-78 1866q25 59 178 59q8 0 77 -7t76 -7t24.5 -7.5t27.5 -7.5q86 0 107 -20q35 -49 69 -98q6 -45 8 -45q4 -25 3 -29q-4 -10 -5 -12q0 -6 5 -47q18 27 51 26q10 0 114 68q121 80 146 92q186 98 420 98q350 1 506 -155q0 -6 -15.5 -28t-32 -35t-77.5 -40q-84 -33 -142 -26 q-14 0 -98 49t-98 51q-104 20 -226 16q-111 -2 -264 -108q-137 -94 -250 -223q-2 -12 -10 -9q-8 -244 -8 -405v-641q0 -8 7 -34t7 -34v-231q0 -98 -289 -99q-160 0 -200 35q0 16 27.5 58.5t29.5 54.5q25 86 33 188q8 137 12 152l6 1225q-8 68 -51 98q-20 14 -88 35 q-57 16 -80 43z" />
<glyph unicode="&#xc4;" horiz-adv-x="3090" d="M-41 39q2 47 5 93t50 89q59 55 144 66q12 2 180 2q55 0 88 61q78 141 279 533q485 989 698 989q61 0 160 -47q106 -53 106 -99q0 -20 -61 -129q-70 -121 -72 -124l-8 -19q8 -4 2 -14l979 -1182q45 -8 86 -8q20 0 52 2t46 2q63 0 141 -41q39 -23 45 -82q2 -51 5 -104 q12 -140 -86 -402q-12 -33 -29 -41q-4 0 -35 -6q-31 -4 -43 107q-16 145 -18 155q-27 70 -54 86q-47 31 -196 31l-1991 -12q-190 -2 -190 -230q0 -29 6 -96q4 -57 2 -84q-20 -23 -51 -53h-37q-8 18 -56 88q-41 59 -40 72q0 2 -56.5 184t-50.5 213zM891 309q0 -35 45 -43 q289 -12 575 -24q303 -10 582 -6q29 8 35 20q6 10 -2 41q-4 18 -27 59q-80 127 -227 359q-35 59 -209 264q-199 240 -240 240h-4q-31 0 -84 -70q-102 -137 -196 -326q-82 -174 -240 -485q-8 -14 -8 -29z" />
<glyph unicode="&#xc5;" horiz-adv-x="1947" d="M-10 907q0 84 6 117q8 63 51 190q80 244 266 408q123 109 265 172q33 16 210 68q164 47 332 47q156 0 330 -43q281 -70 281 -217q0 -57 -62.5 -112.5t-114.5 -55.5q-39 0 -61 51q-29 70 -68 96q-49 35 -160.5 65.5t-193.5 30.5q-162 0 -321 -102q-172 -113 -269 -305 q-49 -96 -49 -119q-4 -68 29 -86q12 -6 53 -6h328q8 0 70.5 -7t70.5 -7h473q55 0 105 -17q70 -25 69 -69q0 -43 -86 -101q-74 -49 -106 -61q-20 -8 -52 -8q-14 0 -87.5 42t-122.5 42l-471 -7q-4 0 -166 -10q-119 -6 -121 -39q-6 -55 -6 -76q8 -49 20 -139q25 -209 248 -356 q193 -131 377 -131q66 0 166 24q80 23 159 43q25 6 123 50q82 35 119 34q39 0 39 -43q0 -37 -68 -94q-55 -47 -104 -67q-137 -61 -170 -74q-86 -35 -170 -55.5t-170 -20.5q-160 0 -283 27q-27 6 -231 102q-250 117 -375 369q-102 207 -102 450z" />
<glyph unicode="&#xc6;" horiz-adv-x="3391" d="M-63 -14q0 23 18 39q57 61 158 163q94 94 247 295q68 70 168 189q45 61 211 252q127 145 127 172t-112 114q-66 49 -129 101q-78 76 -156 151q-92 92 -129 146q-106 160 -100 215q23 29 141 53q104 23 176 22q59 0 115 -24q0 -2 3 -8t3 -19q0 -8 -17.5 -39.5t-17.5 -40.5 q0 -57 123 -254q104 -164 149 -213q209 -236 369 -296q16 -8 33 -17q4 0 31 4q20 10 26 33v559q0 98 -14 137q-31 78 -131 95q-4 4 -17 16v27q59 25 101 24q139 0 147 -2q16 -2 58 2q53 6 73 6q57 0 88 -28q66 -61 78 -211q2 -117 4 -232v-80q-2 -33 -2 -28v-74q0 2 4 -117 v-69q2 -43 31 -58q27 -4 33 -4q16 8 33 17q158 61 368 296q43 49 148 213q123 197 123 254q0 8 -17.5 40t-17.5 40q0 12 4 18.5t4 8.5q53 25 115 24q72 0 176 -22q117 -25 139 -53q6 -55 -100 -215q-35 -53 -129 -146q-76 -76 -154 -151q-66 -51 -131 -101 q-113 -88 -113 -114q0 -27 129 -172q166 -190 211 -252q61 -68 166 -189q78 -100 250 -295q53 -57 158 -163q16 -16 16 -39q0 -66 -205 -66q-143 0 -207 49q-100 78 -249 254q-94 113 -273 342q-137 176 -274 355q-6 10 -35 10q-23 0 -100 -47q-88 -51 -88 -88v-275v-47 q-8 -317 26 -356q84 -96 84 -103q0 -14 -18.5 -28.5t-36.5 -14.5q14 0 -74 -6q-70 -4 -113 0q-70 6 -139 10q-82 10 -94 50q-35 117 -35 315v455q0 37 -90 88q-82 47 -102 47q-29 0 -37 -10q-195 -256 -547 -697q-150 -176 -250 -254q-63 -49 -205 -49q-207 0 -206 66z M483 473v47v-47z" />
<glyph unicode="&#xc7;" horiz-adv-x="2048" d="M-51 248q0 33 82 155q88 135 141 136q25 0 61 -29q27 -23 54 -45q70 -55 254 -115q174 -55 262 -59q14 0 53 -6t47 -6q123 0 250 59t203 154q27 33 26 108q0 174 -241 229q-80 18 -379 31q-45 2 -70 8q-76 70 -76 148t75 131t165 43l23 2q195 70 206 74q51 16 103 59 q63 57 57 113q-8 74 -80 121q-45 29 -116.5 57.5t-102.5 30.5q-90 6 -133 6h-172q-84 -4 -168 -41q-152 -63 -151 -137q0 -29 16 -68q12 -31 18 -39l4 2l5 -20q4 -20 -11.5 -47t-36 -33t-41.5 -6q-102 0 -163 225q-12 47 -9 65q33 168 91 228q70 74 258 103.5t297 29.5 q147 0 286 -55q121 -47 350 -187q12 -6 60 -84q55 -90 67 -141q4 -20 5 -43q0 -139 -207 -258q33 -8 57 -17q158 -59 238 -118q137 -100 137 -244q0 -86 -62 -197q-55 -102 -141 -184q-78 -78 -274 -199q-178 -111 -303 -168q-37 -16 -66 -22q-166 -33 -338 -33 q-37 0 -176 33q-12 4 -133 57q-164 72 -174 78q-127 66 -127 115z" />
<glyph unicode="&#xc8;" horiz-adv-x="2965" d="M-55 1767v50q307 104 391 104q86 0 133 -63q55 -147 68 -236q10 -94 20 -186q16 -137 16 -500v-326q14 -68 66 -63q133 14 477 254q356 248 508 446q84 111 152 189q59 68 172 221q29 37 26 104q-4 33 -88 146q43 35 123 35q113 0 213 -31q92 -27 102 -56 q133 -319 156 -931q-4 -188 6 -568q10 -113 33 -178q14 -37 39 -72q20 -25 20 -45q0 -33 -67 -55q-55 -16 -101 -16h-131q-57 0 -112 26q-72 33 -82 90q-16 80 -17 164q0 33 3 381q2 66 -15 277q-12 70 -12 73q-14 47 -45 48q-10 0 -23 -7q-80 -63 -198 -151 q-203 -129 -723 -381q-109 -43 -310 -125q-135 -55 -172 -125q0 -152 -153 -219q-111 -51 -275 -51q-74 0 -98 45v416l62 886q8 119 8 146q0 240 -172 284z" />
<glyph unicode="&#xc9;" horiz-adv-x="2965" d="M-55 1767v50q307 104 391 104q86 0 133 -63q55 -147 68 -236q10 -94 20 -186q16 -137 16 -500v-326q14 -68 66 -63q133 14 477 254q356 248 508 446q84 111 152 189q59 68 172 221q29 37 26 104q-4 33 -88 146q43 35 123 35q113 0 213 -31q92 -27 102 -56 q133 -319 156 -931q-4 -188 6 -568q10 -113 33 -178q14 -37 39 -72q20 -25 20 -45q0 -33 -67 -55q-55 -16 -101 -16h-131q-57 0 -112 26q-72 33 -82 90q-16 80 -17 164q0 33 3 381q2 66 -15 277q-12 70 -12 73q-14 47 -45 48q-10 0 -23 -7q-80 -63 -198 -151 q-203 -129 -723 -381q-109 -43 -310 -125q-135 -55 -172 -125q0 -152 -153 -219q-111 -51 -275 -51q-74 0 -98 45v416l62 886q8 119 8 146q0 240 -172 284zM578 2081q4 47 47 98q49 59 137 109q96 53 164 53q109 0 266 -29q133 -25 266 -49q29 -4 105 0q94 8 104 8 q25 0 63.5 42t59.5 44l10 -18q0 -20 -14 -63.5t-25 -57.5q-49 -59 -124.5 -100t-145.5 -41q-117 0 -281 26q-139 23 -278 45q-29 4 -101 0q-88 -6 -100 -6q-18 0 -45 -24q-33 -27 -43 -31q-27 -14 -41 -19l-14 3z" />
<glyph unicode="&#xca;" horiz-adv-x="2410" d="M-53 1862v26q61 25 133 25q70 0 143 -15q4 0 133 -2q84 -2 121 -36q66 -61 78 -197q2 -106 2 -215v-49q0 2 0 -103q0 -59 4 -178v-82q2 -55 31 -69q10 -2 20 -2q25 0 60 14q29 12 57 25q176 61 410 296q49 49 164 213q137 197 137 254q0 8 -19.5 40t-19.5 40q0 12 5 18.5 t5 8.5q59 25 127 24q80 0 195 -22q131 -25 155 -53q8 -55 -110 -215q-39 -53 -144 -146q-86 -76 -172 -151q-72 -51 -145 -101q-125 -88 -125 -114q0 -27 143 -172q184 -190 234 -252q70 -68 186 -189q84 -100 277 -295q57 -57 174 -163q20 -16 20 -39q0 -66 -229 -66 q-160 0 -230 49q-111 78 -276 254q-106 113 -303 342q-154 176 -305 355q-8 10 -39 10q-29 0 -142 -47q-131 -51 -131 -88v-275q0 -170 -2 -194q-10 -139 -63 -240q-18 -39 -111 -68q-61 -18 -125 -34q-133 -45 -215 -45q-18 0 -35.5 14t-17.5 29q0 10 45 61l70 74 q55 63 55 223v1305q0 166 -207 200q-4 4 -18 17z" />
<glyph unicode="&#xcb;" horiz-adv-x="2539" d="M-66 213q41 16 52 16l6 -2h10q23 0 64 2q49 2 61 2q20 0 31 7q31 57 75 141q25 51 224 547q111 274 276 598q231 457 318 456q49 0 182 -100q141 -102 141 -160q0 -18 -35 -63q-55 -76 -71.5 -100.5t-7.5 -40.5l1071 -1475v-47q-66 -29 -146 -29q-96 0 -219 29 q-111 27 -168 55q0 4 8 66q6 47 0 69q-29 100 -65 172q-121 221 -189 363q-35 74 -211 336q-188 279 -211 272q-45 -10 -182 -289q-109 -221 -170 -374q-85 -222 -280 -603q-12 -23 -59.5 -53.5t-73.5 -30.5q-72 0 -119 25q-25 10 -121 80q-70 51 -191 131z" />
<glyph unicode="&#xcc;" horiz-adv-x="4200" d="M-66 213q41 16 52 16l6 -2h10q23 0 64 2q49 2 61 2q37 0 57 37q98 182 320 615q485 989 698 989q61 0 160 -47q106 -53 106 -99q0 -16 -66.5 -126.5t-66.5 -126.5q0 -57 332 -398q272 -281 356 -350q41 18 82 100q27 61 54 123l258 582q209 451 293 450q47 0 169.5 -101 t122.5 -159q0 -20 -65 -118q-90 -129 -107 -162l1160 -1399v-47q-66 -29 -146 -29q-96 0 -219 29q-111 27 -168 55q0 4 8 66q6 47 0 69q-29 100 -65 172q-82 127 -228 359q-37 59 -209 264q-201 240 -241 240q-68 0 -285 -555q-96 -248 -280 -603q-23 -43 -101 -43 q-66 0 -143 52q-84 57 -84 114q0 16 47 95t47 100q0 90 -344 465q-332 362 -371 362q-47 0 -143 -184q-47 -100 -96 -199q-104 -207 -211 -411q-137 -260 -279 -402q-31 -33 -145 -33q-68 0 -105 25q-53 39 -104 80q-70 51 -191 131z" />
<glyph unicode="&#xcd;" horiz-adv-x="2906" d="M-55 1767v50q307 104 391 104q86 0 133 -63q55 -147 68 -236q10 -94 20 -187.5t16 -230.5q12 -98 25.5 -112.5t101.5 -20.5q117 -6 226 -6q537 0 954 160q61 23 78 135q-25 246 -45 401q-4 33 -88 146q43 35 123 35q113 0 213 -31q92 -27 102 -56q133 -319 156 -931 q-4 -188 6 -568q10 -113 33 -178q14 -37 39 -72q20 -25 20 -45q0 -33 -68 -55q-55 -16 -100 -16h-131q-57 0 -113 26q-72 33 -82 90q-16 80 -16 164q0 35 2 381q2 63 -14 267q-16 53 -64 38q-453 -152 -506 -165q-219 -55 -700 -103q-96 -10 -118.5 -29.5t-33.5 -103.5v-293 q0 -152 -151 -221q-111 -51 -277 -51q-74 0 -98 45v416l62 886q8 119 8 146q0 240 -172 284z" />
<glyph unicode="&#xce;" horiz-adv-x="2465" d="M-35 922q0 160 53.5 335t139.5 289q168 225 450 326q90 33 258 63q184 35 297 35q416 0 713 -319q287 -308 287 -709q0 -88 -21 -203q-23 -125 -53 -176q-362 -602 -1092 -602q-338 0 -575 143q-246 150 -365 437q-27 55 -65 168q-27 106 -27 213zM336 1049 q0 -96 24 -183q10 -25 25 -63q74 -305 307 -504q221 -188 465 -188q168 0 291 73q143 84 258 285q53 92 61 152q2 22 2 159q0 147 -2 158q-80 297 -174 459q-141 250 -381 360q-117 55 -219 55q-195 0 -356 -118q-184 -133 -252 -375q-16 -31 -33 -80q0 -41 -4 -111 q-12 -102 -12 -79z" />
<glyph unicode="&#xcf;" horiz-adv-x="2842" d="M-152 1516q0 55 205 149q123 55 367 174q127 66 158 66q88 0 84 -80l-9 -371q4 -8 13 -61q4 -37 36 -37q20 0 189 141q207 170 377 260q264 141 514 141q328 0 487 -311q117 -227 117 -532q0 -170 -31 -277q-12 -39 -114 -307q-12 -27 -48 -74q-45 -55 -57 -75 q-156 -260 -405 -469q-109 -92 -181 -86q-10 10 -10 28q0 14 38 76.5t67 93.5q356 420 356 860q0 219 -88 457q-127 342 -361 342q-195 0 -520 -227q-338 -236 -370 -422q0 -315 4 -324q4 -20 -4 -166q-8 -156 -9 -153q0 -106 19 -158q16 -20 45 -68q2 -8 2 -36 q-37 -35 -234 -113q-184 -74 -204 -74q-37 0 -71 24.5t-34 63.5l19 779q0 260 8 380l-2 271q-2 4 -8 90q-4 59 -37 59q-6 2 -88 -39t-136 -41q-20 0 -47 11q-37 14 -37 35z" />
<glyph unicode="&#xd0;" horiz-adv-x="2826" d="M-109 1700q0 43 70 63q45 6 90 15q82 23 244 61q88 27 178 53q121 35 215 35q143 0 143 -153q0 -20 -3 -59.5t-3 -57.5q0 -102 80 -103q20 0 148 80q63 43 129 84q90 47 182 97q123 66 201 81q174 39 344 39q127 0 215 -30q74 -25 151 -109q18 -18 117 -137 q51 -63 105 -234q47 -155 47 -227q0 -10 -11 -53q-12 -53 -14 -68q-35 -238 -264 -487q-207 -227 -488.5 -382t-488.5 -155q-68 0 -154 41q-102 47 -102 111q0 66 98 123q80 45 115 45q10 0 112.5 -35t112.5 -35q35 0 110 34t116 69q199 170 325 405q125 229 125 414 q0 135 -80 254q-88 133 -238.5 175t-177.5 42q-143 0 -467.5 -189.5t-338.5 -285.5q-12 -66 -13 -172q0 -12 9.5 -109.5t9.5 -108.5v-755q0 -10 2 -37t2 -39v-668q0 -137 -199 -250q-162 -94 -258 -94q-29 0 -57.5 14.5t-28.5 34.5q0 12 31 48q45 49 53 61q18 29 21 78 q6 1575 -17 1863q-6 72 -6 250l-4 238q0 41 -92 67l-209 -34q-186 31 -187 92z" />
<glyph unicode="&#xd1;" horiz-adv-x="2013" d="M20 606q0 158 62 346q147 461 567 719q356 221 756 221q287 1 287 -196q0 -102 -74 -186.5t-184 -84.5q-59 0 -60 31q0 6 41 41q53 45 76 70q14 14 14 32q0 59 -102 93q-70 25 -123 24q-4 0 -176 -33q-182 -35 -336 -141q-174 -119 -268 -299q-23 -43 -41 -94 q-16 -41 -39 -107q-39 -139 -39 -211q0 -174 88 -329q100 -184 293 -271q109 -49 174 -49q8 0 52 -5t50 -5q43 0 152 21q96 18 113 22q59 29 120 55q104 47 129 47q59 0 60 -49q0 -37 -66 -80q-39 -18 -78 -38q-219 -117 -403 -144q-195 -31 -289 -31q-78 0 -213 27 q-293 57 -432 238q-41 53 -76 171.5t-35 194.5z" />
<glyph unicode="&#xd2;" horiz-adv-x="2177" d="M-8 1647q0 31 90 82q61 35 104 49q180 63 287 82q104 12 309 36l1014 -6q127 14 180 15q76 0 76 -45q0 -33 -48 -69t-85 -44q-133 -25 -315 -31q-16 0 -69.5 -5t-61.5 -5h-209q14 0 -117 -31q-18 -4 -39 -24.5t-21 -147.5v-1145q0 -25 50 -41q33 -10 65 -18 q29 -14 29 -41q0 -20 -84 -88q-76 -61 -174 -113q-111 -57 -174 -57q-18 0 -38 14.5t-22 22.5q-12 86 -34 260q-14 176 -15 420v690q0 8 9.5 54t9.5 77q0 29 -9 53q-16 61 -82 76q-18 4 -110 4q-115 0 -369 -37q-6 -2 -34.5 -10t-51.5 -8q-61 0 -61 31z" />
<glyph unicode="&#xd3;" horiz-adv-x="2699" d="M-88 1673q0 70 147 135q78 35 177 60q66 25 188 63q12 2 41 4q-4 0 45 0q25 0 68 -41q63 -55 122 -157l95 -178q129 -254 395 -760q41 -74 88 -74q27 0 68 39q16 25 53 72q80 104 182 313q121 252 166 326q289 469 588 469q145 0 137 -66q-6 -39 -96 -86 q-127 -68 -178 -137q-72 -98 -158 -254q-70 -131 -142 -262q-119 -213 -385 -729q-8 -16 -32 -93q-39 -119 -148 -282q-8 -14 -184 -264q-76 -98 -215 -287q-51 -59 -152.5 -180t-103.5 -189q0 -72 53 -106q55 -27 111 -51q18 -10 18 -25q0 -78 -213 -104q-72 -8 -244 -9 h-288q-27 0 -61 25t-34 49q0 37 29 68q211 227 422 452q250 270 401 473q109 143 109 219q2 74 -123 302q-68 113 -149 260q-94 201 -189 401q-123 258 -196 387q-23 41 -43 80q-29 51 -54 70q-47 35 -102 34q-27 0 -66 -10q-51 -14 -65 -16q-31 -4 -51 8q-31 16 -31 51z " />
<glyph unicode="&#xd4;" horiz-adv-x="3854" d="M-35 1106q0 72 43 227q47 170 94 234q88 119 105 137q72 84 137 108q78 31 193 31q154 0 309 -39q72 -18 188 -82q84 -47 170 -94q68 -37 172 -74q61 -2 62 72q0 35 -14.5 76t-53.5 96q-35 47 -39 70q14 23 73.5 39t108.5 14q174 -12 283 -74q10 -6 38 -105.5t38 -109.5 q20 -37 39 -73q6 -6 49 -5q25 0 172 74q84 47 170 94q117 63 186 82q158 39 312 39q115 0 192 -31q66 -25 137 -108q16 -18 105 -137q45 -63 92 -234q45 -156 45 -227q0 -10 -10 -53q-10 -53 -13 -68q-33 -238 -231 -479q-178 -219 -425 -366.5t-433 -147.5q-59 0 -137 41 q-94 47 -94 110q0 66 88 123q72 45 104 45q10 0 102.5 -34.5t100.5 -34.5q33 0 99.5 33.5t103.5 68.5q176 168 280 391q96 209 96 398q0 135 -69 253q-80 133 -216.5 175.5t-160.5 42.5q-139 0 -361 -121q-229 -127 -282 -250q-18 -106 -21 -146q8 111 17 -1861 q0 -16 16.5 -38t32.5 -42q8 -12 51 -61q33 -36 33 -48q0 -20 -28.5 -34.5t-57.5 -14.5q-104 0 -287 86q-227 106 -227 244v668q0 12 3 38.5t3 36.5l10 988q0 111 -10 172q-14 92 -275.5 237.5t-394.5 145.5q-25 0 -160 -42t-215 -176q-70 -119 -69 -253q0 -188 96 -398 q102 -223 281 -391q37 -35 103.5 -68.5t96.5 -33.5q10 0 102.5 34.5t102.5 34.5q31 0 103 -45q88 -57 88 -123q0 -63 -93 -110q-78 -41 -137 -41q-188 0 -434 147.5t-426 366.5q-197 242 -229 479q-2 14 -15 68q-8 43 -8 53z" />
<glyph unicode="&#xd5;" horiz-adv-x="2123" d="M-72 1688q0 49 250 124q221 68 266 68q123 0 295 -231q115 -156 299 -492q250 311 310 442q10 20 20 93q6 55 21.5 78.5t62.5 35.5q14 4 168 33q57 10 72 10q41 0 77 -16q49 -18 50 -55q0 -25 -113 -150q-53 -59 -137 -145q-35 -45 -109 -131q-104 -111 -342 -344 q76 -135 117 -199q57 -90 74 -125q23 -47 67 -109q10 -12 19 -30q16 -35 53 -105q57 -94 115 -155q35 -39 49 -60q53 -84 141 -79.5t115 -26.5q12 -14 12 -31q0 -35 -74 -68q-12 -6 -26 -12q-74 -37 -240 -39q-70 -2 -158 4q-106 0 -176 84q-84 96 -108 129 q-57 74 -89 137.5t-98 163.5q-96 145 -112 172q-244 -305 -301 -432q-10 -20 -21 -94q-8 -55 -20 -74q-16 -27 -64 -39q-14 -4 -170 -32q-55 -10 -69 -11q-43 0 -78 15q-49 20 -49 55q0 27 112 152q51 57 137 145q35 45 109 131q102 109 332 334q-166 297 -219 385 q-129 215 -244 371q-41 55 -82 67q-55 2 -139 6q-104 6 -105 50z" />
<glyph unicode="&#xd6;" horiz-adv-x="2902" d="M-29 881q0 166 78 331q61 131 217 351q4 12 21 47q2 12 2 20q0 29 -43 29q-18 0 -70 -8q-27 -4 -29 20l11 29q31 27 123 61q113 43 327 90q184 41 213 41t54.5 -12t25.5 -31q0 -35 -41 -57q-238 -129 -317 -385q-98 -317 -99 -487q0 -342 177 -543q190 -213 540 -213 q156 0 342 35q260 49 277 137q6 33 2 113q-6 102 -6 86q0 10 -12.5 213.5t-12.5 212.5l-6 210q0 6 -8 84q-8 104 -15 209q-12 137 -47 207q-18 37 -84 37q-10 0 -46 -7t-46 -7q-18 0 -43 8q-35 14 -35 35q0 14 20.5 36.5t39.5 28.5q94 25 266 56q154 27 176 26q57 0 97 -42 t48 -113q59 -518 93 -945q14 -137 43 -456q63 -115 120 -115q37 0 125 41q78 51 193 119q10 6 24 6q59 0 46 -68q-6 -35 -35 -78q-31 -35 -60 -71q-41 -49 -59 -92q-8 -18 -16 -58q-2 -76 34 -143q10 -10 29 -45q23 -45 29 -82q4 -27 11 -55.5t7 -59.5q0 -190 -309 -299 q-41 -14 -64 -14q-29 0 -28 20q0 29 45 72q68 66 67 164q0 31 -9 58.5t-38 80.5q-41 45 -53 74q-33 53 -12 137q6 27 22 62q8 16 8 26q0 23 -47 17q-242 -78 -299 -78q-117 0 -141 174q-2 12 -20 8q-39 -6 -47.5 -6t-75.5 -25q-78 -29 -111 -37q-352 -82 -514 -81 q-8 0 -38 -4.5t-42 -4.5q-252 0 -473 103q-233 113 -350 307q-90 150 -123 266q-29 100 -29 234z" />
<glyph unicode="&#xd7;" horiz-adv-x="2304" d="M31 1155q0 117 63 244q41 80 119 184q63 86 63 96q0 14 -16 15q-12 0 -51 -6l-4 14q2 -14 -2 -14q-35 0 -35 32l8 25q49 41 258 94q199 51 277 51q23 0 50 -13t27 -34q0 -31 -40 -53q-184 -104 -240 -264q-76 -219 -76 -342q0 -250 145.5 -386t397.5 -136q139 0 260 32 q158 45 209 135q2 57 12 322q8 195 8 319q0 117 -12 164q-23 100 -98 101q-16 0 -47 -4.5t-47 -4.5q-18 0 -45 15.5t-27 34.5q0 16 23.5 35.5t41.5 25.5q281 74 445 74q61 0 98 -56q33 -47 35 -112q10 -242 10 -1024q0 -506 19.5 -551t74.5 -57q47 -10 95 -23l-2 -27 q-41 -37 -232 -75q-170 -37 -246 -37q-90 0 -118 96q-14 49 -15 170q0 156 6 332q2 47 -24 47q-12 0 -37 -8q-86 -33 -277 -64q-160 -29 -278 -28q-313 0 -535 174q-242 186 -241 487z" />
<glyph unicode="&#xd8;" horiz-adv-x="3520" d="M-27 881q0 172 76 331q70 145 236 351q2 12 18 47q2 12 2 20q0 29 -41 29q-18 0 -67 -8q-25 -4 -27 20l10 29q31 27 117 61q106 43 311 90q176 41 203 41t51.5 -12t24.5 -31q0 -35 -39 -57q-227 -129 -301 -385q-43 -135 -88 -272q-37 -121 -37 -215q0 -342 168 -543 q180 -213 514 -213q82 0 223 24q41 6 41 25q0 12 -16 35q-57 61 -99 133q-84 150 -114 266q-27 100 -27 234q0 160 88 331q49 96 221 351q4 12 19 47q4 12 4 20q0 29 -43 29q-16 0 -66 -8q-25 -4 -26 20l8 29q31 27 117 61q109 43 313 90q176 41 203 41t51 -12t24 -31 q0 -35 -40 -57q-225 -129 -302 -385q-92 -317 -92 -487q0 -348 152 -543q168 -213 498 -213q119 0 235 35q158 49 172 137q6 33 2 113q-6 102 -6 86q0 10 -11.5 213.5t-11.5 212.5l-6 210q0 6 -8 84q-6 104 -12 209q-12 137 -45 207q-16 37 -82 37q-8 0 -42 -7t-44 -7 q-16 0 -41 8q-33 14 -33 35q0 14 19.5 36.5t37.5 28.5q88 25 254 56q143 27 166 26q121 0 137 -155q57 -518 89 -945q14 -137 41 -456q4 -47 26 -135q23 -41 80 -52l86 -12v-29q-27 -31 -55 -39q-342 -115 -393 -114q-111 0 -134 174q-2 12 -18 8q-39 -6 -46 -6t-52 -23 q-55 -27 -95 -39q-68 -25 -133 -47t-176 -34q-68 -8 -106 -9q-250 0 -463 111q-37 -2 -111 -21q-334 -82 -487 -81q-8 0 -36 -4.5t-40 -4.5q-240 0 -448 103q-223 113 -334 307q-86 150 -117 266q-27 100 -27 234z" />
<glyph unicode="&#xd9;" horiz-adv-x="3753" d="M-27 881q0 172 74 325q63 137 238 357q2 12 18 47q2 12 2 20q0 29 -41 29q-18 0 -67 -8q-25 -4 -27 20l10 29q31 27 117 61q106 43 311 90q176 41 203 41t51.5 -12t24.5 -31q0 -35 -39 -57q-227 -129 -301 -385q-43 -135 -88 -272q-37 -121 -37 -215q0 -342 168 -543 q180 -213 514 -213q82 0 223 24q41 6 41 25q0 12 -16 35q-57 61 -99 133q-78 139 -100 266q-10 68 -10 234q0 160 88 331q49 96 221 351q4 12 18 47q4 12 5 20q0 29 -43 29q-16 0 -66 -8q-25 -4 -27 20l9 29q31 27 116 61q109 43 314 90q176 41 202 41q27 0 51.5 -12 t24.5 -31q0 -35 -41 -57q-225 -129 -301 -385q-92 -317 -92 -487q0 -756 619 -756q119 0 235 35q158 49 172 137q6 33 2 113q-6 102 -6 86q0 10 -11.5 213.5t-11.5 212.5l-6 210q0 6 -8 84q-6 104 -12 209q-12 137 -45 207q-16 37 -82 37q-8 0 -42 -7t-44 -7q-16 0 -41 8 q-33 14 -33 35q0 14 19.5 36.5t37.5 28.5q88 25 254 56q143 27 166 26q121 0 137 -155q57 -518 89 -945q14 -137 41 -456q63 -115 129 -115q43 0 129 41q80 51 192 119q12 6 27 6q59 0 45 -68q-6 -35 -37 -78q-29 -35 -59 -71q-41 -49 -58 -92q-8 -18 -18 -58q0 -76 35 -143 q10 -10 30 -45q20 -45 27 -82q4 -27 11 -55.5t7 -59.5q0 -190 -309 -299q-39 -14 -61 -14q-29 0 -29 20q0 29 45 72q68 66 68 164q0 31 -15 57q-4 29 -35 82q-41 45 -53 74q-33 53 -12 137q8 27 24 62q6 16 7 26q0 23 -47 17q-127 -41 -150 -48q-102 -31 -149 -30 q-111 0 -134 174q-2 12 -18 8q-39 -6 -47 -6t-57 -23q-63 -31 -89 -39q-61 -27 -118.5 -51t-175.5 -39h-121q-250 0 -463 111q-37 -2 -111 -21q-334 -82 -487 -81q-8 0 -36 -4.5t-40 -4.5q-240 0 -448 103q-223 113 -334 307q-86 150 -117 266q-27 100 -27 234z" />
<glyph unicode="&#xda;" horiz-adv-x="2240" d="M-18 1853q0 23 18 25q244 27 438 27q80 0 178 -4q92 -6 121 -7q51 0 74 -59q14 -39 12 -88q-4 -301 -2 -356q2 -129 6 -279q0 -61 33 -61q25 0 78 36q246 174 436 175q80 0 166 -27q68 -20 111 -45q18 -10 69 -45q78 -53 109 -109q23 -53 47 -108q16 -33 39 -97 q20 -104 20 -215q0 -303 -387 -499q-248 -125 -528 -166q-139 -20 -303 -21q-158 0 -193 23q-59 39 -61 213l-10 1335q0 74 -19 156q-18 70 -88 90q-61 18 -121 37q-92 23 -188 22q-55 0 -55 47zM829 578q0 -80 5 -216q6 -141 7 -179t72 -54q41 -10 82 -10q16 0 113 16 q41 2 115 10q88 14 211 74q184 90 198 205q6 35 6 74q0 184 -88 327q-96 160 -245 160q-29 0 -58 -8q-68 -12 -192 -55q-45 -20 -117 -50q-23 -6 -53 -34q-37 -31 -43 -60q-12 -68 -13 -200z" />
<glyph unicode="&#xdb;" horiz-adv-x="2719" d="M-111 1665q0 86 283 180q240 80 320 80q90 0 90 -59q0 -6 -4 -88q0 -20 -3 -166q-2 -102 0 -221q2 -131 7 -279q0 -61 32 -61q25 0 78 36q246 174 436 175q80 0 166 -27q68 -20 111 -45q18 -10 70 -45q78 -53 108 -109q23 -53 47 -108q16 -33 39 -97q20 -104 21 -215 q0 -303 -387 -499q-248 -125 -529 -166q-139 -20 -303 -21q-158 0 -192 23q-59 39 -62 213l-10 1489q0 63 -43 63q-8 0 -110.5 -44t-110.5 -44q-53 0 -54 35zM584 578q0 -80 4 -216q6 -141 7 -179t73 -54q41 -10 82 -10q16 0 112 16q41 2 115 10q88 14 211 74 q184 90 198 205q6 35 7 74q0 184 -88 327q-96 160 -246 160q-29 0 -58 -8q-68 -12 -192 -55q-45 -20 -117 -50q-23 -6 -53 -34q-37 -31 -43 -60q-12 -68 -12 -200zM1522 1821q0 20 51 37q37 12 61 14q354 29 414 29q53 0 121 -23q84 -31 84 -72v-571q0 4 -2 -95.5t-2 -142.5 q0 -16 -3 -54t-3 -42v-465q0 -4 10 -36.5t10 -39.5v-124q0 -33 18 -91q20 -74 46 -75q49 0 141 -11q18 -3 18 -26t-43 -43q-29 -14 -51 -17q-68 -10 -201 -20q-8 0 -95 -8t-93 -8q-31 0 -68 14q-43 14 -49 37q-23 76 -22 102v385q0 6 5 49t5 49v123q0 -6 -2 56q-2 53 -2 82 q2 37 8 116q6 74 6 78v150l4 229q-8 72 -8 152q0 168 -70 194q-31 10 -178 27q-111 12 -110 41z" />
<glyph unicode="&#xdc;" horiz-adv-x="1984" d="M-111 1665q0 86 283 180q240 80 320 80q90 0 90 -59q0 -6 -4 -88q0 -20 -3 -166q-2 -102 0 -221q2 -131 7 -279q0 -61 32 -61q25 0 78 36q246 174 436 175q80 0 166 -27q68 -20 111 -45q18 -10 70 -45q78 -53 108 -109q23 -53 47 -108q16 -33 39 -97q20 -104 21 -215 q0 -303 -387 -499q-248 -125 -529 -166q-139 -20 -303 -21q-158 0 -192 23q-59 39 -62 213l-10 1489q0 63 -43 63q-8 0 -110.5 -44t-110.5 -44q-53 0 -54 35zM584 578q0 -80 4 -216q6 -141 7 -179t73 -54q41 -10 82 -10q16 0 112 16q41 2 115 10q88 14 211 74 q184 90 198 205q6 35 7 74q0 184 -88 327q-96 160 -246 160q-29 0 -58 -8q-68 -12 -192 -55q-45 -20 -117 -50q-23 -6 -53 -34q-37 -31 -43 -60q-12 -68 -12 -200z" />
<glyph unicode="&#xdd;" horiz-adv-x="2013" d="M-10 1649q0 147 280 217q172 43 330 43q12 0 105 4q61 2 108 -2q63 -6 139 -29q176 -51 211 -67q139 -63 262 -173q188 -164 269 -407q41 -127 41 -225q0 -23 -2 -63t-2 -60q0 -221 -129 -453q-139 -250 -349 -346q-59 -29 -116 -57q-72 -35 -115 -45q-123 -27 -285 -27 q-84 0 -169 20.5t-171 55.5q-31 12 -168 74q-49 20 -106 67q-68 57 -68 94q0 43 39 43t121 -34q96 -43 121 -50q266 -68 326 -67q205 0 391 129q209 145 235 358q12 90 21 139q0 20 -6 76q-4 33 -123 39q-160 10 -166 10l-471 7q-47 0 -121 -42t-90 -42q-29 0 -49 8 q-33 12 -107 61q-88 57 -88 101q0 45 70 69q51 16 106 17h473q8 0 69.5 7t70.5 7h327q41 0 56 6q33 18 28 86q-2 23 -49 119q-96 193 -270 305q-158 102 -320 102q-82 0 -193.5 -30.5t-160.5 -65.5q-39 -27 -68 -96q-23 -51 -63 -51q-49 0 -111.5 55.5t-62.5 112.5z" />
<glyph unicode="&#xde;" horiz-adv-x="3274" d="M-45 1792v27q262 102 344 102q70 0 109 -55q41 -121 55 -215q12 -104 24 -211q10 -94 15 -234q0 -109 20 -127q14 -12 113 -22q106 -8 246 -2q84 2 118 90q45 246 150 401q150 225 401 326q80 33 230 63q162 35 264 35q373 0 637 -319q254 -307 254 -709q0 -88 -19 -203 q-20 -125 -47 -176q-322 -602 -973 -602q-299 0 -512 145q-221 147 -325 437q-16 49 -53 141q-37 72 -74 72q-16 0 -48 -4t-46 -4q-53 0 -183 -17q-61 -10 -123 -20q-29 -20 -28 -160v-299q0 -164 -69.5 -213t-311.5 -49q-55 0 -74 35v417l41 889q6 137 -14 264 q-16 88 -31 119q-27 57 -90 78zM1362 1047q0 -68 43 -238q68 -264 227 -451q190 -219 436 -219q166 0 285 99q98 80 182 245q55 106 56 215v195q0 29 -2 43q-121 608 -480 797q-98 51 -186 51q-197 0 -338 -146q-119 -123 -180 -329q-12 -25 -29 -76q0 -37 -4 -109 q-10 -90 -10 -77z" />
<glyph unicode="&#xdf;" horiz-adv-x="2283" d="M-78 131q41 39 120 41t99 16q150 111 371 299q268 227 268 267q0 16 -164 137q-203 150 -305 264q-164 184 -164 354q0 147 82 265q94 137 254 137q238 0 467 -135q160 -96 307 -254q129 -135 123 -136q10 0 45 39q-10 123 -10 195t-4 84q-4 4 -1 16.5t9 57.5 q76 88 92 100q33 18 127 18q8 0 25.5 7.5t26 7.5t56.5 7t56 7q154 0 176 -59q-20 -27 -67 -43q-53 -18 -70 -35q-33 -29 -39 -98l6 -1225q2 -14 13 -152q8 -102 30 -188q4 -12 32 -54t28 -59q-41 -35 -201 -35q-289 0 -289 99v231q0 8 6.5 34t6.5 34v641q0 162 -230 389 q-244 238 -461 246q-113 4 -190 -117q-68 -102 -66 -203q4 -125 183 -282q88 -76 334 -242q178 -119 178 -156q0 -27 -172 -194q-182 -178 -353 -312q-211 -162 -297 -161q-74 0 -248 59t-190 88z" />
<glyph unicode="&#xe0;" horiz-adv-x="1550" d="M-14 180q0 29 272 361q45 49 117 133q4 6 160 178q12 12 12 37q0 88 -168 276q-12 12 -31.5 20.5t-83.5 14.5q-55 6 -82 29v22q18 12 45 15l119 6q6 0 47 2h45t43 -2h43q184 0 377 -371q37 -61 107 -186q59 -129 180 -385q106 -229 213 -260q12 -4 55 -33v-29 q-8 -6 -20 -14q-25 -2 -170 -2q-156 0 -170 2q-35 2 -90 67q-18 20 -54 70q-10 18 -22 41t-37 23q-39 0 -201 -105q-102 -68 -176 -86q-45 -12 -147 -12q-133 0 -224 26q-45 12 -102 64.5t-57 97.5zM276 272q0 -49 70 -92q61 -35 109 -35q76 0 188 41q31 10 109 54 q14 10 34 26q60 42 60 62q0 35 -139 303q-49 96 -80 100q-51 -39 -189 -201q-33 -39 -39 -51q-31 -41 -63 -82q-59 -86 -60 -125z" />
<glyph unicode="&#xe1;" horiz-adv-x="1449" d="M-74 1110q0 57 189 121q160 53 213 53q59 0 59 -41q0 -4 -2 -57q2 -12 2 -25q2 -20 14 -20q8 0 25 14q39 33 94 66q113 66 273 65q190 0 284 -104q0 -45 -18 -74q-72 -61 -144 -53q-49 43 -116 88q-74 16 -135 12q-92 -8 -250 -154q-23 -20 -31 -73q2 -88 4 -187 q2 -41 23 -41q16 0 51 25q164 117 291 117q53 0 110 -19q45 -14 74 -30q12 -6 47 -31q51 -35 69.5 -71t32.5 -73q12 -23 27 -63q14 -70 14 -145q0 -201 -258 -332q-166 -84 -352 -111q-92 -14 -201 -14q-106 0 -129 16q-41 25 -41 142l-6 991q0 43 -30 43q-4 0 -73 -30 t-75 -30q-35 0 -35 25zM389 322q4 -98 8 -199q0 -43 103 -43q12 0 75 10q27 2 76 6q59 10 142 49q123 62 133 138q2 25 2 49q0 123 -58 219q-63 104 -163 104q-20 0 -39 -4q-45 -8 -127 -37q-31 -14 -80 -32q-14 -4 -37 -24.5t-27 -39.5q-10 -57 -8 -196z" />
<glyph unicode="&#xe2;" horiz-adv-x="1449" d="M-74 1110q0 57 189 121q160 53 213 53q59 0 59 -41v-45q-2 -39 -2 -45l-2 -92q-2 -33 18 -33q10 0 117 86q121 96 170 124t115 28q164 0 241 -201q6 -16 7 -78v-59q-18 -45 -74 -109q-20 -25 -53 -63q-18 -20 -19 -23q0 -14 25 -22q80 -25 153 -138q25 -39 29 -59 q14 -69 14 -104q0 -201 -258 -332q-166 -84 -352 -111q-92 -14 -201 -14q-106 0 -131 16q-39 25 -39 142l-4 432q0 33 -3 110.5t-3 116.5q0 10 -4 45t-4 39q0 -23 4 172q2 14 8 45t6 35q0 39 -36 39q-4 0 -73 -30t-75 -30q-35 0 -35 25zM387 741q0 -6 3 -39.5t3 -50.5 q10 -18 39 -18q4 0 30.5 5t37.5 5q35 2 188 47q104 31 160 103q18 24 18 77q0 27 -10 60q-45 147 -168 147q-20 0 -47 -10q-47 -18 -49 -20q-27 -8 -109 -72q-96 -74 -96 -109v-125zM391 393q0 -6 2 -61.5t2 -59.5l2 -149q0 -43 103 -43q12 0 75 10q27 2 76 6q63 10 146 49 q127 62 129 138q0 115 -73 200.5t-185 85.5q-4 0 -53.5 -7t-73.5 -9q-39 -4 -73 -13.5t-40 -11.5q-27 -12 -31 -30q-6 -35 -6 -105z" />
<glyph unicode="&#xe3;" horiz-adv-x="1263" d="M-51 1243q16 41 119 41q4 0 50 -5t51 -5t16.5 -4t17.5 -4q57 0 71 -15q23 -33 48 -65q4 -31 4 -32v-26q0 -4 2 -32q12 18 34 18q6 0 76 45q80 53 97 62q125 66 280 65q234 0 338 -104q0 8 -20 -33q-80 -61 -158 -53q-55 33 -131 67q-70 14 -150 13q-74 -4 -176 -74 q-92 -61 -168 -150q-2 -8 -6 -6q-4 -162 -4 -268v-428q0 -4 4 -21.5t4 -23.5v-156q0 -66 -192 -65q-106 0 -133 24q0 10 18 39t20 35q14 59 21 127q6 90 8 100l4 817q-6 61 -61 80q-74 25 -84 37z" />
<glyph unicode="&#xe4;" horiz-adv-x="2058" d="M-31 25q2 33 4 63.5t33 58.5q39 37 94 43q8 2 121 3q37 0 60 40q53 94 184 355q324 662 467 661q41 0 109.5 -33.5t68.5 -64.5q0 -14 -43 -86q-45 -80 -47 -84l-4 -12q4 -2 0 -8l653 -789q31 -6 57 -6q14 0 35 2t31 2q43 0 94 -29q27 -14 30 -51t3 -72q9 -94 -57 -268 q-10 -27 -43 -31q-20 -4 -29 70q-10 98 -12 105q-18 47 -35 57q-33 20 -131 20l-1327 -8q-102 0 -123 -98q-6 -37 -2 -94q4 -66 4 -82q-14 -14 -35 -33h-25q-6 10 -36 57q-27 39 -27 47q0 2 -38 124t-34 141zM590 207q0 -25 31 -29q193 -8 383 -16q203 -8 387 -4q33 8 22 41 q-2 12 -16 39q-53 84 -152 239q-25 39 -139 176q-133 160 -160 160h-4q-20 0 -55 -47q-68 -90 -131 -217q-53 -115 -160 -324q-6 -10 -6 -18z" />
<glyph unicode="&#xe5;" horiz-adv-x="1415" d="M-6 604q0 90 39 205q53 164 176 272q84 72 176 115q23 10 141 45q109 31 222 31q125 0 243 -35q162 -47 162 -137q0 -39 -41 -76t-74 -37q-27 0 -43 35q-18 45 -45 63q-33 23 -107.5 43.5t-127.5 20.5q-109 0 -213 -68q-117 -76 -180 -202q-33 -66 -33 -80q-4 -61 55 -62 h219q4 0 45 -5t47 -5h316q117 0 116 -55q0 -29 -57 -68q-49 -33 -72 -41q-14 -6 -32 -6q-10 0 -59.5 28.5t-82.5 28.5l-313 -4q-4 -2 -111 -8q-80 -4 -81 -27q-4 -37 -5 -49q6 -33 15 -94q16 -139 164 -237q131 -86 254 -86q39 0 217 45q14 4 80 32q55 23 79 23q27 0 27 -29 q0 -25 -45 -63q-39 -31 -70 -45q-72 -33 -225 -86q-57 -14 -115 -15q-106 0 -190 21q-16 2 -154 67q-166 76 -250 246q-68 137 -67 299z" />
<glyph unicode="&#xe6;" horiz-adv-x="2365" d="M-43 -8q0 10 12 24q39 41 103.5 106.5t167.5 199.5q45 47 112 127q29 41 140 165q86 98 86 117q0 16 -76 76q-43 33 -86 65q-76 72 -189 199q-72 106 -67 143q14 20 92 37q70 14 119 15q39 0 75 -17q0 -2 2.5 -6t2.5 -10t-11.5 -27.5t-11.5 -27.5q0 -39 82 -168 q70 -111 98 -144q141 -156 246 -196q29 -12 43 -8q14 6 18 20v373q0 66 -10 92q-20 51 -86 63q-4 2 -12 11v18q41 16 67 16q92 0 99 -2q10 -2 42 2.5t44 4.5q41 0 61 -21q43 -41 51 -141q0 -76 3 -154v-53q-2 -23 -3 -19v-49q0 2 5 -78q0 -23 -2 -47q4 -29 22 -36 q14 -4 43 8q104 41 246 196q29 33 98 144q82 129 82 168q0 6 -11.5 27.5t-11.5 27.5t2.5 10t2.5 6q37 16 77 17q47 0 117 -15q78 -16 94 -37q4 -37 -67 -143q-25 -35 -86 -96l-103 -103q-45 -33 -88 -65q-76 -59 -75 -76q0 -18 86 -117q111 -125 141 -165q41 -45 110 -127 q51 -66 166 -197q35 -37 105 -109q12 -14 12 -24q0 -45 -137 -45q-94 0 -137 33q-66 53 -166 170q-129 164 -365 462q-6 6 -24 6q-14 0 -66 -28q-59 -35 -59 -62v-182v-31q-4 -211 16 -237q57 -63 57 -68q0 -29 -36 -28q8 0 -50 -5q-47 -4 -75 0q-45 2 -93 7q-55 6 -63 32 q-23 78 -23 209v305q0 25 -61 60q-53 29 -68 28q-18 0 -24 -6q-129 -170 -363 -462q-100 -117 -168 -170q-41 -33 -137 -33q-137 0 -137 45zM322 315v31v-31z" />
<glyph unicode="&#xe7;" horiz-adv-x="1449" d="M-35 170q0 20 55 104q61 92 97 93q14 0 78 -52q47 -37 174 -75q117 -39 178 -41q10 0 36.5 -4.5t30.5 -4.5q84 0 170 40t140 104q16 23 16 74q0 119 -164 157q-55 12 -258 21q-31 2 -47 6q-53 47 -53 98q0 53 51 90t113 31h16q131 47 139 49q37 10 70 41q45 39 41 78 q-6 49 -55 80q-86 57 -148.5 61t-91.5 4h-117q-57 -4 -114 -28q-102 -43 -103 -92q0 -37 23 -72h2l4 -14q2 -12 -8.5 -31t-24.5 -23t-27 -4q-70 0 -110 154q-10 31 -6 43q23 115 59 155q49 51 177 71t202 20q100 0 195 -37q82 -33 239 -127q6 -4 39 -58q39 -61 45 -96 q4 -14 4 -29q0 -96 -141 -176q23 -6 39 -12q256 -94 256 -246q0 -123 -137 -260q-53 -51 -187 -133q-123 -76 -207 -115q-27 -12 -45 -16q-113 -20 -231 -21q-23 0 -119 21q-8 2 -90 39q-111 49 -119 53q-86 45 -86 80z" />
<glyph unicode="&#xe8;" horiz-adv-x="1976" d="M-37 1180v30q205 70 260 70q57 0 90 -41q37 -98 44.5 -159.5t13.5 -123.5q12 -90 12 -331v-217q8 -45 43 -43q88 8 322.5 170.5t334.5 295.5q37 41 215 273q18 25 19 70q-4 23 -60 98q29 23 82 22q74 0 142 -20q61 -18 69 -37q88 -213 103 -621q-2 -127 6 -378 q6 -102 32.5 -146.5t26.5 -50.5q0 -23 -45 -37q-35 -10 -65 -10h-88q-37 0 -76 16q-47 23 -53 62q-12 51 -13 108q0 23 2 254q0 45 -10 184q-12 80 -37 80q-6 0 -16 -2q-53 -43 -131 -102q-135 -86 -484 -254q-72 -29 -204 -84q-90 -37 -115 -82q-2 -180 -287 -180 q-49 0 -65 29v276l41 592q6 80 6 98q0 160 -115 191z" />
<glyph unicode="&#xe9;" horiz-adv-x="1976" d="M-37 1180v30q205 70 260 70q57 0 90 -41q37 -98 44.5 -159.5t13.5 -123.5q12 -90 12 -331v-217q8 -45 43 -43q88 8 322.5 170.5t334.5 295.5q37 41 215 273q18 25 19 70q-4 23 -60 98q29 23 82 22q74 0 142 -20q61 -18 69 -37q88 -213 103 -621q-2 -127 6 -378 q6 -102 32.5 -146.5t26.5 -50.5q0 -23 -45 -37q-35 -10 -65 -10h-88q-37 0 -76 16q-47 23 -53 62q-12 51 -13 108q0 23 2 254q0 45 -10 184q-12 80 -37 80q-6 0 -16 -2q-53 -43 -131 -102q-135 -86 -484 -254q-72 -29 -204 -84q-90 -37 -115 -82q-2 -180 -287 -180 q-49 0 -65 29v276l41 592q6 80 6 98q0 160 -115 191zM385 1386q2 33 33 69t92 71t106 35q74 0 179 -19q88 -16 178 -33q18 -4 67 0q63 4 74.5 4t38.5 29t41 29l6 -10q-2 -53 -26 -82q-76 -94 -181 -95q-78 0 -186 17q-92 16 -186 31q-18 4 -66 0q-59 -4 -69.5 -4.5 t-30 -16.5t-27.5 -18q-16 -10 -27 -13h-10z" />
<glyph unicode="&#xea;" horiz-adv-x="1681" d="M-35 1241v19q39 16 88 16q47 0 97 -10q41 0 81 -2q63 -2 86 -25q45 -41 54 -131q0 -72 2 -143v-33q-2 2 -2 -68q0 -39 4 -119q-2 -27 -2 -55q4 -37 22 -45q12 -4 90 25q119 41 275 196q33 33 108 144q92 129 93 168q0 6 -13.5 27.5t-13.5 27.5t3 10t3 6q41 16 84 17 q53 0 131 -15q88 -16 105 -37q4 -37 -76 -143q-25 -35 -94 -96q-57 -51 -115 -103q-49 -33 -96 -65q-84 -59 -84 -76q0 -18 94 -117q125 -125 158 -165q45 -45 122 -127q57 -66 185 -197q39 -37 116 -109q15 -14 15 -24q0 -45 -154 -45q-106 0 -153 33q-74 53 -185 170 q-143 164 -405 462q-4 6 -27 6q-18 0 -94 -28q-86 -35 -86 -62v-182q0 -113 -2 -129q-6 -94 -41 -160q-14 -25 -74 -45q-43 -12 -84 -24q-88 -29 -143 -29q-37 0 -37 29q0 2 78 90q37 43 37 147v871q0 113 -138 135q-4 2 -12 10z" />
<glyph unicode="&#xeb;" horiz-adv-x="1724" d="M-43 141q10 12 35 13l4 -2h6q14 0 43 2h41q12 0 20 4q20 39 50 94q16 35 149 364q74 184 184 400q154 303 211 303q33 0 125.5 -67.5t92.5 -104.5q0 -12 -23 -43q-39 -49 -49 -65.5t-6 -28.5l714 -983v-31q-43 -18 -98 -19q-145 0 -256 56q0 4 4 43q4 31 0 47 q-18 68 -43 115q-80 147 -125 241q-25 49 -141 223q-125 186 -141 183q-29 -6 -121 -193q-74 -147 -113 -250q-59 -147 -188 -401q-6 -14 -38 -34.5t-50 -20.5q-47 0 -80 14q-14 8 -80 53q-45 35 -127 88z" />
<glyph unicode="&#xec;" horiz-adv-x="2856" d="M-43 141q10 12 35 13l4 -2h6q14 0 43 2h41q25 0 37 24q68 123 213 410q324 662 467 661q41 0 108.5 -33.5t67.5 -64.5q0 -12 -44 -85t-44 -85q0 -39 221 -264q182 -186 238 -234q29 12 55 68q16 41 35 82q86 193 172 387q139 299 194 299q33 0 115 -66.5t82 -105.5 q0 -12 -45 -78q-59 -88 -72 -108l774 -934v-31q-43 -18 -98 -19q-145 0 -256 56q0 4 4 43q4 31 0 47q-18 68 -43 115q-53 84 -151 239q-25 39 -140 176q-133 160 -159 160q-45 0 -191 -371q-66 -166 -188 -401q-14 -29 -68 -29q-43 0 -96 36t-53 75q0 10 30.5 62.5 t30.5 66.5q0 61 -229 311q-221 242 -246 242q-33 0 -96 -123q-33 -68 -64 -133q-72 -137 -141 -275q-92 -172 -187 -268q-20 -20 -96 -20q-45 0 -69 14q-35 27 -70 53q-45 35 -127 88z" />
<glyph unicode="&#xed;" horiz-adv-x="1937" d="M-37 1180v30q205 70 260 70q57 0 90 -41q37 -98 44.5 -159.5t14.5 -123t9 -153.5q10 -66 18.5 -76t67.5 -12q78 -4 149 -4q358 0 637 104q41 16 52 92q-16 164 -29 267q-4 23 -59 98q29 23 81 22q74 0 142 -20q61 -18 69 -37q88 -213 103 -621q-2 -127 6 -378 q6 -102 32.5 -146.5t26.5 -50.5q0 -23 -45 -37q-35 -10 -65 -10h-88q-37 0 -76 16q-47 23 -53 62q-12 51 -13 108q0 23 2 254q0 43 -8 176q-12 37 -43 27q-303 -100 -338 -111q-147 -37 -467 -67q-63 -6 -78.5 -19.5t-21.5 -68.5v-197q0 -180 -287 -180q-49 0 -65 29v276 l41 592q6 80 6 98q0 160 -115 191z" />
<glyph unicode="&#xee;" horiz-adv-x="1710" d="M-23 614q0 106 36 223t93 193q113 152 300 217q61 23 172 43q123 23 198 23q279 0 473.5 -208t194.5 -476q0 -170 -51 -252q-240 -403 -727 -404q-467 0 -627 387q-18 37 -45 111q-16 72 -17 143zM223 698q0 -63 17 -120q8 -16 18 -43q47 -203 205 -336 q147 -125 309 -125q229 0 367 239q35 59 41 101q2 14 2 106q0 98 -2 107q-55 197 -117 305q-94 166 -254 239q-78 37 -147 37q-129 0 -236 -78q-123 -90 -168 -251q-10 -20 -22 -54q0 -27 -5 -73q-8 -68 -8 -54z" />
<glyph unicode="&#xef;" horiz-adv-x="1894" d="M-100 1010q0 37 135 100q82 37 246 117q84 43 104 43q59 0 55 -53l-6 -248q4 -4 10 -41q2 -23 25 -23q12 0 125 92q137 115 252 174q176 94 342 95q219 0 323 -207q78 -152 78 -357q0 -113 -18 -184q-8 -25 -78 -203q-25 -33 -70 -102q-102 -172 -270 -311 q-72 -61 -119 -58q-8 6 -8 19q0 33 70 114q238 281 237 574q0 145 -57 305q-84 227 -242 227q-129 0 -346 -151q-225 -158 -248 -283q0 -211 4 -215q2 -14 -4 -110q-4 -104 -4 -103q0 -72 13 -106q10 -12 28 -43q2 -6 2 -27q-25 -20 -155 -74q-123 -49 -138 -49 q-25 0 -47 16.5t-22 43.5l12 518q0 172 6 254l-2 180q0 2 -4 59q-4 39 -25 41q-4 0 -59 -27.5t-90 -27.5q-55 0 -55 31z" />
<glyph unicode="&#xf0;" horiz-adv-x="1959" d="M-72 1133q0 31 47 43q29 4 60 10q55 14 162 41q59 16 118 35q82 23 144 22q96 0 96 -102q0 -12 -2 -39t-2 -39q0 -68 53 -68q14 0 98 54q43 29 86 55q59 33 121 63q84 45 135 56q115 27 230 26q84 0 144.5 -20.5t176.5 -163.5q35 -41 70 -156q31 -104 31 -151 q0 23 -15 -80q-37 -240 -329 -467q-279 -215 -498 -215q-45 0 -102 26q-70 31 -70 74t66 80q53 33 75 33q8 0 76 -24.5t76 -24.5q23 0 73 22.5t76 46.5q133 115 216 269.5t83 277.5q0 90 -51 168q-59 88 -159.5 116.5t-118.5 28.5q-96 0 -311.5 -126.5t-227.5 -190.5 q-6 -43 -6 -115q0 -8 6 -72.5t6 -70.5v-506v-24q2 -16 2 -25v-444q0 -92 -133 -168q-109 -61 -172 -62q-57 0 -57 33q0 8 20 31q31 33 37 41q12 18 12 51q4 1051 -10 1243q-4 47 -4 166l-2 160q0 27 -61 45l-140 -25q-125 20 -125 62z" />
<glyph unicode="&#xf1;" horiz-adv-x="1441" d="M14 403q0 106 41 232q98 307 379 479q238 147 504 148q190 -1 190 -132q0 -68 -49 -124t-123 -56q-39 0 -38 21q0 4 26 28q37 29 51 45q8 10 9 21q0 37 -60 61q-47 16 -90 17q-2 0 -117 -21q-279 -53 -403 -295q-14 -27 -26.5 -58.5t-26.5 -72.5q-25 -94 -25 -141 q0 -117 57 -221q68 -123 195 -180q74 -31 117 -31q4 0 33.5 -4t33.5 -4q29 0 103 12q63 12 73 16q41 18 82 37q70 31 86 31q39 0 39 -33q0 -29 -96 -78q-145 -78 -268 -96q-129 -20 -193 -20q-51 0 -141 18q-197 37 -289 158q-27 35 -50.5 113.5t-23.5 129.5z" />
<glyph unicode="&#xf2;" horiz-adv-x="1546" d="M-6 1098q0 20 59 53q43 25 70 35q121 43 190.5 52t206.5 26l676 -4q86 10 121 10q51 0 51 -31q0 -20 -32.5 -45t-55.5 -29q-90 -16 -211 -20q-10 -2 -46 -5t-42 -3h-139q10 0 -78 -21q-12 -2 -25.5 -15.5t-13.5 -96.5v-764q0 -16 33 -29q20 -6 40.5 -13.5t20.5 -25.5 q0 -14 -55 -59q-139 -113 -232 -113q-37 0 -40 25q-23 152 -27 243q-6 119 -6 209v461q0 -4 10 51q6 43 -2 72q-10 41 -55 51q-12 2 -74 2q-78 0 -246 -24q-4 0 -22.5 -6.5t-34.5 -6.5q-41 0 -41 21z" />
<glyph unicode="&#xf3;" horiz-adv-x="1861" d="M-59 1114q0 47 100 92q51 23 117 39q43 16 125 43q10 2 28 2q-4 0 29 0q18 0 49 -26q49 -45 143 -226q86 -168 265 -506q25 -47 53 -47q23 0 77 72t122 209q82 168 112 217q190 313 391 313q100 0 95 -47q-2 -25 -52 -53q-36 -20 -73 -43q-61 -43 -160 -221 q-184 -334 -352 -662q-12 -43 -49 -129q-49 -92 -193 -295q-49 -66 -141 -190q-35 -39 -102.5 -119t-67.5 -125q-2 -47 33.5 -65.5t72.5 -34.5q14 -8 15 -21q0 -55 -146 -71q-47 -6 -162 -6h-192q-18 0 -42 17t-24 34q0 27 21 49q139 150 280 301q166 178 267 313 q70 94 71 144q0 49 -82 198q-45 74 -98 172q-88 193 -256 525q-18 39 -63 98q-43 33 -109 16q-16 -4 -45 -10q-20 -4 -35 4q-23 12 -22 39z" />
<glyph unicode="&#xf4;" horiz-adv-x="2549" d="M-23 737q0 47 29 152q33 115 64 155q57 80 69 93q47 55 90 71q53 20 129 21q102 0 207 -27q47 -10 125 -53q57 -33 113 -64q45 -25 115 -49q41 -2 40 47q0 23 -9 51.5t-33.5 62.5t-26.5 48q10 14 49 25.5t72 9.5q117 -8 188 -49q6 -4 24.5 -69.5t26.5 -74.5 q12 -25 27 -49q2 -4 31 -2q16 0 114 49q57 31 115 64q78 43 125 53q104 27 205 27q78 0 131 -20.5t160 -164.5q31 -41 61 -155q29 -104 29 -152q0 23 -15 -80q-33 -238 -286 -456q-242 -205 -439 -205q-41 0 -92 27q-61 31 -61 73q0 43 57 80q49 33 70 33q6 0 67.5 -24.5 t67.5 -24.5q20 0 65 22.5t70 46.5q119 113 186 260q66 141 66 267q0 90 -47 168q-53 88 -143.5 116.5t-106.5 28.5q-94 0 -242 -82q-154 -84 -188 -166q-12 -72 -14 -96q6 74 12 -1241q0 -6 33 -53q4 -8 34 -41q21 -23 21 -31q0 -33 -57 -33q-70 0 -191 58q-152 72 -151 161 v445q0 8 2 26v25l8 657q0 74 -6 115q-10 63 -184.5 159.5t-262.5 96.5q-16 0 -106 -28.5t-144 -116.5q-47 -78 -47 -168q0 -125 64 -267q70 -147 188 -260q25 -25 69 -47t64 -22q6 0 67.5 24.5t67.5 24.5q23 0 70 -33q59 -37 59 -80t-61 -73q-53 -27 -92 -27 q-199 0 -440 205q-254 219 -287 456q-14 102 -15 80z" />
<glyph unicode="&#xf5;" horiz-adv-x="1501" d="M-43 1124q0 33 166 82q145 43 174 43q82 0 195 -153q76 -104 200 -330q172 211 211 299q4 43 31 117q10 14 88 28q98 18 106 19q82 0 82 -43q0 -27 -166 -195q-23 -31 -71 -88q-70 -74 -230 -231l13 -21q41 -76 65 -114q39 -59 49 -82q16 -33 45 -74q8 -8 29 -51 q12 -29 19 -39q41 -61 77 -103q23 -27 33 -41q37 -55 98 -53q35 2 41 0q18 -2 31 -16q21 -22 -10 -45q-16 -8 -47 -25q-47 -25 -158 -24q-47 -2 -104 2q-70 0 -115 53q-57 66 -72 86q-39 51 -61 94q-45 72 -141 227q-166 -209 -205 -292q-4 -45 -31 -119q-10 -14 -88 -29 q-98 -18 -107 -18q-82 0 -81 45q0 25 165 194q23 29 72 88q70 72 223 224q-111 199 -147 258q-86 145 -164 247q-27 37 -55 48q-37 2 -94 4q-66 4 -66 28z" />
<glyph unicode="&#xf6;" horiz-adv-x="2015" d="M-18 586q0 113 51 223q41 86 145 233q2 8 12 31q2 8 3 14q0 27 -76 13q-16 -2 -19 14l6 19q20 18 82 41q76 29 220 61q123 27 141 27q53 0 53 -29q0 -23 -27 -39q-160 -86 -211 -256q-66 -211 -65 -326q0 -227 117 -360q127 -143 360 -143q104 0 227 24q174 33 185 90 q4 23 2 76q-4 70 -4 57q0 8 -8.5 143.5t-8.5 141.5l-4 139q0 4 -6 58q-4 70 -8 139q-10 90 -31 137q-12 25 -57 25q-6 0 -30.5 -5.5t-31.5 -5.5q-51 0 -51 29q0 10 13.5 25.5t25.5 19.5q61 16 178 37q100 18 117 18q84 0 96 -104q41 -346 62 -629q10 -92 28 -305 q43 -78 82 -78q25 0 82 27q53 35 129 82q8 4 17 4q39 0 30 -47q-4 -23 -24 -51q-31 -31 -78 -109q-6 -12 -12 -39q0 -51 24 -96q6 -6 19 -29q14 -31 18 -55q4 -16 8 -35.5t4 -40.5q1 -127 -204 -201q-27 -8 -43 -8q-18 0 -19 13q0 20 31 49q45 43 45 108q0 20 -10 39 q-2 18 -23 55q-29 29 -37 48q-20 37 -8 92q6 18 15.5 38.5t3.5 28.5q-6 4 -29 2q-160 -51 -199 -51q-78 0 -94 115q-2 8 -14 6q-25 -4 -31 -4t-51 -16q-51 -20 -74 -25q-236 -55 -342 -55q-6 0 -25.5 -3t-27.5 -3q-168 0 -316 69q-156 74 -233 205q-100 168 -100 332z" />
<glyph unicode="&#xf7;" horiz-adv-x="1662" d="M20 770q0 78 43 162q27 55 78 123q43 57 43 65t-10 8q-8 0 -35 -4l-2 11q0 -10 -2 -11q-23 0 -24 23l8 16q33 27 168 62t186 35q53 0 53 -31q0 -20 -28 -35q-123 -70 -158 -176q-51 -147 -51 -230q0 -166 96 -257t266 -91q248 0 312 113q0 39 8 215q4 129 4 213 q0 174 -72 174q-12 0 -32.5 -2t-30.5 -2q-12 0 -29.5 10t-17.5 23q0 29 43 41q186 49 294 49q41 0 68 -37q20 -31 23 -74q6 -162 6 -684q0 -338 13 -367.5t50 -37.5q31 -6 64 -15l-2 -18q-29 -25 -154 -51q-115 -25 -164 -25q-61 0 -80 66q-10 33 -10 112q0 105 4 222 q2 25 -8 30q-8 4 -31 -4q-57 -23 -186 -43q-106 -18 -184 -18q-209 0 -357 114q-162 125 -162 326z" />
<glyph unicode="&#xf8;" horiz-adv-x="2455" d="M-18 586q0 115 51 223q47 96 155 233q4 8 13 31q4 8 4 14q0 27 -74 13q-16 -2 -16 14l4 19q20 18 78 41q72 29 209 61q117 27 135 27q51 0 51 -29q0 -23 -27 -39q-152 -86 -200 -256l-58 -180q-25 -82 -24 -146q0 -227 110 -360q121 -143 342 -143q55 0 150 16 q27 6 26 16q0 8 -10 25q-39 41 -65 88q-94 168 -95 332q0 106 60 223q31 63 147 233q2 8 13 31q2 8 2 14q0 27 -74 13q-14 -2 -17 14l7 19q20 18 77 41q72 29 209 61q117 27 133 27q51 0 52 -29q0 -23 -27 -39q-150 -86 -201 -256q-61 -211 -61 -326q0 -231 100 -360 q113 -143 334 -143q78 0 156 24q104 31 114 90q4 23 2 76q-4 70 -4 57q0 8 -8 143.5t-8 141.5l-4 139q0 4 -4 58q-4 70 -10 139q-8 90 -29 137q-12 25 -53 25q-6 0 -30 -5.5t-30 -5.5q-47 0 -47 29q0 10 12.5 25.5t24.5 19.5q59 16 168 37q96 18 110 18q82 0 93 -104 q39 -346 59 -629q10 -92 27 -305q4 -33 18 -90q14 -29 53 -35l58 -8v-18q-18 -20 -37 -27q-229 -76 -262 -76q-74 0 -88 115q-2 8 -15 6q-25 -4 -30 -4t-35 -14q-37 -18 -62 -27q-45 -16 -88 -31.5t-116 -23.5q-45 -6 -72 -6q-166 0 -309 75q-25 -2 -74 -14 q-223 -55 -326 -55q-4 0 -23.5 -3t-27.5 -3q-160 0 -297 69q-150 74 -223 205q-96 168 -96 332z" />
<glyph unicode="&#xf9;" horiz-adv-x="2590" d="M-18 586q0 115 49 219q43 90 157 237q4 8 13 31q4 8 4 14q0 27 -74 13q-16 -2 -16 14l4 19q20 18 78 41q72 29 209 61q117 27 135 27q51 0 51 -29q0 -23 -27 -39q-152 -86 -200 -256l-58 -180q-25 -82 -24 -146q0 -227 110 -360q121 -143 342 -143q55 0 150 16 q27 6 26 16q0 8 -10 25q-39 41 -65 88q-53 92 -68 178q-6 45 -6 154q0 106 59 223q31 63 148 233q2 8 12 31q2 8 2 14q0 27 -74 13q-14 -2 -16 14l6 19q20 18 78 41q72 29 209 61q117 27 133 27q51 0 51 -29q0 -23 -27 -39q-150 -86 -200 -256q-61 -211 -62 -326 q0 -504 414 -503q78 0 156 24q104 31 114 90q4 23 2 76q-4 70 -4 57q0 8 -8 143.5t-8 141.5l-4 139q0 4 -4 58q-4 70 -10 139q-8 90 -29 137q-12 25 -53 25q-6 0 -30 -5.5t-30 -5.5q-47 0 -47 29q0 10 12.5 25.5t24.5 19.5q59 16 168 37q96 18 110 18q82 0 93 -104 q39 -346 59 -629q11 -92 27 -305q43 -78 88 -78q27 0 84 27q53 35 129 82q8 4 16 4q41 0 31 -47q-4 -23 -25 -51q-29 -31 -78 -109q-6 -12 -10 -39q-2 -51 23 -96q6 -6 18 -29q16 -31 21 -55q2 -16 6 -35.5t4 -40.5q0 -127 -205 -201q-27 -8 -43 -8q-18 0 -18 13q0 20 30 49 q45 43 45 108q0 20 -6 39t-26 55q-27 29 -35 48q-23 37 -8 92q4 18 14 38.5t2 28.5q-6 4 -27 2q-76 -27 -200 -51q-74 -2 -88 115q-2 8 -15 6q-25 -4 -28 -4q12 0 -99 -41q-41 -18 -78.5 -34.5t-117.5 -24.5q-10 -2 -80 -2q-166 0 -309 75q-25 -2 -74 -14q-223 -55 -326 -55 q-4 0 -23.5 -3t-27.5 -3q-160 0 -297 69q-150 74 -223 205q-96 168 -96 332z" />
<glyph unicode="&#xfa;" horiz-adv-x="1566" d="M-12 1235q0 14 12 16q162 18 293 19q53 0 116.5 -3t82.5 -3q35 0 49 -41q8 -25 8 -58q-2 -200 -2 -237q2 -88 4 -187q2 -41 22 -41q16 0 52 25q164 117 290 117q53 0 111 -19q45 -14 74 -30q12 -6 47 -31q51 -35 69.5 -71t32.5 -73q12 -23 27 -63q14 -70 14 -145 q0 -201 -258 -332q-166 -84 -352 -111q-92 -14 -201 -14q-106 0 -129 16q-41 25 -41 142l-6 888q0 49 -14 105q-12 47 -60 61q-133 39 -204 39q-37 0 -37 31zM553 322q4 -98 8 -199q0 -43 103 -43q12 0 75 10q27 2 76 6q59 10 141 49q124 62 134 138q2 25 2 49 q0 123 -58 219q-63 104 -164 104q-20 0 -39 -4q-45 -8 -126 -37q-31 -14 -80 -32q-14 -4 -37 -24.5t-27 -39.5q-10 -57 -8 -196z" />
<glyph unicode="&#xfb;" horiz-adv-x="1908" d="M-74 1110q0 57 189 121q160 53 213 53q59 0 59 -41q0 -4 -2 -57q0 -14 -2 -111q-2 -69 0 -147q2 -88 4 -187q2 -41 23 -41q16 0 51 25q164 117 291 117q53 0 110 -19q45 -14 74 -30q12 -6 47 -31q51 -35 69.5 -71t32.5 -73q12 -23 27 -63q14 -70 14 -145 q0 -201 -258 -332q-166 -84 -352 -111q-92 -14 -201 -14q-106 0 -129 16q-41 25 -41 142l-6 991q0 43 -30 43q-4 0 -73 -30t-75 -30q-35 0 -35 25zM389 322q4 -98 8 -199q0 -43 103 -43q12 0 75 10q27 2 76 6q59 10 142 49q123 62 133 138q2 25 2 49q0 123 -58 219 q-63 104 -163 104q-20 0 -39 -4q-45 -8 -127 -37q-31 -14 -80 -32q-14 -4 -37 -24.5t-27 -39.5q-10 -57 -8 -196zM1014 1214q0 27 76 33q236 20 276 21q35 0 80 -17q55 -18 55 -47v-381q0 2 0 -63q-2 -66 -2 -94q0 -12 -2 -38t-2 -337q0 -2 7 -24.5t7 -26.5v-84 q0 -20 11 -60q14 -47 30 -49q33 -2 97 -8q10 -2 10 -16q0 -33 -62 -41q-45 -6 -135 -13q-6 0 -63.5 -6t-61.5 -6q-68 0 -78 35q-14 49 -14 69v256q0 4 3 33t3 31v82q0 -2 -2 37q-2 37 0 55q0 27 4 77t4 52v102l5 152q-6 47 -7 102q0 111 -47 129q-20 6 -119 19q-74 8 -73 26 z" />
<glyph unicode="&#xfc;" horiz-adv-x="1396" d="M-74 1110q0 57 189 121q160 53 213 53q59 0 59 -41q0 -4 -2 -57q0 -14 -2 -111q-2 -69 0 -147q2 -88 4 -187q2 -41 23 -41q16 0 51 25q164 117 291 117q53 0 110 -19q45 -14 74 -30q12 -6 47 -31q51 -35 69.5 -71t32.5 -73q12 -23 27 -63q14 -70 14 -145 q0 -201 -258 -332q-166 -84 -352 -111q-92 -14 -201 -14q-106 0 -129 16q-41 25 -41 142l-6 991q0 43 -30 43q-4 0 -73 -30t-75 -30q-35 0 -35 25zM389 322q4 -98 8 -199q0 -43 103 -43q12 0 75 10q27 2 76 6q59 10 142 49q123 62 133 138q2 25 2 49q0 123 -58 219 q-63 104 -163 104q-20 0 -39 -4q-45 -8 -127 -37q-31 -14 -80 -32q-14 -4 -37 -24.5t-27 -39.5q-10 -57 -8 -196z" />
<glyph unicode="&#xfd;" horiz-adv-x="1427" d="M-6 1104q0 92 164 139q119 37 243 37q8 0 72 2q41 2 72 -2q43 -4 92 -18q119 -35 143 -45q92 -43 176 -115q125 -111 179 -275q27 -80 28 -141q-4 127 -4 -92q0 -147 -86 -303q-94 -168 -233.5 -232.5t-155.5 -66.5q-82 -20 -190 -21q-57 0 -115 15q-154 53 -225 86 q-33 14 -70 47q-47 37 -47 63q0 29 26 29q25 0 80 -25q66 -29 82 -32q178 -45 219 -45q135 0 263 86q139 98 155 239q8 61 15 94q0 12 -5 50q-2 25 -81 28q-106 6 -111 6l-315 4q-33 0 -82.5 -28.5t-59.5 -28.5q-20 0 -35 6q-20 8 -69 41q-59 39 -60 68q0 57 117 57h318 q6 0 47 5t47 5h219q59 0 55 62q0 14 -33 80q-66 129 -182 209q-111 74 -217 73q-53 0 -128 -20.5t-105.5 -42t-46.5 -70.5q-12 -41 -39 -41q-35 0 -76 38t-41 75z" />
<glyph unicode="&#xfe;" horiz-adv-x="2224" d="M-31 1196v16q176 68 232 68q45 0 71 -37q29 -86 54 -282q6 -63 8 -156q0 -74 14 -86q8 -8 77 -14.5t163 -2.5q55 2 78 62q31 164 100 266q100 152 268 217q53 23 152 43q109 23 176 23q248 0 426 -213q170 -205 170 -471q0 -170 -45 -254q-215 -401 -647 -402 q-418 0 -559 387q-15 47 -56 127q-14 20 -63 13l-80 -2q-31 -2 -70 -11q-45 -10 -88 -18q-14 -10 -14 -100v-201q0 -109 -46 -141.5t-208 -32.5q-37 0 -49 22v279l28 592q4 92 -12 178q-10 57 -18 78q-18 37 -62 53zM907 698q0 -47 29 -159q45 -176 151 -299 q127 -147 291 -148q195 0 314 230q35 72 34 143v129v31q-82 406 -321 530q-63 35 -123 35q-250 0 -346 -318q-8 -16 -18 -51q0 -23 -3 -71q-8 -59 -8 -52z" />
<glyph unicode="&#xff;" horiz-adv-x="1570" d="M-51 88q27 27 80 28t65 11q119 86 252 197q184 150 184 174q0 12 -112 94q-137 102 -207 180q-113 125 -113 240q0 98 56 176q63 92 170 92q160 0 313 -74q106 -53 207 -139q39 -39 80 -76q27 -2 30 25q-6 82 -6 119q-2 23 -2 26q2 0 6 31q51 61 56 63q16 12 82 23 q84 12 116 12q104 0 119 -39q-8 -12 -70 -39q-41 -18 -49 -79l6 -822q0 -10 9 -100q4 -70 20 -127q2 -8 20.5 -37t18.5 -39q-29 -25 -135 -24q-193 0 -193 65v158q0 4 4.5 21.5t4.5 23.5v428q0 109 -154 260q-164 162 -309 166q-76 2 -127 -78q-45 -70 -43 -137 q0 -84 123 -191q59 -51 227 -163q121 -82 121 -107q0 -35 -232 -233q-244 -207 -325 -207q-49 0 -166 40t-127 58z" />
<glyph unicode="&#x178;" horiz-adv-x="2699" />
<glyph unicode="&#x2000;" horiz-adv-x="1497" />
<glyph unicode="&#x2001;" horiz-adv-x="2994" />
<glyph unicode="&#x2002;" horiz-adv-x="1497" />
<glyph unicode="&#x2003;" horiz-adv-x="2994" />
<glyph unicode="&#x2004;" horiz-adv-x="998" />
<glyph unicode="&#x2005;" horiz-adv-x="748" />
<glyph unicode="&#x2006;" horiz-adv-x="499" />
<glyph unicode="&#x2007;" horiz-adv-x="499" />
<glyph unicode="&#x2008;" horiz-adv-x="374" />
<glyph unicode="&#x2009;" horiz-adv-x="598" />
<glyph unicode="&#x200a;" horiz-adv-x="166" />
<glyph unicode="&#x2010;" horiz-adv-x="1134" d="M47 698l8 11q14 0 44 -16.5t48 -16.5l115 16q98 14 197 31q119 16 198 16q102 0 185 -82q16 -10 32 -41l-6 -6h-10q-12 2 -31 11q-43 14 -65 14q18 0 -109 -17q-104 -14 -207 -28q-123 -16 -208 -17q-96 0 -162 68q-27 31 -29 57z" />
<glyph unicode="&#x2011;" horiz-adv-x="1134" d="M47 698l8 11q14 0 44 -16.5t48 -16.5l115 16q98 14 197 31q119 16 198 16q102 0 185 -82q16 -10 32 -41l-6 -6h-10q-12 2 -31 11q-43 14 -65 14q18 0 -109 -17q-104 -14 -207 -28q-123 -16 -208 -17q-96 0 -162 68q-27 31 -29 57z" />
<glyph unicode="&#x2012;" horiz-adv-x="1134" d="M47 698l8 11q14 0 44 -16.5t48 -16.5l115 16q98 14 197 31q119 16 198 16q102 0 185 -82q16 -10 32 -41l-6 -6h-10q-12 2 -31 11q-43 14 -65 14q18 0 -109 -17q-104 -14 -207 -28q-123 -16 -208 -17q-96 0 -162 68q-27 31 -29 57z" />
<glyph unicode="&#x2013;" horiz-adv-x="1331" d="M47 698l10 11q17 0 54.5 -16.5t59.5 -16.5l142 16q122 14 244 31q147 16 245 16q127 0 229 -82q20 -10 40 -41l-7 -6h-13q-15 2 -38 11q-53 14 -81 14q23 0 -135 -17l-256 -28q-152 -16 -258 -17q-118 0 -200 68q-34 31 -36 57z" />
<glyph unicode="&#x2014;" horiz-adv-x="2355" d="M47 698l20 11q34 0 108.5 -16.5t119.5 -16.5l284 16q243 14 488 31q295 16 491 16q252 0 458 -82q39 -10 79 -41l-15 -6h-25q-29 2 -76 11q-107 14 -161 14q44 0 -270 -17q-258 -14 -513 -28q-305 -16 -515 -17q-238 0 -401 68q-67 31 -72 57z" />
<glyph unicode="&#x2018;" d="M57 1042q0 195 121 240q39 14 43 14h23v-16q0 -6 -11 -31q-6 -16 -6 -131q0 -18 6 -31q47 -86 48 -131q0 -37 -30 -62.5t-69 -25.5q-125 0 -125 174z" />
<glyph unicode="&#x2019;" d="M59 1210q0 37 30 62.5t69 25.5q125 0 125 -174q0 -195 -121 -239q-39 -14 -43 -15h-23v17q0 6 10 31q6 16 7 131q0 18 -7 30q-47 86 -47 131z" />
<glyph unicode="&#x201a;" d="M59 119q0 37 30 62.5t69 25.5q125 0 125 -174q0 -195 -121 -240q-39 -14 -43 -14h-23v16q0 6 10 31q6 16 7 131q0 18 -7 31q-47 86 -47 131z" />
<glyph unicode="&#x201c;" horiz-adv-x="825" d="M59 1042q0 195 123 240q37 14 43 14h21v-16q0 -6 -8 -31q-8 -16 -9 -131q0 -18 9 -31q47 -86 47 -131q0 -37 -30 -62.5t-71 -25.5q-125 0 -125 174zM346 1042q0 195 123 240q37 14 43 14h20v-16q0 -6 -8 -31q-8 -16 -8 -131q0 -18 8 -31q47 -86 47 -131 q0 -37 -29.5 -62.5t-70.5 -25.5q-125 0 -125 174z" />
<glyph unicode="&#x201d;" horiz-adv-x="825" d="M59 1210q0 37 30 62.5t71 25.5q125 0 125 -174q0 -195 -123 -239q-37 -14 -43 -15h-21v17q0 6 8 31q8 16 9 131q0 18 -9 30q-47 86 -47 131zM346 1210q0 37 30 62.5t70 25.5q125 0 125 -174q0 -195 -122 -239q-37 -14 -43 -15h-21v17q0 6 8 31q8 16 8 131q0 18 -8 30 q-47 86 -47 131z" />
<glyph unicode="&#x201e;" horiz-adv-x="825" d="M59 162q0 37 30 62.5t71 25.5q125 0 125 -174q0 -195 -123 -240q-37 -14 -43 -14h-21v16q0 6 8 31q8 16 9 131q0 18 -9 31q-47 86 -47 131zM346 162q0 37 30 62.5t70 25.5q125 0 125 -174q0 -195 -122 -240q-37 -14 -43 -14h-21v16q0 6 8 31q8 16 8 131q0 18 -8 31 q-47 86 -47 131z" />
<glyph unicode="&#x2022;" horiz-adv-x="1024" d="M223 686q-4 63 32 104t81 64q53 27 119 39q78 -4 119.5 -26.5t61 -54.5t24 -66.5t6.5 -59.5q2 -41 -4.5 -79t-30 -68.5t-66 -53t-110.5 -30.5q-49 6 -90 15t-72 33.5t-49.5 67.5t-20.5 115z" />
<glyph unicode="&#x202f;" horiz-adv-x="598" />
<glyph unicode="&#x2039;" horiz-adv-x="2777" d="M-37 1180v30q205 70 260 70q57 0 90 -41q88 -123 297 -408q100 -131 369 -309q260 -172 350 -178q51 -4 51 90q0 240 -63 740q-4 23 -60 98q29 23 82 22q74 0 142 -20q61 -18 69 -37q88 -213 103 -621q-2 -127 6 -378q6 -102 32.5 -146.5t26.5 -50.5q0 -23 -45 -37 q-35 -10 -65 -10h-88q-37 0 -76 16q-47 23 -53 62q2 39 -13 108q-14 27 -78 47q-51 14 -102 29q-72 27 -207 84q-145 70 -213 104q-137 72 -229 129q-53 49 -131 103q-35 2 -35 -51v-451q0 -180 -287 -180q-49 0 -65 29v276l41 592q0 14 2 46t2 50q0 162 -113 193zM1829 106 l6 11q12 -2 35.5 -15.5t38.5 -13.5l92 14q276 39 321 39q82 0 148 -65q15 -10 29 -35l-7 -4l-8 -2q-8 2 -24 10q-35 10 -54 10q16 0 -88 -12q-297 -37 -336 -37q-78 0 -131 55q-23 25 -22 45zM1874 528q0 109 49 185q41 66 110.5 95.5t137.5 29.5q104 0 177 -92.5t73 -210.5 q-1 -74 -19 -113q-90 -176 -270 -176q-172 0 -244 192q-4 16 -6 27q-8 33 -8 63zM1974 565q0 -39 11 -61l2 -4q35 -94 61 -129q49 -72 123 -72q80 0 129 100q14 31 14 88v10.5v12.5v22q-43 184 -133 234q-27 16 -51 16q-111 0 -143 -139q-4 -10 -9 -22v-33q-4 -29 -4 -23z " />
<glyph unicode="&#x205f;" horiz-adv-x="748" />
<glyph unicode="&#x20ac;" horiz-adv-x="1415" d="M-6 604q0 90 39 205q53 164 176 272q84 72 176 115q23 10 141 45q109 31 222 31q125 0 243 -35q162 -47 162 -137q0 -39 -41 -76t-74 -37q-27 0 -43 35q-18 45 -45 63q-33 23 -107.5 43.5t-127.5 20.5q-246 0 -373 -250q-16 -33 -18 -53q-4 -37 45 -37h219q4 0 46 -4 t46 -4h213q72 0 82 -2q35 -10 35 -56q0 -16 -19.5 -26t-38.5 -21q-10 -6 -34 -2q-27 6 -35 2q-14 -6 -35 -6q-53 0 -168 6q-106 8 -184 6q-2 -2 -111 -4q-84 -4 -94 -29.5t-4 -35.5q12 -10 32 -10h218q6 0 50 2t48 2h213h100q25 -2 25 -17q0 2 -8 -41q-2 -16 -20.5 -20 t-37.5 -6q-41 -10 -129 -6q-109 4 -114 4l-213 -13q-4 -2 -127 -8q-31 -2 -40.5 -11t-4.5 -40q4 -12 10 -37q16 -139 164 -237q131 -86 254 -86q39 0 217 45q14 4 80 32q55 23 79 23q27 0 27 -29q0 -25 -45 -63q-39 -31 -70 -45q-72 -33 -225 -86q-57 -14 -115 -15 q-106 0 -190 21q-16 2 -154 67q-166 76 -250 246q-68 137 -67 299z" />
<glyph unicode="&#x2122;" horiz-adv-x="2191" d="M39 1364q0 20 65 43q59 20 94 25.5t105 13.5l338 -2q41 4 59 4q27 0 27 -14q0 -29 -45 -37t-104 -11q-6 0 -23.5 -2t-22.5 -2h-69q-33 0 -51 -18q-8 -6 -9 -49v-381q0 -8 19 -14q10 -2 20.5 -6.5t10.5 -14.5q0 -6 -29 -29q-70 -55 -115 -55q-18 0 -20 12q-12 76 -15 121 q-2 59 -2 105v229l4 27q4 20 0 34q-8 27 -65 27q-39 0 -123 -12q-41 -4 -29 -4q-20 0 -20 10zM543 885q4 6 18 6l2 -2l2 2q8 -2 22.5 -1t20.5 1q12 0 19 12q33 61 106 205q162 330 232 330q23 0 56.5 -16.5t33.5 -32.5q0 -4 -22.5 -41t-22.5 -43q0 -18 110 -134 q92 -92 119 -114q10 4 45 73q43 96 86 195q70 150 98 150q16 0 57.5 -34t41.5 -55q0 -6 -23 -38q-31 -43 -37 -54l387 -467v-14q-23 -10 -49 -10q-72 0 -127 26q0 55 2 45q-10 35 -22 58q-27 43 -76 121q-12 18 -70 88q-66 80 -79 80q-23 0 -97 -187q-31 -82 -92 -198 q-8 -16 -35 -17q-20 0 -46.5 18.5t-26.5 39.5q0 4 15 30.5t15 32.5q0 31 -112.5 154t-124.5 123q-16 0 -49 -62q-16 -33 -31 -68q-37 -68 -72 -137q-45 -86 -92 -133q-10 -10 -49 -10q-20 0 -70 35q-23 16 -63 43z" />
<glyph unicode="&#x25fc;" horiz-adv-x="1249" d="M0 0v1249h1249v-1249h-1249z" />
</font>
</defs>
</svg>
